<svg xmlns="http://www.w3.org/2000/svg" width="268.411" height="228.365" viewBox="0 0 268.411 228.365">
  <g id="JavaScript_frameworks-rafiki" data-name="JavaScript frameworks-rafiki" transform="translate(-56.11 -97.637)">
    <g id="freepik--Shadow--inject-15" transform="translate(56.11 310.33)">
      <ellipse id="freepik--path--inject-15" cx="134.206" cy="7.835" rx="134.206" ry="7.835" transform="translate(0 0)" fill="#f5f5f5"/>
    </g>
    <g id="freepik--Programming--inject-15" transform="translate(148.509 97.637)">
      <rect id="Rectangle_854" data-name="Rectangle 854" width="0.692" height="3.655" transform="matrix(0.113, -0.994, 0.994, 0.113, 67.829, 4.635)" fill="#00a0df"/>
      <rect id="Rectangle_855" data-name="Rectangle 855" width="0.692" height="11.857" transform="matrix(0.113, -0.994, 0.994, 0.113, 52.081, 2.855)" fill="#00a0df"/>
      <rect id="Rectangle_856" data-name="Rectangle 856" width="132.115" height="102.296" rx="4.9" transform="matrix(0.994, 0.113, -0.113, 0.994, 11.527, 0)" fill="#00a0df"/>
      <path id="Path_980" data-name="Path 980" d="M192.773,195.989l10.459-92.26A2.485,2.485,0,0,1,206,101.542l123,13.94a2.492,2.492,0,0,1,2.187,2.769L320.7,210.476a2.478,2.478,0,0,1-2.769,2.187l-123-13.947A2.478,2.478,0,0,1,192.773,195.989Z" transform="translate(-190.573 -98.833)" fill="#263238" opacity="0.7"/>
      <rect id="Rectangle_857" data-name="Rectangle 857" width="52.162" height="2.568" transform="matrix(0.994, 0.113, -0.113, 0.994, 68.189, 33.509)" fill="#00a0df"/>
      <rect id="Rectangle_858" data-name="Rectangle 858" width="55.263" height="2.568" transform="matrix(0.994, 0.113, -0.113, 0.994, 73.053, 38.178)" fill="#00a0df"/>
      <rect id="Rectangle_859" data-name="Rectangle 859" width="45.787" height="2.568" transform="matrix(0.994, 0.113, -0.113, 0.994, 72.588, 42.246)" fill="#00a0df"/>
      <rect id="Rectangle_860" data-name="Rectangle 860" width="41.011" height="2.568" transform="matrix(0.994, 0.113, -0.113, 0.994, 72.128, 46.317)" fill="#00a0df"/>
      <rect id="Rectangle_861" data-name="Rectangle 861" width="33.889" height="2.568" transform="matrix(0.994, 0.113, -0.113, 0.994, 66.051, 52.335)" fill="#00a0df"/>
      <rect id="Rectangle_862" data-name="Rectangle 862" width="36.388" height="2.568" transform="matrix(0.994, 0.113, -0.113, 0.994, 69.992, 65.154)" fill="#00a0df"/>
      <rect id="Rectangle_863" data-name="Rectangle 863" width="30.151" height="2.568" transform="matrix(0.994, 0.113, -0.113, 0.994, 70.453, 61.083)" fill="#00a0df"/>
      <rect id="Rectangle_864" data-name="Rectangle 864" width="33.204" height="2.568" transform="matrix(0.994, 0.113, -0.113, 0.994, 70.917, 57.013)" fill="#00a0df"/>
      <rect id="Rectangle_865" data-name="Rectangle 865" width="33.889" height="2.568" transform="matrix(0.994, 0.113, -0.113, 0.994, 62.534, 83.38)" fill="#00a0df"/>
      <rect id="Rectangle_866" data-name="Rectangle 866" width="36.388" height="2.568" transform="matrix(0.994, 0.113, -0.113, 0.994, 66.468, 96.199)" fill="#00a0df"/>
      <rect id="Rectangle_867" data-name="Rectangle 867" width="30.033" height="2.558" transform="translate(66.65 91.012) rotate(6.34)" fill="#00a0df"/>
      <rect id="Rectangle_868" data-name="Rectangle 868" width="33.204" height="2.568" transform="matrix(0.994, 0.113, -0.113, 0.994, 67.393, 88.058)" fill="#00a0df"/>
      <rect id="Rectangle_869" data-name="Rectangle 869" width="27.521" height="2.568" transform="matrix(0.994, 0.113, -0.113, 0.994, 18.43, 8.635)" fill="#fff"/>
      <rect id="Rectangle_870" data-name="Rectangle 870" width="29.542" height="2.568" transform="matrix(0.994, 0.113, -0.113, 0.994, 21.37, 21.329)" fill="#fff"/>
      <rect id="Rectangle_871" data-name="Rectangle 871" width="24.482" height="2.568" transform="matrix(0.994, 0.113, -0.113, 0.994, 21.83, 17.264)" fill="#fff"/>
      <rect id="Rectangle_872" data-name="Rectangle 872" width="26.96" height="2.568" transform="matrix(0.994, 0.113, -0.113, 0.994, 22.284, 13.187)" fill="#fff"/>
      <rect id="Rectangle_873" data-name="Rectangle 873" width="36.388" height="2.568" transform="matrix(0.994, 0.113, -0.113, 0.994, 68.605, 77.366)" fill="#00a0df"/>
      <rect id="Rectangle_874" data-name="Rectangle 874" width="30.151" height="2.568" transform="matrix(0.994, 0.113, -0.113, 0.994, 69.065, 73.295)" fill="#00a0df"/>
      <rect id="Rectangle_875" data-name="Rectangle 875" width="33.204" height="2.568" transform="matrix(0.994, 0.113, -0.113, 0.994, 69.529, 69.225)" fill="#00a0df"/>
    </g>
    <g id="freepik--Character--inject-15" transform="translate(130.982 129.413)">
      <path id="Path_981" data-name="Path 981" d="M228.142,407.482l-4.575-.1-.637-10.618,4.575.1Z" transform="translate(-182.334 -221.49)" fill="#ffc3bd"/>
      <path id="Path_982" data-name="Path 982" d="M219.522,411.33l5,.111a.4.4,0,0,1,.381.318l.817,4.091a.692.692,0,0,1-.692.8c-1.8-.069-4.4-.228-6.666-.284-2.651-.055-3.129.408-6.23.083-1.869-.194-2.194-2.139-1.384-2.229a14.162,14.162,0,0,0,7.614-2.554A2.118,2.118,0,0,1,219.522,411.33Z" transform="translate(-178.455 -225.975)" fill="#263238"/>
      <path id="Path_983" data-name="Path 983" d="M222.93,396.77l.332,5.468,4.575.1-.325-5.468Z" transform="translate(-182.334 -221.494)" opacity="0.2"/>
      <path id="Path_984" data-name="Path 984" d="M205.988,192.936c-1.523,2.983-3.129,5.87-4.845,8.749s-3.461,5.69-5.537,8.514c-.263.353-.554.692-.831,1.073-.118.159-.318.388-.5.588s-.367.422-.568.609a11.669,11.669,0,0,1-2.623,1.98,14.4,14.4,0,0,1-5.842,1.786,20.35,20.35,0,0,1-5.572-.27,23.716,23.716,0,0,1-2.623-.623,20.922,20.922,0,0,1-2.568-.921l1.107-3.5c.692.076,1.481.159,2.229.2a20.7,20.7,0,0,0,2.27,0,18.6,18.6,0,0,0,4.257-.54,9.372,9.372,0,0,0,3.378-1.53,6.329,6.329,0,0,0,1.177-1.135,2.843,2.843,0,0,0,.242-.325c.083-.111.152-.2.263-.374l.609-.934c1.627-2.6,3.2-5.461,4.755-8.306l4.672-8.541Z" transform="translate(-167.42 -157.672)" fill="#ffc3bd"/>
      <path id="Path_985" data-name="Path 985" d="M218.924,186.25c.692,4.153-8.8,16.674-8.8,16.674l-6.956-8.368a67.519,67.519,0,0,1,6.783-9.614C213.56,180.9,218.156,181.668,218.924,186.25Z" transform="translate(-176.251 -155.479)" fill="#fff"/>
      <path id="Path_986" data-name="Path 986" d="M218.41,193.1c-2.769.692-7.434,3.634-9.69,9.351l3.136,3.779s5.627-7.4,7.9-12.715A1.218,1.218,0,0,0,218.41,193.1Z" transform="translate(-177.96 -158.781)" opacity="0.2"/>
      <path id="Path_987" data-name="Path 987" d="M215.8,182.267s-7.3,9.3-6.811,36.152l24.648,4.458c.851-3.752,1.156-19.014,8.029-36.18a65.425,65.425,0,0,0-8.064-2.533,90.946,90.946,0,0,0-10.479-1.9A47.067,47.067,0,0,0,215.8,182.267Z" transform="translate(-178.036 -155.42)" fill="#fff"/>
      <path id="Path_988" data-name="Path 988" d="M248.185,203.87a9.541,9.541,0,0,0-.27,8.306c.332-1.717.727-3.516,1.2-5.392Z" transform="translate(-189.772 -162.114)" opacity="0.2"/>
      <path id="Path_989" data-name="Path 989" d="M228.9,182.33s-2.956,5.807.491,8.825c6.029-.512,9.988-6.922,9.988-6.922Z" transform="translate(-183.807 -155.483)" fill="#263238"/>
      <path id="Path_990" data-name="Path 990" d="M164.28,217.13l.076,3.44,2.976,2.153L168.675,218Z" transform="translate(-164.28 -166.196)" fill="#ffc3bd"/>
      <path id="Path_991" data-name="Path 991" d="M175.335,220.2l-5.3-1.807-1.343,4.721s3.087,1.343,5.537-.457Z" transform="translate(-165.638 -166.584)" fill="#ffc3bd"/>
      <path id="Path_992" data-name="Path 992" d="M240.808,167.75c-1.274,3.253-3.046,9.31-1.094,11.988,0,0-2.686,3.136-8.714,3.648-3.461-3.018-1.765-5.537-1.765-5.537,3.925-.221,4.326-3.025,4.153-5.766Z" transform="translate(-184.147 -150.995)" fill="#ffc3bd"/>
      <path id="Path_993" data-name="Path 993" d="M239.815,170.3l-4.4,2.561a11.764,11.764,0,0,1,0,1.917c1.952,1,3.544-.048,4.4-2.16a5.212,5.212,0,0,0,0-2.319Z" transform="translate(-186.179 -151.78)" opacity="0.2"/>
      <path id="Path_994" data-name="Path 994" d="M232.043,158.928c.284,2.077,6.686-1.308,7.766-2.021s-.159-3.184-2.589-5.177S231.386,154.076,232.043,158.928Z" transform="translate(-185.114 -145.911)" fill="#263238"/>
      <path id="Path_995" data-name="Path 995" d="M244.617,159.691c-1.959,4.215-2.886,6.783-5.939,8.14-4.582,2.077-9.144-2.014-8.486-6.728.588-4.243,3.689-10.424,8.59-10.493a6.34,6.34,0,0,1,5.835,9.081Z" transform="translate(-184.55 -145.719)" fill="#ffc3bd"/>
      <path id="Path_996" data-name="Path 996" d="M248.077,165.266c-2.077.311-.609-6.783-.228-8.015s3.675-2.36,5.537.173C255.621,160.518,252.922,164.546,248.077,165.266Z" transform="translate(-189.74 -147.349)" fill="#263238"/>
      <path id="Path_997" data-name="Path 997" d="M244.131,147.03c-1.862-.374-1.329-2.346.042-2.243-1.1-1.336-7.614-2.554-7.967,1.765s8.043,6.714,10.313,7.019l3.385.948C254.465,152.242,249.405,148.089,244.131,147.03Z" transform="translate(-186.417 -143.544)" fill="#263238"/>
      <path id="Path_998" data-name="Path 998" d="M249.332,169.552a4.416,4.416,0,0,1-3.163,1.184c-1.544-.069-1.841-1.564-1.011-2.769.741-1.094,2.45-2.374,3.814-1.717a1.987,1.987,0,0,1,.36,3.3Z" transform="translate(-189.037 -150.478)" fill="#ffc3bd"/>
      <path id="Path_999" data-name="Path 999" d="M207.363,395.239l-4.492.886-2.2-10.369,4.492-.886Z" transform="translate(-175.482 -217.83)" fill="#ffc3bd"/>
      <path id="Path_1000" data-name="Path 1000" d="M199.537,400l4.908-.969a.4.4,0,0,1,.443.235l1.668,3.814a.692.692,0,0,1-.485.928c-1.779.318-4.354.692-6.576,1.156-2.6.512-3.461.568-6.486,1.17-1.848.36-2.727-1.384-1.987-1.724,3.364-1.46,4.845-1.578,7.5-4.049a2.076,2.076,0,0,1,1.011-.561Z" transform="translate(-172.432 -222.186)" fill="#263238"/>
      <path id="Path_1001" data-name="Path 1001" d="M200.67,385.756l1.135,5.344,4.492-.886-1.135-5.344Z" transform="translate(-175.482 -217.83)" opacity="0.2"/>
      <path id="Path_1002" data-name="Path 1002" d="M200.393,401.575a1.384,1.384,0,0,1-.927.083.643.643,0,0,1-.415-.471.346.346,0,0,1,.069-.36c.388-.422,2.132-.076,2.326-.035a.118.118,0,0,1,.09.09.111.111,0,0,1-.048.111,5.538,5.538,0,0,1-1.094.581Zm-.983-.692a.347.347,0,0,0-.125.076.131.131,0,0,0,0,.145.436.436,0,0,0,.277.325,2.249,2.249,0,0,0,1.592-.491,4.492,4.492,0,0,0-1.772-.055Z" transform="translate(-174.976 -222.679)" fill="#00a0df"/>
      <path id="Path_1003" data-name="Path 1003" d="M201.652,400.376H201.6c-.547-.083-1.779-.692-1.869-1.246a.36.36,0,0,1,.235-.395.582.582,0,0,1,.491,0c.692.228,1.232,1.461,1.26,1.509a.1.1,0,0,1,0,.111A.09.09,0,0,1,201.652,400.376Zm-1.544-1.474h-.048c-.125.069-.118.138-.111.166.048.3.879.831,1.454,1.011-.187-.353-.6-1.045-1.017-1.191a.422.422,0,0,0-.277.014Z" transform="translate(-175.191 -222.082)" fill="#00a0df"/>
      <path id="Path_1004" data-name="Path 1004" d="M202.456,234.56s-10.943,41.655-14.107,55.589c-3.281,14.5,7.773,53.685,7.773,53.685l7.3-1.44s-3.066-39.952-2.021-46.293c4.188-15.352,17.256-58.606,17.256-58.606Z" transform="translate(-171.502 -171.561)" fill="#00a0df"/>
      <path id="Path_1005" data-name="Path 1005" d="M210.874,276.209a92.7,92.7,0,0,0,.277,17.415c3.129-10.888,7.476-25.493,10.6-35.924C218.6,259.064,212.044,263.39,210.874,276.209Z" transform="translate(-178.536 -178.684)" opacity="0.2"/>
      <path id="Path_1006" data-name="Path 1006" d="M218.957,236.79s-5.731,42.444-5.24,56.163c.533,15.013,4.084,58.676,4.084,58.676l8.562.208s-.132-41.281.692-55.914c.858-15.878,7.822-56.239,7.822-56.239Z" transform="translate(-179.489 -172.248)" fill="#00a0df"/>
      <path id="Path_1007" data-name="Path 1007" d="M228.4,401.575l-9.241-.2-.727-3.5,10.23-.062Z" transform="translate(-180.949 -221.814)" fill="#263238"/>
      <path id="Path_1008" data-name="Path 1008" d="M207.795,388.754l-9.067,1.786-1.467-3.267,10.05-1.793Z" transform="translate(-174.432 -218.018)" fill="#263238"/>
      <path id="Path_1009" data-name="Path 1009" d="M240.885,161.547c-.138.353-.436.568-.692.478s-.3-.45-.166-.8.436-.561.692-.471S241.016,161.2,240.885,161.547Z" transform="translate(-187.573 -148.834)" fill="#263238"/>
      <path id="Path_1010" data-name="Path 1010" d="M235.135,159.3c-.138.346-.436.561-.692.471s-.3-.45-.166-.8.436-.568.692-.478S235.273,158.951,235.135,159.3Z" transform="translate(-185.803 -148.142)" fill="#263238"/>
      <path id="Path_1011" data-name="Path 1011" d="M235.619,160.48a13.5,13.5,0,0,1-2.859,2.353,2.2,2.2,0,0,0,1.557.976Z" transform="translate(-185.36 -148.757)" fill="#ed847e"/>
      <path id="Path_1012" data-name="Path 1012" d="M234.886,167.611a.111.111,0,1,1,.09-.2,3.011,3.011,0,0,0,2.706-.09.111.111,0,1,1,.118.187A3.149,3.149,0,0,1,234.886,167.611Z" transform="translate(-185.99 -150.856)" fill="#263238"/>
      <path id="Path_1013" data-name="Path 1013" d="M243.967,159.908a.242.242,0,0,1-.111-.159,1.779,1.779,0,0,0-.914-1.336.222.222,0,0,1-.111-.291.228.228,0,0,1,.3-.111,2.2,2.2,0,0,1,1.142,1.668.222.222,0,0,1-.187.256.236.236,0,0,1-.118-.028Z" transform="translate(-188.454 -147.992)" fill="#263238"/>
      <path id="Path_1014" data-name="Path 1014" d="M234.053,155.916a.166.166,0,0,1-.069-.069.215.215,0,0,1,.069-.3,2.215,2.215,0,0,1,2.014-.2.228.228,0,0,1,.111.3.222.222,0,0,1-.3.1h0a1.758,1.758,0,0,0-1.592.173.221.221,0,0,1-.235,0Z" transform="translate(-185.725 -147.128)" fill="#263238"/>
      <path id="Path_1015" data-name="Path 1015" d="M247,186.428l-1.149-.311a.228.228,0,0,0-.277.138c-6.382,16.806-7.9,35.6-7.9,35.6l1.28.228a168.621,168.621,0,0,1,8.2-35.356.222.222,0,0,0-.152-.3Z" transform="translate(-186.874 -156.646)" fill="#00a0df"/>
      <g id="Group_704" data-name="Group 704" transform="translate(50.564 64.815)" opacity="0.99">
        <path id="Path_1016" data-name="Path 1016" d="M239.04,237.839a.415.415,0,0,0-.339-.485l-.886-.166a.422.422,0,0,0-.249.8l-.194,1.1a.549.549,0,0,0,1.08.194l.2-1.1A.422.422,0,0,0,239.04,237.839Z" transform="translate(-237.331 -237.183)" fill="#263238"/>
      </g>
      <path id="Path_1017" data-name="Path 1017" d="M219.532,181.81h-1.191a.228.228,0,0,0-.215.159c-5.593,16.958-6.147,35.3-6.147,35.3l1.281.235a166.3,166.3,0,0,1,6.493-35.439.228.228,0,0,0-.221-.256Z" transform="translate(-178.963 -155.323)" fill="#00a0df"/>
      <path id="Path_1018" data-name="Path 1018" d="M213.336,233.195a.443.443,0,0,0-.36-.491l-.886-.166a.4.4,0,0,0-.471.346.45.45,0,0,0,.263.457l-.145,1.107a.581.581,0,0,0,.471.644.519.519,0,0,0,.616-.45l.145-1.107a.388.388,0,0,0,.367-.339Z" transform="translate(-178.851 -170.936)" fill="#263238" opacity="0.99"/>
      <path id="Path_1019" data-name="Path 1019" d="M220.311,411.8a1.384,1.384,0,0,1-.921-.111.692.692,0,0,1-.311-.554.346.346,0,0,1,.145-.332c.478-.332,2.077.381,2.284.464a.106.106,0,0,1-.007.2A5.186,5.186,0,0,1,220.311,411.8Zm-.817-.886a.277.277,0,0,0-.138.048.132.132,0,0,0-.055.138.471.471,0,0,0,.208.381,2.222,2.222,0,0,0,1.654-.145A4.52,4.52,0,0,0,219.494,410.912Z" transform="translate(-181.147 -225.786)" fill="#00a0df"/>
      <path id="Path_1020" data-name="Path 1020" d="M221.833,410.931h-.055c-.519-.2-1.585-1.087-1.557-1.62a.374.374,0,0,1,.311-.339.623.623,0,0,1,.491.083c.6.367.893,1.689.9,1.744a.111.111,0,0,1-.035.111A.076.076,0,0,1,221.833,410.931Zm-1.191-1.751h-.055c-.138.042-.138.111-.145.138,0,.312.692,1,1.211,1.294a2.728,2.728,0,0,0-.748-1.384A.374.374,0,0,0,220.642,409.18Z" transform="translate(-181.5 -225.244)" fill="#00a0df"/>
      <path id="Path_1021" data-name="Path 1021" d="M225.46,256.055l3.869,2.734,2.9-2.139-3.71-4.52Z" transform="translate(-183.113 -176.97)" fill="#ffc3bd"/>
      <path id="Path_1022" data-name="Path 1022" d="M235.355,250.94l-5.475.824,3.71,4.52s3.8-.928,3.592-3.973Z" transform="translate(-184.473 -176.603)" fill="#ffc3bd"/>
      <path id="Path_1023" data-name="Path 1023" d="M253.176,199.08c.208,3.613.318,7.212.339,10.839v5.447c0,.907-.035,1.82-.083,2.769l-.069,1.384-.035.692a7.95,7.95,0,0,1-.118,1.038,11.67,11.67,0,0,1-1.177,3.461,21.785,21.785,0,0,1-1.689,2.693,35.055,35.055,0,0,1-3.883,4.375,55.878,55.878,0,0,1-8.839,6.887l-2.243-2.907c1.2-1.218,2.464-2.485,3.627-3.786s2.319-2.6,3.378-3.925a35.12,35.12,0,0,0,2.831-4.042,15.423,15.423,0,0,0,.976-1.987,6.055,6.055,0,0,0,.436-1.675,2.327,2.327,0,0,1,0-.311V219.4l-.035-1.3-.111-2.637-.291-5.357c-.18-3.558-.325-7.143-.422-10.708Z" transform="translate(-186.166 -160.639)" fill="#ffc3bd"/>
      <path id="Path_1024" data-name="Path 1024" d="M253.673,188.534c5.918,2.2,5.87,18.031,5.87,18.031l-10.016,1.841s-2.423-7.192-1.225-12.854C249.444,190.147,249.174,186.852,253.673,188.534Z" transform="translate(-190.042 -157.257)" fill="#fff"/>
    </g>
    <g id="freepik--JS--inject-15" transform="translate(83.052 119.27)">
      <path id="Path_1025" data-name="Path 1025" d="M131.812,193.016l-26.829-10.05-4.714-28.255L122.42,136.5l26.808,10.037,4.714,28.261Zm-25.7-10.978,25.458,9.531,20.98-17.3-4.471-26.808-25.458-9.531-20.98,17.3Z" transform="translate(-96.646 -131.234)" fill="#00a0df"/>
      <circle id="Ellipse_64" data-name="Ellipse 64" cx="4.298" cy="4.298" r="4.298" transform="matrix(0.581, -0.814, 0.814, 0.581, 19.864, 6.996)" fill="#00a0df"/>
      <circle id="Ellipse_65" data-name="Ellipse 65" cx="4.298" cy="4.298" r="4.298" transform="matrix(0.581, -0.814, 0.814, 0.581, 29.043, 62.058)" fill="#00a0df"/>
      <path id="Path_1026" data-name="Path 1026" d="M165.749,153.273a4.3,4.3,0,1,1,5.994-1A4.3,4.3,0,0,1,165.749,153.273Z" transform="translate(-116.248 -133.997)" fill="#00a0df"/>
      <path id="Path_1027" data-name="Path 1027" d="M96.838,164.7a4.3,4.3,0,1,1,5.994-1A4.3,4.3,0,0,1,96.838,164.7Z" transform="translate(-95.034 -137.514)" fill="#00a0df"/>
      <path id="Path_1028" data-name="Path 1028" d="M172.39,193.123a4.3,4.3,0,1,1,3.209.743A4.3,4.3,0,0,1,172.39,193.123Z" transform="translate(-118.293 -146.264)" fill="#00a0df"/>
      <path id="Path_1029" data-name="Path 1029" d="M103.489,204.533a4.291,4.291,0,1,1,3.2.745A4.3,4.3,0,0,1,103.489,204.533Z" transform="translate(-97.083 -149.776)" fill="#00a0df"/>
      <path id="Path_1030" data-name="Path 1030" d="M122.951,166.6l5.42-.907,1.585,9.5a15.172,15.172,0,0,1,.228,4.644,5.3,5.3,0,0,1-1.7,3,7.233,7.233,0,0,1-3.932,1.772,9.649,9.649,0,0,1-4.222,0,5.274,5.274,0,0,1-2.6-1.724,7.981,7.981,0,0,1-1.5-3.246l5.046-1.571a6.125,6.125,0,0,0,.491,1.689,1.917,1.917,0,0,0,.8.8,1.5,1.5,0,0,0,.921.083,1.474,1.474,0,0,0,1.218-.9,4.575,4.575,0,0,0,.048-2.34Z" transform="translate(-101.559 -140.219)" fill="#263238"/>
      <path id="Path_1031" data-name="Path 1031" d="M140.191,175.922l5.094-1.177a3.946,3.946,0,0,0,1,1.793,2.9,2.9,0,0,0,2.568.692,2.651,2.651,0,0,0,1.689-.838,1.661,1.661,0,0,0,.422-1.384,1.633,1.633,0,0,0-.8-1.121,7.053,7.053,0,0,0-2.942-.547,11.935,11.935,0,0,1-5.427-1.281,4.347,4.347,0,0,1-2.077-3.122,4.693,4.693,0,0,1,.36-2.679,5.247,5.247,0,0,1,2.035-2.277,11.075,11.075,0,0,1,4.153-1.384,8.9,8.9,0,0,1,5.323.395,5.434,5.434,0,0,1,2.769,3.613l-5.046,1.149a2.416,2.416,0,0,0-3.025-1.813,2.208,2.208,0,0,0-1.384.637,1.246,1.246,0,0,0-.318,1.052,1,1,0,0,0,.519.692,4.554,4.554,0,0,0,1.924.339,23.106,23.106,0,0,1,5.337.692,5.454,5.454,0,0,1,2.554,1.564,5,5,0,0,1,1.128,2.478,5.593,5.593,0,0,1-.415,3.253,5.807,5.807,0,0,1-2.243,2.589,10.611,10.611,0,0,1-4.091,1.44q-4.465.748-6.465-.692A6.922,6.922,0,0,1,140.191,175.922Z" transform="translate(-108.77 -139.203)" fill="#263238"/>
    </g>
  </g>
</svg>
