<svg xmlns="http://www.w3.org/2000/svg" width="48" height="41" viewBox="0 0 48 41">
  <g id="icons8-menu" transform="translate(-26 -29)">
    <path id="Path_12" data-name="Path 12" d="M26.7,29.7H73.3v7.6H26.7Z" fill="#00a0df"/>
    <path id="Path_13" data-name="Path 13" d="M72.6,30.4v6.2H27.4V30.4H72.6M74,29H26v9H74Z"/>
    <path id="Path_14" data-name="Path 14" d="M26.7,45.7H73.3v7.6H26.7Z" fill="#00a0df"/>
    <path id="Path_15" data-name="Path 15" d="M72.6,46.4v6.2H27.4V46.4H72.6M74,45H26v9H74Z"/>
    <path id="Path_16" data-name="Path 16" d="M26.7,61.7H73.3v7.6H26.7Z" fill="#00a0df"/>
    <path id="Path_17" data-name="Path 17" d="M72.6,62.4v6.2H27.4V62.4H72.6M74,61H26v9H74ZM59.5,51h-30a.5.5,0,0,1,0-1h30a.5.5,0,0,1,0,1Zm11.1,0h-.9a.5.5,0,0,1,0-1h.9a.5.5,0,0,1,0,1Z"/>
    <path id="Path_18" data-name="Path 18" d="M72.5,67h-39a.5.5,0,0,1,0-1h39a.5.5,0,0,1,0,1ZM30.4,67h-.9a.5.5,0,0,1,0-1h.9a.5.5,0,1,1,0,1Z"/>
    <g id="Group_8" data-name="Group 8">
      <path id="Path_19" data-name="Path 19" d="M66.5,35h-39a.5.5,0,0,1,0-1h39a.5.5,0,0,1,0,1Z"/>
    </g>
    <g id="Group_9" data-name="Group 9">
      <path id="Path_20" data-name="Path 20" d="M70.5,35h-.9a.5.5,0,0,1,0-1h.9a.5.5,0,0,1,0,1Z"/>
    </g>
    <g id="Group_10" data-name="Group 10">
      <path id="Path_21" data-name="Path 21" d="M66.9,51H63.5a.5.5,0,0,1,0-1h3.4a.5.5,0,0,1,0,1Z"/>
    </g>
  </g>
</svg>
