<svg xmlns="http://www.w3.org/2000/svg" width="312.408" height="232.781" viewBox="0 0 312.408 232.781">
  <g id="Server-rafiki" transform="translate(0 -55)">
    <g id="freepik--background-complete--inject-2" transform="translate(0 55)">
      <rect id="Rectangle_673" data-name="Rectangle 673" width="312.408" height="0.156" transform="translate(0 204.565)" fill="#e0e0e0"/>
      <rect id="Rectangle_674" data-name="Rectangle 674" width="30.385" height="0.156" transform="translate(56.546 211.663)" fill="#e0e0e0"/>
      <rect id="Rectangle_675" data-name="Rectangle 675" width="7.991" height="0.156" transform="translate(41.794 211.744)" fill="#e0e0e0"/>
      <rect id="Rectangle_676" data-name="Rectangle 676" width="9.354" height="0.156" transform="translate(121.664 210.694)" fill="#e0e0e0"/>
      <rect id="Rectangle_677" data-name="Rectangle 677" width="38.251" height="0.156" transform="translate(134.61 210.694)" fill="#e0e0e0"/>
      <rect id="Rectangle_678" data-name="Rectangle 678" width="35.477" height="0.156" transform="translate(227.364 211.9)" fill="#e0e0e0"/>
      <rect id="Rectangle_679" data-name="Rectangle 679" width="9.397" height="0.156" transform="translate(214.493 211.9)" fill="#e0e0e0"/>
      <rect id="Rectangle_680" data-name="Rectangle 680" width="8.054" height="0.156" transform="translate(272.214 209.082)" fill="#e0e0e0"/>
      <path id="Path_802" data-name="Path 802" d="M162.417,231.7H41.771a3.568,3.568,0,0,1-3.561-3.568V58.536A3.568,3.568,0,0,1,41.771,55H162.417a3.568,3.568,0,0,1,3.568,3.568V228.13A3.568,3.568,0,0,1,162.417,231.7ZM41.771,55.125a3.411,3.411,0,0,0-3.405,3.411V228.13a3.411,3.411,0,0,0,3.405,3.411H162.417a3.418,3.418,0,0,0,3.411-3.411V58.536a3.418,3.418,0,0,0-3.412-3.411Z" transform="translate(-14.336 -55)" fill="#e0e0e0"/>
      <path id="Path_803" data-name="Path 803" d="M378.72,231.7H258.068a3.574,3.574,0,0,1-3.568-3.568V58.536A3.574,3.574,0,0,1,258.068,55H378.72a3.568,3.568,0,0,1,3.555,3.536V228.13A3.568,3.568,0,0,1,378.72,231.7ZM258.068,55.125a3.418,3.418,0,0,0-3.412,3.411V228.13a3.418,3.418,0,0,0,3.412,3.411H378.72a3.418,3.418,0,0,0,3.411-3.411V58.536a3.418,3.418,0,0,0-3.411-3.411Z" transform="translate(-95.484 -55)" fill="#e0e0e0"/>
      <path id="Path_804" data-name="Path 804" d="M469.509,297.513h-43.05a1.756,1.756,0,0,1-1.756-1.75v-113.2a1.443,1.443,0,0,0-1.443-1.443h-4.53v-.312h4.542a1.756,1.756,0,0,1,1.756,1.756v113.2a1.443,1.443,0,0,0,1.443,1.437h43.037Z" transform="translate(-157.101 -102.202)" fill="#e0e0e0"/>
      <path id="Path_805" data-name="Path 805" d="M469.509,293.874H427.921a1.756,1.756,0,0,1-1.756-1.756V178.946a1.443,1.443,0,0,0-1.437-1.443h-6v-.312h6a1.756,1.756,0,0,1,1.749,1.756V292.119a1.45,1.45,0,0,0,1.443,1.443h41.588Z" transform="translate(-157.101 -100.844)" fill="#e0e0e0"/>
      <path id="Path_806" data-name="Path 806" d="M469.509,290.2H429.383a1.756,1.756,0,0,1-1.756-1.756v-113.2a1.443,1.443,0,0,0-1.437-1.443h-7.46v-.312h7.46a1.756,1.756,0,0,1,1.749,1.756v113.2a1.45,1.45,0,0,0,1.443,1.443h40.126Z" transform="translate(-157.101 -99.455)" fill="#e0e0e0"/>
      <path id="Path_807" data-name="Path 807" d="M469.509,286.543H430.845a1.756,1.756,0,0,1-1.75-1.756v-113.2a1.443,1.443,0,0,0-1.443-1.437H418.73v-.312h8.916a1.756,1.756,0,0,1,1.756,1.749v113.2a1.443,1.443,0,0,0,1.437,1.443h38.67Z" transform="translate(-157.101 -98.086)" fill="#e0e0e0"/>
      <path id="Path_808" data-name="Path 808" d="M469.509,282.912h-37.2a1.756,1.756,0,0,1-1.75-1.756V167.946a1.443,1.443,0,0,0-1.443-1.443H418.73v-.312h10.384a1.756,1.756,0,0,1,1.756,1.756V281.131a1.443,1.443,0,0,0,1.437,1.443h37.2Z" transform="translate(-157.101 -96.717)" fill="#e0e0e0"/>
      <path id="Path_809" data-name="Path 809" d="M469.494,279.223H433.761A1.756,1.756,0,0,1,432,277.467V164.276a1.443,1.443,0,0,0-1.443-1.443H418.69v-.312h11.872a1.756,1.756,0,0,1,1.756,1.756V277.467a1.437,1.437,0,0,0,1.443,1.443h35.733Z" transform="translate(-157.086 -95.34)" fill="#e0e0e0"/>
      <path id="Path_810" data-name="Path 810" d="M469.509,275.563H435.238a1.756,1.756,0,0,1-1.756-1.749v-113.2a1.45,1.45,0,0,0-1.443-1.443H418.73v-.312h13.29a1.756,1.756,0,0,1,1.756,1.756v113.2a1.437,1.437,0,0,0,1.443,1.437h34.29Z" transform="translate(-157.101 -93.967)" fill="#e0e0e0"/>
      <rect id="Rectangle_681" data-name="Rectangle 681" width="38.614" height="0.312" transform="translate(135.61 89.986)" fill="#e0e0e0"/>
      <rect id="Rectangle_682" data-name="Rectangle 682" width="38.614" height="0.312" transform="translate(135.61 87.699)" fill="#e0e0e0"/>
      <rect id="Rectangle_683" data-name="Rectangle 683" width="38.614" height="0.312" transform="translate(135.61 85.412)" fill="#e0e0e0"/>
      <rect id="Rectangle_684" data-name="Rectangle 684" width="38.614" height="0.312" transform="translate(135.61 83.126)" fill="#e0e0e0"/>
      <rect id="Rectangle_685" data-name="Rectangle 685" width="38.614" height="0.312" transform="translate(135.61 80.845)" fill="#e0e0e0"/>
      <rect id="Rectangle_686" data-name="Rectangle 686" width="38.614" height="0.312" transform="translate(135.61 78.558)" fill="#e0e0e0"/>
      <rect id="Rectangle_687" data-name="Rectangle 687" width="38.614" height="0.312" transform="translate(135.61 76.271)" fill="#e0e0e0"/>
      <rect id="Rectangle_688" data-name="Rectangle 688" width="38.614" height="0.312" transform="translate(135.61 167.438)" fill="#e0e0e0"/>
      <rect id="Rectangle_689" data-name="Rectangle 689" width="38.614" height="0.312" transform="translate(135.61 165.151)" fill="#e0e0e0"/>
      <rect id="Rectangle_690" data-name="Rectangle 690" width="38.614" height="0.312" transform="translate(135.61 162.865)" fill="#e0e0e0"/>
      <rect id="Rectangle_691" data-name="Rectangle 691" width="38.614" height="0.312" transform="translate(135.61 160.578)" fill="#e0e0e0"/>
      <rect id="Rectangle_692" data-name="Rectangle 692" width="38.614" height="0.312" transform="translate(135.61 158.291)" fill="#e0e0e0"/>
      <rect id="Rectangle_693" data-name="Rectangle 693" width="38.614" height="0.312" transform="translate(135.61 156.01)" fill="#e0e0e0"/>
      <rect id="Rectangle_694" data-name="Rectangle 694" width="38.614" height="0.312" transform="translate(135.61 153.724)" fill="#e0e0e0"/>
      <path id="Path_811" data-name="Path 811" d="M74.374,279.7h-15a1.756,1.756,0,0,1-1.756-1.731V164.749a1.437,1.437,0,0,0-1.437-1.443H38.46V163H56.186a1.749,1.749,0,0,1,1.749,1.756v113.21a1.443,1.443,0,0,0,1.443,1.443h15Z" transform="translate(-14.43 -95.52)" fill="#e0e0e0"/>
      <path id="Path_812" data-name="Path 812" d="M74.386,283.353H57.928a1.756,1.756,0,0,1-1.756-1.756V168.406a1.437,1.437,0,0,0-1.437-1.443H38.49v-.312H54.735a1.756,1.756,0,0,1,1.749,1.756V281.6a1.443,1.443,0,0,0,1.443,1.443H74.386Z" transform="translate(-14.441 -96.889)" fill="#e0e0e0"/>
      <path id="Path_813" data-name="Path 813" d="M74.374,287.013H56.455a1.756,1.756,0,0,1-1.756-1.756v-113.2a1.437,1.437,0,0,0-1.437-1.437H38.46v-.312h14.8a1.756,1.756,0,0,1,1.749,1.749v113.2a1.45,1.45,0,0,0,1.443,1.443h17.92Z" transform="translate(-14.43 -98.262)" fill="#e0e0e0"/>
      <path id="Path_814" data-name="Path 814" d="M74.374,290.684H55.005a1.756,1.756,0,0,1-1.756-1.756v-113.2a1.443,1.443,0,0,0-1.443-1.443H38.46V174H51.794a1.756,1.756,0,0,1,1.756,1.756V288.929a1.45,1.45,0,0,0,1.443,1.443H74.362Z" transform="translate(-14.43 -99.647)" fill="#e0e0e0"/>
      <path id="Path_815" data-name="Path 815" d="M74.374,294.329H53.531a1.756,1.756,0,0,1-1.756-1.756v-113.2a1.443,1.443,0,0,0-1.443-1.443H38.46v-.312H50.332a1.756,1.756,0,0,1,1.756,1.756v113.2a1.45,1.45,0,0,0,1.443,1.443H74.374Z" transform="translate(-14.43 -101.005)" fill="#e0e0e0"/>
      <path id="Path_816" data-name="Path 816" d="M74.374,297.983H52.069a1.756,1.756,0,0,1-1.756-1.749v-113.2a1.45,1.45,0,0,0-1.443-1.443H38.46v-.312H48.869a1.756,1.756,0,0,1,1.756,1.756v113.2a1.443,1.443,0,0,0,1.443,1.437H74.374Z" transform="translate(-14.43 -102.378)" fill="#e0e0e0"/>
      <path id="Path_817" data-name="Path 817" d="M74.374,301.643H50.631a1.756,1.756,0,0,1-1.756-1.75V186.7a1.45,1.45,0,0,0-1.443-1.443H38.46v-.312h8.947a1.756,1.756,0,0,1,1.756,1.756v113.2a1.437,1.437,0,0,0,1.443,1.437H74.349Z" transform="translate(-14.43 -103.751)" fill="#e0e0e0"/>
      <rect id="Rectangle_695" data-name="Rectangle 695" width="63.394" height="9.403" transform="translate(59.945 195.155)" fill="#ebebeb"/>
      <rect id="Rectangle_696" data-name="Rectangle 696" width="12.859" height="9.403" transform="translate(136.197 204.565) rotate(180)" fill="#e0e0e0"/>
      <rect id="Rectangle_697" data-name="Rectangle 697" width="67.686" height="166.182" transform="translate(55.652 28.979)" fill="#f5f5f5"/>
      <rect id="Rectangle_698" data-name="Rectangle 698" width="73.466" height="1.418" transform="translate(61.338 27.554)" fill="#ebebeb"/>
      <rect id="Rectangle_699" data-name="Rectangle 699" width="17.145" height="166.182" transform="translate(140.484 195.155) rotate(180)" fill="#ebebeb"/>
      <rect id="Rectangle_700" data-name="Rectangle 700" width="63.65" height="18.207" transform="translate(57.671 30.966)" fill="#ebebeb"/>
      <rect id="Rectangle_701" data-name="Rectangle 701" width="63.65" height="18.207" transform="translate(57.671 174.855)" fill="#ebebeb"/>
      <rect id="Rectangle_702" data-name="Rectangle 702" width="63.65" height="18.207" transform="translate(57.671 154.298)" fill="#ebebeb"/>
      <rect id="Rectangle_703" data-name="Rectangle 703" width="63.65" height="18.207" transform="translate(57.671 133.748)" fill="#ebebeb"/>
      <rect id="Rectangle_704" data-name="Rectangle 704" width="63.65" height="18.207" transform="translate(57.671 113.192)" fill="#ebebeb"/>
      <rect id="Rectangle_705" data-name="Rectangle 705" width="63.65" height="18.207" transform="translate(57.671 92.635)" fill="#ebebeb"/>
      <rect id="Rectangle_706" data-name="Rectangle 706" width="63.65" height="18.207" transform="translate(57.671 72.079)" fill="#ebebeb"/>
      <rect id="Rectangle_707" data-name="Rectangle 707" width="63.65" height="18.207" transform="translate(57.671 51.522)" fill="#ebebeb"/>
      <rect id="Rectangle_708" data-name="Rectangle 708" width="17.72" height="13.009" rx="4.25" transform="translate(101.114 33.571)" fill="#fff" opacity="0.7"/>
      <rect id="Rectangle_709" data-name="Rectangle 709" width="3.324" height="3.33" rx="1.28" transform="translate(116.766 38.414) rotate(90)" fill="#f5f5f5"/>
      <rect id="Rectangle_710" data-name="Rectangle 710" width="17.72" height="13.009" rx="4.25" transform="translate(101.114 54.122)" fill="#fff" opacity="0.7"/>
      <rect id="Rectangle_711" data-name="Rectangle 711" width="3.324" height="3.33" rx="1.28" transform="translate(116.766 58.97) rotate(90)" fill="#f5f5f5"/>
      <rect id="Rectangle_712" data-name="Rectangle 712" width="17.72" height="13.009" rx="4.25" transform="translate(101.114 74.678)" fill="#fff" opacity="0.7"/>
      <rect id="Rectangle_713" data-name="Rectangle 713" width="3.324" height="3.33" rx="1.28" transform="translate(116.766 79.527) rotate(90)" fill="#f5f5f5"/>
      <rect id="Rectangle_714" data-name="Rectangle 714" width="17.72" height="13.009" rx="4.25" transform="translate(101.114 95.235)" fill="#fff" opacity="0.7"/>
      <rect id="Rectangle_715" data-name="Rectangle 715" width="3.324" height="3.33" rx="1.28" transform="translate(116.766 100.077) rotate(90)" fill="#f5f5f5"/>
      <rect id="Rectangle_716" data-name="Rectangle 716" width="17.72" height="13.009" rx="4.25" transform="translate(101.114 115.791)" fill="#fff" opacity="0.7"/>
      <rect id="Rectangle_717" data-name="Rectangle 717" width="3.324" height="3.33" rx="1.28" transform="translate(116.766 120.633) rotate(90)" fill="#f5f5f5"/>
      <rect id="Rectangle_718" data-name="Rectangle 718" width="17.72" height="13.009" rx="4.25" transform="translate(101.114 136.347)" fill="#fff" opacity="0.7"/>
      <rect id="Rectangle_719" data-name="Rectangle 719" width="3.324" height="3.33" rx="1.28" transform="translate(116.766 141.19) rotate(90)" fill="#f5f5f5"/>
      <rect id="Rectangle_720" data-name="Rectangle 720" width="17.72" height="13.009" rx="4.25" transform="translate(101.114 156.904)" fill="#fff" opacity="0.7"/>
      <rect id="Rectangle_721" data-name="Rectangle 721" width="3.324" height="3.33" rx="1.28" transform="translate(116.766 161.746) rotate(90)" fill="#f5f5f5"/>
      <rect id="Rectangle_722" data-name="Rectangle 722" width="17.72" height="13.009" rx="4.25" transform="translate(101.114 177.454)" fill="#fff" opacity="0.7"/>
      <rect id="Rectangle_723" data-name="Rectangle 723" width="3.324" height="3.33" rx="1.28" transform="translate(116.766 182.303) rotate(90)" fill="#f5f5f5"/>
      <rect id="Rectangle_724" data-name="Rectangle 724" width="3.324" height="3.33" rx="1.28" transform="translate(111.636 38.407) rotate(90)" fill="#f5f5f5"/>
      <rect id="Rectangle_725" data-name="Rectangle 725" width="3.324" height="3.33" rx="1.28" transform="translate(111.636 58.964) rotate(90)" fill="#f5f5f5"/>
      <rect id="Rectangle_726" data-name="Rectangle 726" width="3.324" height="3.33" rx="1.28" transform="translate(111.636 79.52) rotate(90)" fill="#f5f5f5"/>
      <rect id="Rectangle_727" data-name="Rectangle 727" width="3.324" height="3.33" rx="1.28" transform="translate(111.636 100.077) rotate(90)" fill="#f5f5f5"/>
      <rect id="Rectangle_728" data-name="Rectangle 728" width="3.324" height="3.33" rx="1.28" transform="translate(111.642 120.633) rotate(90)" fill="#f5f5f5"/>
      <rect id="Rectangle_729" data-name="Rectangle 729" width="3.324" height="3.33" rx="1.28" transform="translate(111.642 141.19) rotate(90)" fill="#f5f5f5"/>
      <rect id="Rectangle_730" data-name="Rectangle 730" width="3.324" height="3.33" rx="1.28" transform="translate(111.636 161.74) rotate(90)" fill="#f5f5f5"/>
      <rect id="Rectangle_731" data-name="Rectangle 731" width="3.324" height="3.33" rx="1.28" transform="translate(111.636 182.296) rotate(90)" fill="#f5f5f5"/>
      <circle id="Ellipse_17" data-name="Ellipse 17" cx="2.099" cy="2.099" r="2.099" transform="translate(92.623 37.97)" fill="#f5f5f5"/>
      <path id="Path_818" data-name="Path 818" d="M142.831,117.869a2.106,2.106,0,1,1-2.106-2.1,2.106,2.106,0,0,1,2.106,2.1Z" transform="translate(-52.008 -77.8)" fill="#f5f5f5"/>
      <path id="Path_819" data-name="Path 819" d="M133.221,117.869a2.106,2.106,0,1,1-2.106-2.1,2.106,2.106,0,0,1,2.106,2.1Z" transform="translate(-48.402 -77.8)" fill="#f5f5f5"/>
      <circle id="Ellipse_18" data-name="Ellipse 18" cx="2.099" cy="2.099" r="2.099" transform="translate(74.609 37.97)" fill="#f5f5f5"/>
      <circle id="Ellipse_19" data-name="Ellipse 19" cx="2.099" cy="2.099" r="2.099" transform="translate(92.623 58.527)" fill="#f5f5f5"/>
      <path id="Path_820" data-name="Path 820" d="M142.831,150.739a2.106,2.106,0,1,1-2.106-2.1A2.106,2.106,0,0,1,142.831,150.739Z" transform="translate(-52.008 -90.132)" fill="#f5f5f5"/>
      <path id="Path_821" data-name="Path 821" d="M133.221,150.739a2.106,2.106,0,1,1-2.106-2.1,2.106,2.106,0,0,1,2.106,2.1Z" transform="translate(-48.402 -90.132)" fill="#f5f5f5"/>
      <circle id="Ellipse_20" data-name="Ellipse 20" cx="2.099" cy="2.099" r="2.099" transform="translate(74.609 58.527)" fill="#f5f5f5"/>
      <path id="Path_822" data-name="Path 822" d="M152.471,183.669a2.1,2.1,0,1,1-.617-1.487,2.106,2.106,0,0,1,.617,1.487Z" transform="translate(-55.625 -102.487)" fill="#f5f5f5"/>
      <path id="Path_823" data-name="Path 823" d="M142.831,183.669a2.1,2.1,0,1,1-.617-1.487A2.106,2.106,0,0,1,142.831,183.669Z" transform="translate(-52.008 -102.487)" fill="#f5f5f5"/>
      <path id="Path_824" data-name="Path 824" d="M133.221,183.669a2.1,2.1,0,1,1-.617-1.487A2.106,2.106,0,0,1,133.221,183.669Z" transform="translate(-48.402 -102.487)" fill="#f5f5f5"/>
      <path id="Path_825" data-name="Path 825" d="M123.611,183.669a2.1,2.1,0,1,1-.617-1.487A2.106,2.106,0,0,1,123.611,183.669Z" transform="translate(-44.797 -102.487)" fill="#f5f5f5"/>
      <path id="Path_826" data-name="Path 826" d="M152.471,216.569a2.1,2.1,0,1,1-.617-1.487,2.106,2.106,0,0,1,.617,1.487Z" transform="translate(-55.625 -114.83)" fill="#f5f5f5"/>
      <path id="Path_827" data-name="Path 827" d="M142.831,216.569a2.1,2.1,0,1,1-.617-1.487A2.106,2.106,0,0,1,142.831,216.569Z" transform="translate(-52.008 -114.83)" fill="#f5f5f5"/>
      <path id="Path_828" data-name="Path 828" d="M133.221,216.569a2.1,2.1,0,1,1-.617-1.487A2.106,2.106,0,0,1,133.221,216.569Z" transform="translate(-48.402 -114.83)" fill="#f5f5f5"/>
      <path id="Path_829" data-name="Path 829" d="M123.611,216.569a2.1,2.1,0,1,1-.617-1.487A2.106,2.106,0,0,1,123.611,216.569Z" transform="translate(-44.797 -114.83)" fill="#f5f5f5"/>
      <path id="Path_830" data-name="Path 830" d="M152.471,249.466a2.1,2.1,0,1,1-.615-1.491A2.106,2.106,0,0,1,152.471,249.466Z" transform="translate(-55.625 -127.17)" fill="#f5f5f5"/>
      <path id="Path_831" data-name="Path 831" d="M142.831,249.466a2.1,2.1,0,1,1-.615-1.491A2.106,2.106,0,0,1,142.831,249.466Z" transform="translate(-52.008 -127.17)" fill="#f5f5f5"/>
      <path id="Path_832" data-name="Path 832" d="M133.221,249.466a2.1,2.1,0,1,1-.615-1.491,2.106,2.106,0,0,1,.615,1.491Z" transform="translate(-48.402 -127.17)" fill="#f5f5f5"/>
      <path id="Path_833" data-name="Path 833" d="M123.611,249.466a2.1,2.1,0,1,1-.615-1.491A2.106,2.106,0,0,1,123.611,249.466Z" transform="translate(-44.797 -127.17)" fill="#f5f5f5"/>
      <path id="Path_834" data-name="Path 834" d="M152.471,282.366a2.106,2.106,0,1,1-2.106-2.106A2.106,2.106,0,0,1,152.471,282.366Z" transform="translate(-55.625 -139.514)" fill="#f5f5f5"/>
      <path id="Path_835" data-name="Path 835" d="M142.831,282.366a2.106,2.106,0,1,1-2.106-2.106A2.106,2.106,0,0,1,142.831,282.366Z" transform="translate(-52.008 -139.514)" fill="#f5f5f5"/>
      <path id="Path_836" data-name="Path 836" d="M133.221,282.366a2.106,2.106,0,1,1-2.106-2.106,2.106,2.106,0,0,1,2.106,2.106Z" transform="translate(-48.402 -139.514)" fill="#f5f5f5"/>
      <path id="Path_837" data-name="Path 837" d="M123.611,282.366a2.106,2.106,0,1,1-2.106-2.106A2.106,2.106,0,0,1,123.611,282.366Z" transform="translate(-44.797 -139.514)" fill="#f5f5f5"/>
      <circle id="Ellipse_21" data-name="Ellipse 21" cx="2.099" cy="2.099" r="2.099" transform="translate(92.623 161.303)" fill="#f5f5f5"/>
      <path id="Path_838" data-name="Path 838" d="M142.831,315.259a2.106,2.106,0,1,1-2.106-2.1,2.106,2.106,0,0,1,2.106,2.1Z" transform="translate(-52.008 -151.857)" fill="#f5f5f5"/>
      <path id="Path_839" data-name="Path 839" d="M133.221,315.259a2.106,2.106,0,1,1-2.106-2.1,2.106,2.106,0,0,1,2.106,2.1Z" transform="translate(-48.402 -151.857)" fill="#f5f5f5"/>
      <circle id="Ellipse_22" data-name="Ellipse 22" cx="2.099" cy="2.099" r="2.099" transform="translate(74.609 161.303)" fill="#f5f5f5"/>
      <circle id="Ellipse_23" data-name="Ellipse 23" cx="2.099" cy="2.099" r="2.099" transform="translate(92.623 181.859)" fill="#f5f5f5"/>
      <path id="Path_840" data-name="Path 840" d="M142.831,348.159a2.106,2.106,0,1,1-2.106-2.1A2.106,2.106,0,0,1,142.831,348.159Z" transform="translate(-52.008 -164.201)" fill="#f5f5f5"/>
      <path id="Path_841" data-name="Path 841" d="M133.221,348.159a2.106,2.106,0,1,1-2.106-2.1,2.106,2.106,0,0,1,2.106,2.1Z" transform="translate(-48.402 -164.201)" fill="#f5f5f5"/>
      <circle id="Ellipse_24" data-name="Ellipse 24" cx="2.099" cy="2.099" r="2.099" transform="translate(74.609 181.859)" fill="#f5f5f5"/>
      <circle id="Ellipse_25" data-name="Ellipse 25" cx="4.555" cy="4.555" r="4.555" transform="translate(61.313 35.515)" fill="#e0e0e0"/>
      <circle id="Ellipse_26" data-name="Ellipse 26" cx="4.555" cy="4.555" r="4.555" transform="translate(61.313 56.071)" fill="#e0e0e0"/>
      <circle id="Ellipse_27" data-name="Ellipse 27" cx="4.555" cy="4.555" r="4.555" transform="translate(60.648 84.958) rotate(-80.8)" fill="#e0e0e0"/>
      <circle id="Ellipse_28" data-name="Ellipse 28" cx="4.555" cy="4.555" r="4.555" transform="translate(60.646 105.515) rotate(-80.8)" fill="#e0e0e0"/>
      <circle id="Ellipse_29" data-name="Ellipse 29" cx="4.555" cy="4.555" r="4.555" transform="translate(59.914 119.826) rotate(-22.39)" fill="#e0e0e0"/>
      <circle id="Ellipse_30" data-name="Ellipse 30" cx="4.555" cy="4.555" r="4.555" transform="translate(59.909 140.383) rotate(-22.39)" fill="#e0e0e0"/>
      <circle id="Ellipse_31" data-name="Ellipse 31" cx="4.555" cy="4.555" r="4.555" transform="translate(61.313 158.847)" fill="#e0e0e0"/>
      <circle id="Ellipse_32" data-name="Ellipse 32" cx="4.555" cy="4.555" r="4.555" transform="translate(61.313 179.404)" fill="#e0e0e0"/>
      <rect id="Rectangle_732" data-name="Rectangle 732" width="73.297" height="8.629" transform="translate(172.056 195.936)" fill="#ebebeb"/>
      <rect id="Rectangle_733" data-name="Rectangle 733" width="12.209" height="8.629" transform="translate(257.562 204.565) rotate(180)" fill="#e0e0e0"/>
      <rect id="Rectangle_734" data-name="Rectangle 734" width="77.365" height="152.418" transform="translate(167.982 43.518)" fill="#f5f5f5"/>
      <rect id="Rectangle_735" data-name="Rectangle 735" width="82.851" height="1.306" transform="translate(173.38 42.213)" fill="#ebebeb"/>
      <rect id="Rectangle_736" data-name="Rectangle 736" width="16.283" height="152.418" transform="translate(261.629 195.936) rotate(180)" fill="#ebebeb"/>
      <rect id="Rectangle_737" data-name="Rectangle 737" width="73.535" height="16.701" transform="translate(243.435 62.044) rotate(180)" fill="#ebebeb"/>
      <rect id="Rectangle_738" data-name="Rectangle 738" width="73.535" height="16.701" transform="translate(243.435 194.018) rotate(180)" fill="#ebebeb"/>
      <rect id="Rectangle_739" data-name="Rectangle 739" width="73.535" height="16.701" transform="translate(243.435 175.161) rotate(180)" fill="#ebebeb"/>
      <rect id="Rectangle_740" data-name="Rectangle 740" width="73.535" height="16.701" transform="translate(243.435 156.31) rotate(180)" fill="#ebebeb"/>
      <rect id="Rectangle_741" data-name="Rectangle 741" width="73.535" height="16.701" transform="translate(243.435 137.453) rotate(180)" fill="#ebebeb"/>
      <rect id="Rectangle_742" data-name="Rectangle 742" width="73.535" height="16.701" transform="translate(243.435 118.609) rotate(180)" fill="#ebebeb"/>
      <rect id="Rectangle_743" data-name="Rectangle 743" width="73.535" height="16.701" transform="translate(243.435 99.752) rotate(180)" fill="#ebebeb"/>
      <rect id="Rectangle_744" data-name="Rectangle 744" width="73.535" height="16.701" transform="translate(243.435 80.901) rotate(180)" fill="#ebebeb"/>
      <rect id="Rectangle_745" data-name="Rectangle 745" width="40.357" height="11.928" rx="3.97" transform="translate(212.613 59.657) rotate(180)" fill="#e0e0e0"/>
      <rect id="Rectangle_746" data-name="Rectangle 746" width="3.049" height="3.162" rx="1.19" transform="translate(177.379 52.172) rotate(90)" fill="#f5f5f5"/>
      <rect id="Rectangle_747" data-name="Rectangle 747" width="40.357" height="11.928" rx="3.97" transform="translate(212.613 78.514) rotate(180)" fill="#e0e0e0"/>
      <rect id="Rectangle_748" data-name="Rectangle 748" width="3.049" height="3.162" rx="1.19" transform="translate(177.385 71.023) rotate(90)" fill="#f5f5f5"/>
      <rect id="Rectangle_749" data-name="Rectangle 749" width="40.357" height="11.928" rx="3.97" transform="translate(212.613 97.365) rotate(180)" fill="#e0e0e0"/>
      <rect id="Rectangle_750" data-name="Rectangle 750" width="3.049" height="3.162" rx="1.19" transform="translate(177.385 89.88) rotate(90)" fill="#f5f5f5"/>
      <rect id="Rectangle_751" data-name="Rectangle 751" width="40.357" height="11.928" rx="3.97" transform="translate(212.613 116.222) rotate(180)" fill="#e0e0e0"/>
      <rect id="Rectangle_752" data-name="Rectangle 752" width="3.049" height="3.162" rx="1.19" transform="translate(177.379 108.731) rotate(90)" fill="#f5f5f5"/>
      <rect id="Rectangle_753" data-name="Rectangle 753" width="40.357" height="11.928" rx="3.97" transform="translate(212.613 135.073) rotate(180)" fill="#e0e0e0"/>
      <rect id="Rectangle_754" data-name="Rectangle 754" width="3.049" height="3.162" rx="1.19" transform="translate(177.385 127.581) rotate(90)" fill="#f5f5f5"/>
      <rect id="Rectangle_755" data-name="Rectangle 755" width="40.357" height="11.928" rx="3.97" transform="translate(212.613 153.923) rotate(180)" fill="#e0e0e0"/>
      <rect id="Rectangle_756" data-name="Rectangle 756" width="3.049" height="3.162" rx="1.19" transform="translate(177.379 146.438) rotate(90)" fill="#f5f5f5"/>
      <rect id="Rectangle_757" data-name="Rectangle 757" width="40.357" height="11.928" rx="3.97" transform="translate(212.613 172.78) rotate(180)" fill="#e0e0e0"/>
      <rect id="Rectangle_758" data-name="Rectangle 758" width="3.049" height="3.162" rx="1.19" transform="translate(177.385 165.289) rotate(90)" fill="#f5f5f5"/>
      <rect id="Rectangle_759" data-name="Rectangle 759" width="40.357" height="11.928" rx="3.97" transform="translate(212.613 191.631) rotate(180)" fill="#e0e0e0"/>
      <rect id="Rectangle_760" data-name="Rectangle 760" width="3.049" height="3.162" rx="1.19" transform="translate(177.385 184.146) rotate(90)" fill="#f5f5f5"/>
      <rect id="Rectangle_761" data-name="Rectangle 761" width="3.049" height="3.162" rx="1.19" transform="translate(182.246 52.172) rotate(90)" fill="#f5f5f5"/>
      <rect id="Rectangle_762" data-name="Rectangle 762" width="3.049" height="3.162" rx="1.19" transform="translate(182.253 71.023) rotate(90)" fill="#f5f5f5"/>
      <rect id="Rectangle_763" data-name="Rectangle 763" width="3.049" height="3.162" rx="1.19" transform="translate(182.253 89.88) rotate(90)" fill="#f5f5f5"/>
      <rect id="Rectangle_764" data-name="Rectangle 764" width="3.049" height="3.162" rx="1.19" transform="translate(182.253 108.731) rotate(90)" fill="#f5f5f5"/>
      <rect id="Rectangle_765" data-name="Rectangle 765" width="3.049" height="3.162" rx="1.19" transform="translate(182.253 127.581) rotate(90)" fill="#f5f5f5"/>
      <rect id="Rectangle_766" data-name="Rectangle 766" width="3.049" height="3.162" rx="1.19" transform="translate(182.246 146.438) rotate(90)" fill="#f5f5f5"/>
      <rect id="Rectangle_767" data-name="Rectangle 767" width="3.049" height="3.162" rx="1.19" transform="translate(182.253 165.289) rotate(90)" fill="#f5f5f5"/>
      <rect id="Rectangle_768" data-name="Rectangle 768" width="3.049" height="3.162" rx="1.19" transform="translate(182.253 184.146) rotate(90)" fill="#f5f5f5"/>
      <rect id="Rectangle_769" data-name="Rectangle 769" width="3.049" height="3.162" rx="1.19" transform="translate(187.114 52.172) rotate(90)" fill="#f5f5f5"/>
      <rect id="Rectangle_770" data-name="Rectangle 770" width="3.049" height="3.162" rx="1.19" transform="translate(187.12 71.023) rotate(90)" fill="#f5f5f5"/>
      <rect id="Rectangle_771" data-name="Rectangle 771" width="3.049" height="3.162" rx="1.19" transform="translate(187.12 89.874) rotate(90)" fill="#f5f5f5"/>
      <rect id="Rectangle_772" data-name="Rectangle 772" width="3.049" height="3.162" rx="1.19" transform="translate(187.12 108.731) rotate(90)" fill="#f5f5f5"/>
      <rect id="Rectangle_773" data-name="Rectangle 773" width="3.049" height="3.162" rx="1.19" transform="translate(187.12 127.581) rotate(90)" fill="#f5f5f5"/>
      <rect id="Rectangle_774" data-name="Rectangle 774" width="3.049" height="3.162" rx="1.19" transform="translate(187.114 146.438) rotate(90)" fill="#f5f5f5"/>
      <rect id="Rectangle_775" data-name="Rectangle 775" width="3.049" height="3.162" rx="1.19" transform="translate(187.12 165.289) rotate(90)" fill="#f5f5f5"/>
      <rect id="Rectangle_776" data-name="Rectangle 776" width="3.049" height="3.162" rx="1.19" transform="translate(187.12 184.14) rotate(90)" fill="#f5f5f5"/>
      <rect id="Rectangle_777" data-name="Rectangle 777" width="3.049" height="3.162" rx="1.19" transform="translate(191.987 52.172) rotate(90)" fill="#f5f5f5"/>
      <rect id="Rectangle_778" data-name="Rectangle 778" width="3.049" height="3.162" rx="1.19" transform="translate(191.987 71.023) rotate(90)" fill="#f5f5f5"/>
      <rect id="Rectangle_779" data-name="Rectangle 779" width="3.049" height="3.162" rx="1.19" transform="translate(191.987 89.874) rotate(90)" fill="#f5f5f5"/>
      <rect id="Rectangle_780" data-name="Rectangle 780" width="3.049" height="3.162" rx="1.19" transform="translate(191.987 108.731) rotate(90)" fill="#f5f5f5"/>
      <rect id="Rectangle_781" data-name="Rectangle 781" width="3.049" height="3.162" rx="1.19" transform="translate(191.987 127.581) rotate(90)" fill="#f5f5f5"/>
      <rect id="Rectangle_782" data-name="Rectangle 782" width="3.049" height="3.162" rx="1.19" transform="translate(191.987 146.438) rotate(90)" fill="#f5f5f5"/>
      <rect id="Rectangle_783" data-name="Rectangle 783" width="3.049" height="3.162" rx="1.19" transform="translate(191.987 165.289) rotate(90)" fill="#f5f5f5"/>
      <rect id="Rectangle_784" data-name="Rectangle 784" width="3.049" height="3.162" rx="1.19" transform="translate(191.987 184.14) rotate(90)" fill="#f5f5f5"/>
      <path id="Path_842" data-name="Path 842" d="M346.8,139.78a2,2,0,1,0,2-1.931,1.962,1.962,0,0,0-2,1.931Z" transform="translate(-130.113 -86.084)" fill="#f5f5f5"/>
      <path id="Path_843" data-name="Path 843" d="M355.929,139.781a2,2,0,1,0,1.993-1.931A1.962,1.962,0,0,0,355.929,139.781Z" transform="translate(-133.538 -86.084)" fill="#f5f5f5"/>
      <path id="Path_844" data-name="Path 844" d="M365.049,139.78a2,2,0,1,0,2-1.931,1.962,1.962,0,0,0-2,1.931Z" transform="translate(-136.96 -86.084)" fill="#f5f5f5"/>
      <path id="Path_845" data-name="Path 845" d="M374.179,139.781a1.993,1.993,0,1,0,1.993-1.931,1.962,1.962,0,0,0-1.993,1.931Z" transform="translate(-140.386 -86.084)" fill="#f5f5f5"/>
      <path id="Path_846" data-name="Path 846" d="M346.8,169.943a2,2,0,1,0,2-1.943,1.962,1.962,0,0,0-2,1.943Z" transform="translate(-130.113 -97.396)" fill="#f5f5f5"/>
      <path id="Path_847" data-name="Path 847" d="M355.929,169.951a2,2,0,1,0,1.993-1.931A1.962,1.962,0,0,0,355.929,169.951Z" transform="translate(-133.538 -97.403)" fill="#f5f5f5"/>
      <path id="Path_848" data-name="Path 848" d="M365.049,169.95a2,2,0,1,0,2-1.931,1.962,1.962,0,0,0-2,1.931Z" transform="translate(-136.96 -97.403)" fill="#f5f5f5"/>
      <path id="Path_849" data-name="Path 849" d="M374.179,169.951a1.993,1.993,0,1,0,1.993-1.931,1.962,1.962,0,0,0-1.993,1.931Z" transform="translate(-140.386 -97.403)" fill="#f5f5f5"/>
      <path id="Path_850" data-name="Path 850" d="M346.8,200.124a2,2,0,1,0,2-1.924A1.962,1.962,0,0,0,346.8,200.124Z" transform="translate(-130.113 -108.726)" fill="#f5f5f5"/>
      <path id="Path_851" data-name="Path 851" d="M355.929,200.124a2,2,0,1,0,1.993-1.924,1.962,1.962,0,0,0-1.993,1.924Z" transform="translate(-133.538 -108.726)" fill="#f5f5f5"/>
      <path id="Path_852" data-name="Path 852" d="M365.049,200.124a2,2,0,1,0,2-1.924A1.962,1.962,0,0,0,365.049,200.124Z" transform="translate(-136.96 -108.726)" fill="#f5f5f5"/>
      <path id="Path_853" data-name="Path 853" d="M374.179,200.124a1.993,1.993,0,1,0,1.993-1.924A1.962,1.962,0,0,0,374.179,200.124Z" transform="translate(-140.385 -108.726)" fill="#f5f5f5"/>
      <path id="Path_854" data-name="Path 854" d="M346.8,230.3a2,2,0,1,0,2-1.931,1.962,1.962,0,0,0-2,1.931Z" transform="translate(-130.113 -120.045)" fill="#f5f5f5"/>
      <path id="Path_855" data-name="Path 855" d="M355.929,230.3a2,2,0,1,0,1.993-1.931A1.962,1.962,0,0,0,355.929,230.3Z" transform="translate(-133.538 -120.045)" fill="#f5f5f5"/>
      <path id="Path_856" data-name="Path 856" d="M365.049,230.3a2,2,0,1,0,2-1.931,1.962,1.962,0,0,0-2,1.931Z" transform="translate(-136.96 -120.045)" fill="#f5f5f5"/>
      <path id="Path_857" data-name="Path 857" d="M374.179,230.3a1.993,1.993,0,1,0,1.993-1.931,1.962,1.962,0,0,0-1.993,1.931Z" transform="translate(-140.386 -120.045)" fill="#f5f5f5"/>
      <path id="Path_858" data-name="Path 858" d="M346.8,260.474a2,2,0,1,0,2-1.924A1.962,1.962,0,0,0,346.8,260.474Z" transform="translate(-130.113 -131.368)" fill="#f5f5f5"/>
      <path id="Path_859" data-name="Path 859" d="M355.929,260.474a2,2,0,1,0,1.993-1.924,1.962,1.962,0,0,0-1.993,1.924Z" transform="translate(-133.538 -131.368)" fill="#f5f5f5"/>
      <path id="Path_860" data-name="Path 860" d="M365.049,260.474a2,2,0,1,0,2-1.924A1.962,1.962,0,0,0,365.049,260.474Z" transform="translate(-136.96 -131.368)" fill="#f5f5f5"/>
      <path id="Path_861" data-name="Path 861" d="M374.179,260.474a1.993,1.993,0,1,0,1.993-1.924,1.962,1.962,0,0,0-1.993,1.924Z" transform="translate(-140.385 -131.368)" fill="#f5f5f5"/>
      <path id="Path_862" data-name="Path 862" d="M346.8,290.65a2,2,0,1,0,2-1.931,1.962,1.962,0,0,0-2,1.931Z" transform="translate(-130.113 -142.688)" fill="#f5f5f5"/>
      <path id="Path_863" data-name="Path 863" d="M355.929,290.651a2,2,0,1,0,1.993-1.931A1.962,1.962,0,0,0,355.929,290.651Z" transform="translate(-133.538 -142.688)" fill="#f5f5f5"/>
      <path id="Path_864" data-name="Path 864" d="M365.049,290.65a2,2,0,1,0,2-1.931,1.962,1.962,0,0,0-2,1.931Z" transform="translate(-136.96 -142.688)" fill="#f5f5f5"/>
      <path id="Path_865" data-name="Path 865" d="M374.179,290.651a1.993,1.993,0,1,0,1.993-1.931,1.962,1.962,0,0,0-1.993,1.931Z" transform="translate(-140.386 -142.688)" fill="#f5f5f5"/>
      <path id="Path_866" data-name="Path 866" d="M346.8,320.844a2,2,0,1,0,2-1.924,1.962,1.962,0,0,0-2,1.924Z" transform="translate(-130.113 -154.018)" fill="#f5f5f5"/>
      <path id="Path_867" data-name="Path 867" d="M355.929,320.844a2,2,0,1,0,1.993-1.924,1.962,1.962,0,0,0-1.993,1.924Z" transform="translate(-133.538 -154.018)" fill="#f5f5f5"/>
      <path id="Path_868" data-name="Path 868" d="M365.049,320.844a2,2,0,1,0,2-1.924,1.962,1.962,0,0,0-2,1.924Z" transform="translate(-136.96 -154.018)" fill="#f5f5f5"/>
      <path id="Path_869" data-name="Path 869" d="M374.179,320.844a1.993,1.993,0,1,0,1.993-1.924A1.962,1.962,0,0,0,374.179,320.844Z" transform="translate(-140.385 -154.018)" fill="#f5f5f5"/>
      <path id="Path_870" data-name="Path 870" d="M346.8,350.994a2,2,0,1,0,2-1.924A1.962,1.962,0,0,0,346.8,350.994Z" transform="translate(-130.113 -165.33)" fill="#f5f5f5"/>
      <path id="Path_871" data-name="Path 871" d="M355.929,350.994a2,2,0,1,0,1.993-1.924,1.962,1.962,0,0,0-1.993,1.924Z" transform="translate(-133.538 -165.33)" fill="#f5f5f5"/>
      <path id="Path_872" data-name="Path 872" d="M365.049,350.994a2,2,0,1,0,2-1.924A1.962,1.962,0,0,0,365.049,350.994Z" transform="translate(-136.96 -165.33)" fill="#f5f5f5"/>
      <path id="Path_873" data-name="Path 873" d="M374.179,350.994a1.993,1.993,0,1,0,1.993-1.924A1.962,1.962,0,0,0,374.179,350.994Z" transform="translate(-140.385 -165.33)" fill="#f5f5f5"/>
    </g>
    <g id="freepik--Shadow--inject-2" transform="translate(35.058 273.636)">
      <ellipse id="Ellipse_33" data-name="Ellipse 33" cx="121.146" cy="7.073" rx="121.146" ry="7.073" fill="#f5f5f5"/>
    </g>
    <g id="freepik--Device--inject-2" transform="translate(63.144 124.373)">
      <rect id="Rectangle_785" data-name="Rectangle 785" width="73.06" height="8.335" transform="translate(11.134 148.563)" fill="#00a0df"/>
      <rect id="Rectangle_786" data-name="Rectangle 786" width="73.06" height="8.335" transform="translate(11.134 148.563)" opacity="0.3"/>
      <rect id="Rectangle_787" data-name="Rectangle 787" width="1.831" height="5.967" transform="translate(13.034 149.75)" fill="#263238"/>
      <rect id="Rectangle_788" data-name="Rectangle 788" width="1.831" height="5.967" transform="translate(16.245 149.75)" fill="#263238"/>
      <rect id="Rectangle_789" data-name="Rectangle 789" width="1.831" height="5.967" transform="translate(19.463 149.75)" fill="#263238"/>
      <rect id="Rectangle_790" data-name="Rectangle 790" width="1.831" height="5.967" transform="translate(22.675 149.75)" fill="#263238"/>
      <rect id="Rectangle_791" data-name="Rectangle 791" width="1.831" height="5.967" transform="translate(25.886 149.75)" fill="#263238"/>
      <rect id="Rectangle_792" data-name="Rectangle 792" width="1.831" height="5.967" transform="translate(29.098 149.75)" fill="#263238"/>
      <rect id="Rectangle_793" data-name="Rectangle 793" width="1.831" height="5.967" transform="translate(32.316 149.75)" fill="#263238"/>
      <rect id="Rectangle_794" data-name="Rectangle 794" width="1.831" height="5.967" transform="translate(35.527 149.75)" fill="#263238"/>
      <rect id="Rectangle_795" data-name="Rectangle 795" width="1.831" height="5.967" transform="translate(38.739 149.75)" fill="#263238"/>
      <rect id="Rectangle_796" data-name="Rectangle 796" width="1.831" height="5.967" transform="translate(41.95 149.75)" fill="#263238"/>
      <rect id="Rectangle_797" data-name="Rectangle 797" width="1.831" height="5.967" transform="translate(45.162 149.75)" fill="#263238"/>
      <rect id="Rectangle_798" data-name="Rectangle 798" width="1.831" height="5.967" transform="translate(48.38 149.75)" fill="#263238"/>
      <rect id="Rectangle_799" data-name="Rectangle 799" width="1.831" height="5.967" transform="translate(51.591 149.75)" fill="#263238"/>
      <rect id="Rectangle_800" data-name="Rectangle 800" width="1.831" height="5.967" transform="translate(54.803 149.75)" fill="#263238"/>
      <rect id="Rectangle_801" data-name="Rectangle 801" width="1.831" height="5.967" transform="translate(58.014 149.75)" fill="#263238"/>
      <rect id="Rectangle_802" data-name="Rectangle 802" width="1.831" height="5.967" transform="translate(61.232 149.75)" fill="#263238"/>
      <rect id="Rectangle_803" data-name="Rectangle 803" width="1.831" height="5.967" transform="translate(64.444 149.75)" fill="#263238"/>
      <rect id="Rectangle_804" data-name="Rectangle 804" width="1.831" height="5.967" transform="translate(67.655 149.75)" fill="#263238"/>
      <rect id="Rectangle_805" data-name="Rectangle 805" width="1.831" height="5.967" transform="translate(70.867 149.75)" fill="#263238"/>
      <rect id="Rectangle_806" data-name="Rectangle 806" width="1.831" height="5.967" transform="translate(74.084 149.75)" fill="#263238"/>
      <rect id="Rectangle_807" data-name="Rectangle 807" width="1.831" height="5.967" transform="translate(77.296 149.75)" fill="#263238"/>
      <rect id="Rectangle_808" data-name="Rectangle 808" width="1.831" height="5.967" transform="translate(80.508 149.75)" fill="#263238"/>
      <rect id="Rectangle_809" data-name="Rectangle 809" width="11.397" height="8.335" transform="translate(95.597 156.904) rotate(180)" fill="#263238"/>
      <rect id="Rectangle_810" data-name="Rectangle 810" width="76.865" height="147.3" transform="translate(7.335 1.262)" fill="#00a0df"/>
      <rect id="Rectangle_811" data-name="Rectangle 811" width="76.865" height="147.3" transform="translate(7.335 1.262)" fill="#fff" opacity="0.3"/>
      <rect id="Rectangle_812" data-name="Rectangle 812" width="81.982" height="1.262" transform="translate(12.371)" fill="#263238"/>
      <rect id="Rectangle_813" data-name="Rectangle 813" width="0.625" height="6.204" transform="translate(4.286 69.898)" fill="#00a0df"/>
      <rect id="Rectangle_814" data-name="Rectangle 814" width="0.625" height="16.139" transform="translate(4.286 78.19)" fill="#00a0df"/>
      <rect id="Rectangle_815" data-name="Rectangle 815" width="15.202" height="147.3" transform="translate(99.396 148.563) rotate(180)" fill="#00a0df"/>
      <rect id="Rectangle_816" data-name="Rectangle 816" width="73.285" height="14.621" rx="3.27" transform="translate(9.122 40.226)" fill="#00a0df" opacity="0.6"/>
      <rect id="Rectangle_817" data-name="Rectangle 817" width="73.285" height="14.621" rx="3.27" transform="translate(9.122 40.226)" opacity="0.2"/>
      <path id="Path_874" data-name="Path 874" d="M221.305,235.338l-2.955-6.1v16.1H227.5v-8.054h-3.062a3.48,3.48,0,0,1-3.137-1.943Z" transform="translate(-145.065 -189.745)" fill="#00a0df"/>
      <rect id="Rectangle_818" data-name="Rectangle 818" width="73.285" height="16.139" transform="translate(9.122 3.024)" fill="#00a0df"/>
      <rect id="Rectangle_819" data-name="Rectangle 819" width="73.285" height="16.139" transform="translate(9.122 3.024)" fill="#fff" opacity="0.2"/>
      <rect id="Rectangle_820" data-name="Rectangle 820" width="73.285" height="16.139" transform="translate(9.122 130.568)" fill="#00a0df"/>
      <rect id="Rectangle_821" data-name="Rectangle 821" width="73.285" height="16.139" transform="translate(9.122 130.568)" fill="#fff" opacity="0.2"/>
      <rect id="Rectangle_822" data-name="Rectangle 822" width="73.285" height="16.139" transform="translate(9.122 112.348)" fill="#00a0df"/>
      <rect id="Rectangle_823" data-name="Rectangle 823" width="73.285" height="16.139" transform="translate(9.122 112.348)" fill="#fff" opacity="0.2"/>
      <rect id="Rectangle_824" data-name="Rectangle 824" width="73.285" height="16.139" transform="translate(9.122 94.129)" fill="#00a0df"/>
      <rect id="Rectangle_825" data-name="Rectangle 825" width="73.285" height="16.139" transform="translate(9.122 94.129)" fill="#fff" opacity="0.2"/>
      <rect id="Rectangle_826" data-name="Rectangle 826" width="73.285" height="16.139" transform="translate(9.122 75.909)" fill="#00a0df"/>
      <rect id="Rectangle_827" data-name="Rectangle 827" width="73.285" height="16.139" transform="translate(9.122 75.909)" fill="#fff" opacity="0.2"/>
      <rect id="Rectangle_828" data-name="Rectangle 828" width="73.285" height="16.139" transform="translate(9.122 57.689)" fill="#00a0df"/>
      <rect id="Rectangle_829" data-name="Rectangle 829" width="73.285" height="16.139" transform="translate(9.122 57.689)" fill="#fff" opacity="0.2"/>
      <rect id="Rectangle_830" data-name="Rectangle 830" width="73.285" height="16.139" transform="translate(0 39.47)" fill="#00a0df"/>
      <rect id="Rectangle_831" data-name="Rectangle 831" width="73.285" height="16.139" transform="translate(0 39.47)" fill="#fff" opacity="0.2"/>
      <rect id="Rectangle_832" data-name="Rectangle 832" width="73.285" height="16.139" transform="translate(9.122 21.244)" fill="#00a0df"/>
      <rect id="Rectangle_833" data-name="Rectangle 833" width="73.285" height="16.139" transform="translate(9.122 21.244)" fill="#fff" opacity="0.2"/>
      <rect id="Rectangle_834" data-name="Rectangle 834" width="32.572" height="11.528" rx="3.77" transform="translate(47.63 5.33)" fill="#00a0df"/>
      <rect id="Rectangle_835" data-name="Rectangle 835" width="2.949" height="11.028" rx="1.475" transform="translate(75.909 9.622) rotate(90)" fill="#fff" opacity="0.2"/>
      <rect id="Rectangle_836" data-name="Rectangle 836" width="32.572" height="11.528" rx="3.77" transform="translate(47.63 23.549)" fill="#00a0df"/>
      <rect id="Rectangle_837" data-name="Rectangle 837" width="2.949" height="11.028" rx="1.475" transform="translate(75.909 27.842) rotate(90)" fill="#fff" opacity="0.2"/>
      <rect id="Rectangle_838" data-name="Rectangle 838" width="32.572" height="11.528" rx="3.77" transform="translate(38.507 41.775)" fill="#00a0df"/>
      <rect id="Rectangle_839" data-name="Rectangle 839" width="2.949" height="11.028" rx="1.475" transform="translate(66.787 46.061) rotate(90)" fill="#fff" opacity="0.2"/>
      <rect id="Rectangle_840" data-name="Rectangle 840" width="32.572" height="11.528" rx="3.77" transform="translate(47.63 59.995)" fill="#00a0df"/>
      <rect id="Rectangle_841" data-name="Rectangle 841" width="2.949" height="11.028" rx="1.475" transform="translate(75.909 64.281) rotate(90)" fill="#fff" opacity="0.2"/>
      <rect id="Rectangle_842" data-name="Rectangle 842" width="32.572" height="11.528" rx="3.77" transform="translate(47.63 78.215)" fill="#00a0df"/>
      <rect id="Rectangle_843" data-name="Rectangle 843" width="2.949" height="11.028" rx="1.475" transform="translate(75.909 82.501) rotate(90)" fill="#fff" opacity="0.2"/>
      <rect id="Rectangle_844" data-name="Rectangle 844" width="32.572" height="11.528" rx="3.77" transform="translate(47.63 96.434)" fill="#00a0df"/>
      <rect id="Rectangle_845" data-name="Rectangle 845" width="2.949" height="11.028" rx="1.475" transform="translate(75.909 100.72) rotate(90)" fill="#fff" opacity="0.2"/>
      <rect id="Rectangle_846" data-name="Rectangle 846" width="32.572" height="11.528" rx="3.77" transform="translate(47.63 114.654)" fill="#00a0df"/>
      <rect id="Rectangle_847" data-name="Rectangle 847" width="2.949" height="11.028" rx="1.475" transform="translate(75.909 118.946) rotate(90)" fill="#fff" opacity="0.2"/>
      <rect id="Rectangle_848" data-name="Rectangle 848" width="32.572" height="11.528" rx="3.77" transform="translate(47.63 132.873)" fill="#00a0df"/>
      <rect id="Rectangle_849" data-name="Rectangle 849" width="2.949" height="11.028" rx="1.475" transform="translate(75.915 137.166) rotate(90)" fill="#fff" opacity="0.2"/>
      <circle id="Ellipse_34" data-name="Ellipse 34" cx="1.862" cy="1.862" r="1.862" transform="translate(40.101 9.235)" fill="#00a0df"/>
      <circle id="Ellipse_35" data-name="Ellipse 35" cx="1.862" cy="1.862" r="1.862" transform="translate(34.777 9.235)" fill="#00a0df"/>
      <circle id="Ellipse_36" data-name="Ellipse 36" cx="1.862" cy="1.862" r="1.862" transform="translate(29.46 9.235)" fill="#00a0df"/>
      <circle id="Ellipse_37" data-name="Ellipse 37" cx="1.862" cy="1.862" r="1.862" transform="translate(29.46 9.235)" fill="#fff" opacity="0.4"/>
      <path id="Path_875" data-name="Path 875" d="M143.4,182.664a1.874,1.874,0,1,1-1.874-1.874A1.874,1.874,0,0,1,143.4,182.664Z" transform="translate(-115.538 -171.568)" fill="#00a0df"/>
      <circle id="Ellipse_38" data-name="Ellipse 38" cx="1.862" cy="1.862" r="1.862" transform="translate(40.101 27.454)" fill="#00a0df"/>
      <circle id="Ellipse_39" data-name="Ellipse 39" cx="1.862" cy="1.862" r="1.862" transform="translate(34.777 27.454)" fill="#00a0df"/>
      <circle id="Ellipse_40" data-name="Ellipse 40" cx="1.862" cy="1.862" r="1.862" transform="translate(29.46 27.454)" fill="#00a0df"/>
      <path id="Path_876" data-name="Path 876" d="M143.4,211.874A1.874,1.874,0,1,1,141.524,210,1.874,1.874,0,0,1,143.4,211.874Z" transform="translate(-115.538 -182.527)" fill="#00a0df"/>
      <path id="Path_877" data-name="Path 877" d="M143.4,211.874A1.874,1.874,0,1,1,141.524,210,1.874,1.874,0,0,1,143.4,211.874Z" transform="translate(-115.538 -182.527)" fill="#fff" opacity="0.4"/>
      <circle id="Ellipse_41" data-name="Ellipse 41" cx="1.862" cy="1.862" r="1.862" transform="translate(30.978 45.674)" fill="#00a0df"/>
      <circle id="Ellipse_42" data-name="Ellipse 42" cx="1.862" cy="1.862" r="1.862" transform="translate(30.978 45.674)" fill="#fff" opacity="0.4"/>
      <circle id="Ellipse_43" data-name="Ellipse 43" cx="1.862" cy="1.862" r="1.862" transform="translate(25.655 45.674)" fill="#00a0df"/>
      <circle id="Ellipse_44" data-name="Ellipse 44" cx="1.862" cy="1.862" r="1.862" transform="translate(20.338 45.674)" fill="#00a0df"/>
      <circle id="Ellipse_45" data-name="Ellipse 45" cx="1.862" cy="1.862" r="1.862" transform="translate(20.338 45.674)" fill="#fff" opacity="0.4"/>
      <circle id="Ellipse_46" data-name="Ellipse 46" cx="1.862" cy="1.862" r="1.862" transform="translate(15.014 45.674)" fill="#00a0df"/>
      <circle id="Ellipse_47" data-name="Ellipse 47" cx="1.862" cy="1.862" r="1.862" transform="translate(40.101 63.894)" fill="#00a0df"/>
      <circle id="Ellipse_48" data-name="Ellipse 48" cx="1.862" cy="1.862" r="1.862" transform="translate(40.101 63.894)" fill="#fff" opacity="0.4"/>
      <circle id="Ellipse_49" data-name="Ellipse 49" cx="1.862" cy="1.862" r="1.862" transform="translate(34.777 63.894)" fill="#00a0df"/>
      <circle id="Ellipse_50" data-name="Ellipse 50" cx="1.862" cy="1.862" r="1.862" transform="translate(34.777 63.894)" fill="#fff" opacity="0.4"/>
      <circle id="Ellipse_51" data-name="Ellipse 51" cx="1.862" cy="1.862" r="1.862" transform="translate(29.46 63.894)" fill="#00a0df"/>
      <path id="Path_878" data-name="Path 878" d="M143.4,270.144a1.874,1.874,0,1,1-1.874-1.874A1.874,1.874,0,0,1,143.4,270.144Z" transform="translate(-115.538 -204.389)" fill="#00a0df"/>
      <circle id="Ellipse_52" data-name="Ellipse 52" cx="1.862" cy="1.862" r="1.862" transform="translate(40.101 82.113)" fill="#00a0df"/>
      <circle id="Ellipse_53" data-name="Ellipse 53" cx="1.862" cy="1.862" r="1.862" transform="translate(34.777 82.113)" fill="#00a0df"/>
      <circle id="Ellipse_54" data-name="Ellipse 54" cx="1.862" cy="1.862" r="1.862" transform="translate(34.777 82.113)" fill="#fff" opacity="0.4"/>
      <circle id="Ellipse_55" data-name="Ellipse 55" cx="1.862" cy="1.862" r="1.862" transform="translate(29.46 82.113)" fill="#00a0df"/>
      <path id="Path_879" data-name="Path 879" d="M143.4,299.3a1.874,1.874,0,1,1-1.874-1.874A1.874,1.874,0,0,1,143.4,299.3Z" transform="translate(-115.538 -215.329)" fill="#00a0df"/>
      <circle id="Ellipse_56" data-name="Ellipse 56" cx="1.862" cy="1.862" r="1.862" transform="translate(40.101 100.333)" fill="#00a0df"/>
      <circle id="Ellipse_57" data-name="Ellipse 57" cx="1.862" cy="1.862" r="1.862" transform="translate(34.777 100.333)" fill="#00a0df"/>
      <circle id="Ellipse_58" data-name="Ellipse 58" cx="1.862" cy="1.862" r="1.862" transform="translate(29.46 100.333)" fill="#00a0df"/>
      <circle id="Ellipse_59" data-name="Ellipse 59" cx="1.862" cy="1.862" r="1.862" transform="translate(29.46 100.333)" fill="#fff" opacity="0.4"/>
      <path id="Path_880" data-name="Path 880" d="M143.4,328.464a1.874,1.874,0,1,1-1.874-1.874A1.874,1.874,0,0,1,143.4,328.464Z" transform="translate(-115.538 -226.27)" fill="#00a0df"/>
      <path id="Path_881" data-name="Path 881" d="M143.4,328.464a1.874,1.874,0,1,1-1.874-1.874A1.874,1.874,0,0,1,143.4,328.464Z" transform="translate(-115.538 -226.27)" fill="#fff" opacity="0.4"/>
      <path id="Path_882" data-name="Path 882" d="M168.949,357.634a1.874,1.874,0,1,1-1.874-1.874A1.874,1.874,0,0,1,168.949,357.634Z" transform="translate(-125.124 -237.214)" fill="#00a0df"/>
      <path id="Path_883" data-name="Path 883" d="M168.949,357.634a1.874,1.874,0,1,1-1.874-1.874A1.874,1.874,0,0,1,168.949,357.634Z" transform="translate(-125.124 -237.214)" fill="#fff" opacity="0.4"/>
      <path id="Path_884" data-name="Path 884" d="M160.439,357.634a1.874,1.874,0,1,1-1.874-1.874A1.874,1.874,0,0,1,160.439,357.634Z" transform="translate(-121.931 -237.214)" fill="#00a0df"/>
      <path id="Path_885" data-name="Path 885" d="M151.919,357.634a1.874,1.874,0,1,1-1.874-1.874A1.874,1.874,0,0,1,151.919,357.634Z" transform="translate(-118.735 -237.214)" fill="#00a0df"/>
      <path id="Path_886" data-name="Path 886" d="M143.4,357.634a1.874,1.874,0,1,1-1.874-1.874A1.874,1.874,0,0,1,143.4,357.634Z" transform="translate(-115.538 -237.214)" fill="#00a0df"/>
      <circle id="Ellipse_60" data-name="Ellipse 60" cx="1.862" cy="1.862" r="1.862" transform="translate(40.101 136.779)" fill="#00a0df"/>
      <circle id="Ellipse_61" data-name="Ellipse 61" cx="1.862" cy="1.862" r="1.862" transform="translate(34.777 136.779)" fill="#00a0df"/>
      <circle id="Ellipse_62" data-name="Ellipse 62" cx="1.862" cy="1.862" r="1.862" transform="translate(29.46 136.779)" fill="#00a0df"/>
      <circle id="Ellipse_63" data-name="Ellipse 63" cx="1.862" cy="1.862" r="1.862" transform="translate(29.46 136.779)" fill="#fff" opacity="0.4"/>
      <path id="Path_887" data-name="Path 887" d="M143.4,386.794a1.874,1.874,0,1,1-1.874-1.874A1.874,1.874,0,0,1,143.4,386.794Z" transform="translate(-115.538 -248.154)" fill="#00a0df"/>
      <path id="Path_888" data-name="Path 888" d="M128.893,181.366a4.036,4.036,0,1,1-4.03-4.036A4.036,4.036,0,0,1,128.893,181.366Z" transform="translate(-108.474 -170.27)" fill="#00a0df"/>
      <path id="Path_889" data-name="Path 889" d="M128.893,181.366a4.036,4.036,0,1,1-4.03-4.036A4.036,4.036,0,0,1,128.893,181.366Z" transform="translate(-108.474 -170.27)" fill="#fff" opacity="0.4"/>
      <path id="Path_890" data-name="Path 890" d="M128.893,210.576a4.036,4.036,0,1,1-4.03-4.036,4.036,4.036,0,0,1,4.03,4.036Z" transform="translate(-108.474 -181.229)" fill="#00a0df"/>
      <path id="Path_891" data-name="Path 891" d="M128.893,210.576a4.036,4.036,0,1,1-4.03-4.036,4.036,4.036,0,0,1,4.03,4.036Z" transform="translate(-108.474 -181.229)" fill="#fff" opacity="0.4"/>
      <path id="Path_892" data-name="Path 892" d="M114.293,239.686a4.036,4.036,0,1,1-4.03-4.036A4.036,4.036,0,0,1,114.293,239.686Z" transform="translate(-102.996 -192.15)" fill="#00a0df"/>
      <path id="Path_893" data-name="Path 893" d="M114.293,239.686a4.036,4.036,0,1,1-4.03-4.036A4.036,4.036,0,0,1,114.293,239.686Z" transform="translate(-102.996 -192.15)" fill="#fff" opacity="0.4"/>
      <path id="Path_894" data-name="Path 894" d="M128.893,268.846a4.036,4.036,0,1,1-4.03-4.036A4.036,4.036,0,0,1,128.893,268.846Z" transform="translate(-108.474 -203.091)" fill="#00a0df"/>
      <path id="Path_895" data-name="Path 895" d="M128.893,268.846a4.036,4.036,0,1,1-4.03-4.036A4.036,4.036,0,0,1,128.893,268.846Z" transform="translate(-108.474 -203.091)" fill="#fff" opacity="0.4"/>
      <path id="Path_896" data-name="Path 896" d="M128.893,298.01a4.036,4.036,0,1,1-4.03-4.03,4.036,4.036,0,0,1,4.03,4.03Z" transform="translate(-108.474 -214.035)" fill="#00a0df"/>
      <path id="Path_897" data-name="Path 897" d="M128.893,298.01a4.036,4.036,0,1,1-4.03-4.03,4.036,4.036,0,0,1,4.03,4.03Z" transform="translate(-108.474 -214.035)" fill="#fff" opacity="0.4"/>
      <path id="Path_898" data-name="Path 898" d="M128.893,327.17a4.036,4.036,0,1,1-4.03-4.03,4.036,4.036,0,0,1,4.03,4.03Z" transform="translate(-108.474 -224.975)" fill="#00a0df"/>
      <path id="Path_899" data-name="Path 899" d="M128.893,327.17a4.036,4.036,0,1,1-4.03-4.03,4.036,4.036,0,0,1,4.03,4.03Z" transform="translate(-108.474 -224.975)" fill="#fff" opacity="0.4"/>
      <path id="Path_900" data-name="Path 900" d="M128.893,356.336a4.03,4.03,0,1,1-1.178-2.854A4.036,4.036,0,0,1,128.893,356.336Z" transform="translate(-108.474 -235.915)" fill="#00a0df"/>
      <path id="Path_901" data-name="Path 901" d="M128.893,356.336a4.03,4.03,0,1,1-1.178-2.854A4.036,4.036,0,0,1,128.893,356.336Z" transform="translate(-108.474 -235.915)" fill="#fff" opacity="0.4"/>
      <path id="Path_902" data-name="Path 902" d="M128.893,385.5a4.03,4.03,0,1,1-1.178-2.854A4.036,4.036,0,0,1,128.893,385.5Z" transform="translate(-108.474 -246.856)" fill="#00a0df"/>
      <path id="Path_903" data-name="Path 903" d="M128.893,385.5a4.03,4.03,0,1,1-1.178-2.854A4.036,4.036,0,0,1,128.893,385.5Z" transform="translate(-108.474 -246.856)" fill="#fff" opacity="0.4"/>
    </g>
    <g id="freepik--Cloud--inject-2" transform="translate(93.808 93.645)">
      <path id="Path_904" data-name="Path 904" d="M197.768,134.738a10.391,10.391,0,0,0-5.117-7.217h0v-.244a10.428,10.428,0,0,0-10.428-10.428h-4v.794a10.459,10.459,0,0,0-5.767,6,6.4,6.4,0,0,0-1.037-.094,6.248,6.248,0,0,0-5.792,3.93,7.029,7.029,0,0,0-4.3.319,7.585,7.585,0,0,0-4.83,6.779,7.46,7.46,0,0,0,7.46,7.623h28.248a5.667,5.667,0,0,0,5.723-5.542v-.062a10.036,10.036,0,0,0-.162-1.856Z" transform="translate(-152.523 -116.85)" fill="#00a0df"/>
      <path id="Path_905" data-name="Path 905" d="M191.389,134.74a10.391,10.391,0,0,0-5.1-7.217h0v-.244a10.428,10.428,0,0,0-20.2-3.636,6.173,6.173,0,0,0-6.823,3.836,7.029,7.029,0,0,0-4.3.319,7.585,7.585,0,0,0-4.83,6.779,7.454,7.454,0,0,0,7.454,7.623h28.254a5.673,5.673,0,0,0,5.723-5.542V136.6a10.034,10.034,0,0,0-.181-1.856Z" transform="translate(-150.137 -116.852)" fill="#00a0df"/>
      <path id="Path_906" data-name="Path 906" d="M191.389,134.74a10.391,10.391,0,0,0-5.1-7.217h0v-.244a10.428,10.428,0,0,0-20.2-3.636,6.173,6.173,0,0,0-6.823,3.836,7.029,7.029,0,0,0-4.3.319,7.585,7.585,0,0,0-4.83,6.779,7.454,7.454,0,0,0,7.454,7.623h28.254a5.673,5.673,0,0,0,5.723-5.542V136.6a10.034,10.034,0,0,0-.181-1.856Z" transform="translate(-150.137 -116.852)" fill="#fff" opacity="0.3"/>
    </g>
    <g id="freepik--Line--inject-2" transform="translate(119.759 73.351)">
      <rect id="Rectangle_850" data-name="Rectangle 850" width="0.525" height="1.568" transform="translate(0 13.715)" fill="#00a0df"/>
      <rect id="Rectangle_851" data-name="Rectangle 851" width="0.525" height="1.568" transform="translate(0 13.715)" opacity="0.2"/>
      <path id="Path_907" data-name="Path 907" d="M292.709,133.712h-.525v-3.124h.525Zm0-6.248h-.525V124.34h.525Zm0-6.248h-.525v-3.124h.525Zm0-6.248h-.525v-3.124h.525Zm0-6.248h-.525V105.6h.525Zm0-6.248h-.525V99.347h.525Zm0-6.248h-.525V93.1h.525Zm-100.514-1.3h-.525V92.818a8.857,8.857,0,0,1,.056-1l.519.062a9.32,9.32,0,0,0-.05.937Zm99.533-4.8a7.892,7.892,0,0,0-1.518-2.587l.387-.275a8.392,8.392,0,0,1,1.625,2.762Zm-98.571-1.106-.456-.25a8.523,8.523,0,0,1,2.037-2.5l.337.406A7.855,7.855,0,0,0,193.157,89.019Zm94.672-3.274a7.742,7.742,0,0,0-2.855-.819l.044-.525a8.391,8.391,0,0,1,3.08.875Zm-90.124-.481-.156-.494a8.454,8.454,0,0,1,2.568-.4h.594v.525h-.594A8.035,8.035,0,0,0,197.706,85.263Zm84.144-.369h-3.124V84.37h3.124Zm-6.248,0h-3.124V84.37H275.6Zm-6.248,0h-3.124V84.37h3.124Zm-6.248,0h-3.124V84.37h3.124Zm-6.248,0h-3.124V84.37h3.124Zm-6.248,0h-3.124V84.37h3.124Zm-6.248,0h-3.124V84.37h3.124Zm-6.248,0h-3.124V84.37h3.124Zm-6.248,0H228.74V84.37h3.124Zm-6.248,0h-3.124V84.37h3.124Zm-6.248,0h-3.124V84.37h3.124Zm-6.248,0H210V84.37h3.124Zm-6.248,0h-3.124V84.37h3.124Z" transform="translate(-191.67 -84.37)" fill="#00a0df"/>
      <path id="Path_908" data-name="Path 908" d="M292.709,133.712h-.525v-3.124h.525Zm0-6.248h-.525V124.34h.525Zm0-6.248h-.525v-3.124h.525Zm0-6.248h-.525v-3.124h.525Zm0-6.248h-.525V105.6h.525Zm0-6.248h-.525V99.347h.525Zm0-6.248h-.525V93.1h.525Zm-100.514-1.3h-.525V92.818a8.857,8.857,0,0,1,.056-1l.519.062a9.32,9.32,0,0,0-.05.937Zm99.533-4.8a7.892,7.892,0,0,0-1.518-2.587l.387-.275a8.392,8.392,0,0,1,1.625,2.762Zm-98.571-1.106-.456-.25a8.523,8.523,0,0,1,2.037-2.5l.337.406A7.855,7.855,0,0,0,193.157,89.019Zm94.672-3.274a7.742,7.742,0,0,0-2.855-.819l.044-.525a8.391,8.391,0,0,1,3.08.875Zm-90.124-.481-.156-.494a8.454,8.454,0,0,1,2.568-.4h.594v.525h-.594A8.035,8.035,0,0,0,197.706,85.263Zm84.144-.369h-3.124V84.37h3.124Zm-6.248,0h-3.124V84.37H275.6Zm-6.248,0h-3.124V84.37h3.124Zm-6.248,0h-3.124V84.37h3.124Zm-6.248,0h-3.124V84.37h3.124Zm-6.248,0h-3.124V84.37h3.124Zm-6.248,0h-3.124V84.37h3.124Zm-6.248,0h-3.124V84.37h3.124Zm-6.248,0H228.74V84.37h3.124Zm-6.248,0h-3.124V84.37h3.124Zm-6.248,0h-3.124V84.37h3.124Zm-6.248,0H210V84.37h3.124Zm-6.248,0h-3.124V84.37h3.124Z" transform="translate(-191.67 -84.37)" opacity="0.2"/>
      <rect id="Rectangle_852" data-name="Rectangle 852" width="0.525" height="1.568" transform="translate(100.514 52.478)" fill="#00a0df"/>
      <rect id="Rectangle_853" data-name="Rectangle 853" width="0.525" height="1.568" transform="translate(100.514 52.478)" opacity="0.2"/>
    </g>
    <g id="freepik--Character--inject-2" transform="translate(170.294 86.135)">
      <path id="Path_909" data-name="Path 909" d="M286.2,403.258h4.592l.494-10.628h-4.592Z" transform="translate(-277.671 -212.808)" fill="#e4897b"/>
      <path id="Path_910" data-name="Path 910" d="M290.117,408.79h-5a.387.387,0,0,0-.381.319l-.744,4.08a.694.694,0,0,0,.687.812c1.806-.031,4.417-.137,6.692-.137,2.656,0,3.03.15,6.142.15,1.874,0,2.343-1.874,1.55-2.081-3.624-.787-4.63-.869-7.8-2.78A2.143,2.143,0,0,0,290.117,408.79Z" transform="translate(-276.84 -218.871)" fill="#263238"/>
      <path id="Path_911" data-name="Path 911" d="M291.422,392.64l-.25,5.473H286.58l.256-5.473Z" transform="translate(-277.814 -212.812)" fill="#ce6f64"/>
      <path id="Path_912" data-name="Path 912" d="M330.8,164.681c-.087,1.443-.187,3.024-.231,4.536s-.075,3.049-.056,4.555.075,3.005.206,4.442a23.157,23.157,0,0,0,.656,4.018,7.122,7.122,0,0,0,.544,1.45,2.931,2.931,0,0,0,.237.4l.281.456a9.45,9.45,0,0,0,.625.912c.819,1.218,1.725,2.431,2.662,3.649,1.874,2.406,3.918,4.836,5.923,7.217l-2.393,2.793a57.227,57.227,0,0,1-7.791-6.079,46.242,46.242,0,0,1-3.524-3.63c-.281-.331-.569-.625-.831-1l-.406-.525a5.307,5.307,0,0,1-.431-.625,13.245,13.245,0,0,1-1.425-2.887,27.757,27.757,0,0,1-1.25-5.33c-.256-1.718-.369-3.411-.456-5.086a49.408,49.408,0,0,1,0-5c.081-1.656.131-3.274.319-5Z" transform="translate(-291.508 -127.011)" fill="#e4897b"/>
      <path id="Path_913" data-name="Path 913" d="M330.366,170.015l-1.949.781-3.28,1.306-5.823,2.331s-2.655-13.815-1.25-18.013c1.575-4.611,7.135-4.5,10.141.75C331.178,162.293,330.366,170.015,330.366,170.015Z" transform="translate(-289.472 -122.935)" fill="#00a0df"/>
      <path id="Path_914" data-name="Path 914" d="M330.366,170.015l-1.949.781-3.28,1.306-5.823,2.331s-2.655-13.815-1.25-18.013c1.575-4.611,7.135-4.5,10.141.75C331.178,162.293,330.366,170.015,330.366,170.015Z" transform="translate(-289.472 -122.935)" fill="#fff" opacity="0.6"/>
      <path id="Path_915" data-name="Path 915" d="M332.372,177.213l-2.993,1.193c-.5-2.168-.962-5.8.519-8.516C331.923,171.583,332.235,175,332.372,177.213Z" transform="translate(-293.69 -129.239)" fill="#00a0df"/>
      <path id="Path_916" data-name="Path 916" d="M332.372,177.213l-2.993,1.193c-.5-2.168-.962-5.8.519-8.516C331.923,171.583,332.235,175,332.372,177.213Z" transform="translate(-293.69 -129.239)" fill="#fff" opacity="0.4"/>
      <path id="Path_917" data-name="Path 917" d="M312.922,189.3H287.8c-.181-2.256.387-8.366,0-16.689-.087-1.918-.225-3.949-.431-6.079a103.925,103.925,0,0,0-2.387-14.371,63.916,63.916,0,0,1,8.373-1.062,92.285,92.285,0,0,1,10.684,0,46,46,0,0,1,7.285,1.337S317.239,162.887,312.922,189.3Z" transform="translate(-277.214 -122.131)" fill="#00a0df"/>
      <path id="Path_918" data-name="Path 918" d="M312.922,189.3H287.8c-.181-2.256.387-8.366,0-16.689-.087-1.918-.225-3.949-.431-6.079a103.925,103.925,0,0,0-2.387-14.371,63.916,63.916,0,0,1,8.373-1.062,92.285,92.285,0,0,1,10.684,0,46,46,0,0,1,7.285,1.337S317.239,162.887,312.922,189.3Z" transform="translate(-277.214 -122.131)" fill="#fff" opacity="0.6"/>
      <path id="Path_919" data-name="Path 919" d="M289.251,181.814c-.087-1.918-.225-3.949-.431-6.079.812-.506,1.874-.537,2.093,2.437C291.113,180.92,290.182,181.683,289.251,181.814Z" transform="translate(-278.654 -131.335)" fill="#00a0df"/>
      <path id="Path_920" data-name="Path 920" d="M289.251,181.814c-.087-1.918-.225-3.949-.431-6.079.812-.506,1.874-.537,2.093,2.437C291.113,180.92,290.182,181.683,289.251,181.814Z" transform="translate(-278.654 -131.335)" fill="#fff" opacity="0.4"/>
      <path id="Path_921" data-name="Path 921" d="M359.308,219.238l-3.624,2.256-4.474-.956,3.561-4.417Z" transform="translate(-302.062 -146.584)" fill="#e4897b"/>
      <path id="Path_922" data-name="Path 922" d="M348.878,215l4.186.675-3.561,4.417s-2.237-.225-2.843-3.249Z" transform="translate(-300.355 -146.164)" fill="#e4897b"/>
      <path id="Path_923" data-name="Path 923" d="M299.035,131.94c.794,3.436,1.693,9.735-.625,12.028,0,0,1.168,2.306,7.554,2.306,5.829,0,3.124-2.306,3.124-2.306-3.868-.918-3.868-3.749-3.3-6.429Z" transform="translate(-282.252 -115.001)" fill="#e4897b"/>
      <path id="Path_924" data-name="Path 924" d="M303.767,135.6l4,3.312a10.455,10.455,0,0,0-.262,1.874c-1.218,1.187-3.543-1.818-3.749-3.349A5.2,5.2,0,0,1,303.767,135.6Z" transform="translate(-284.229 -116.374)" fill="#ce6f64"/>
      <path id="Path_925" data-name="Path 925" d="M318.326,117.548c1.6,1.987-.269,8.248-3.58,8.123S315.29,113.749,318.326,117.548Z" transform="translate(-287.904 -109.319)" fill="#263238"/>
      <path id="Path_926" data-name="Path 926" d="M300.312,119.35c-.362,4.636-.806,7.317,1.193,10.078a6.142,6.142,0,0,0,10.734-1.337c1.568-3.943,1.874-10.853-2.368-13.465a6.173,6.173,0,0,0-9.56,4.724Z" transform="translate(-282.849 -108.122)" fill="#e4897b"/>
      <path id="Path_927" data-name="Path 927" d="M296.452,113.47l5,1.774c-2.193,2.93.993,9.841-2.88,8.547C296.8,123.2,291.01,116.807,296.452,113.47Z" transform="translate(-280.663 -108.072)" fill="#263238"/>
      <path id="Path_928" data-name="Path 928" d="M299.462,111.428c1.874,1.387,9.566,3.037,13.958.587a13.671,13.671,0,0,1-2.618-.987s3.287-.156,4.742-2.587a10.516,10.516,0,0,1-6.036-.762,5.436,5.436,0,0,0,3.355-2.849c-6.067.075-19.132,1.306-16.87,5.573S299.462,111.428,299.462,111.428Z" transform="translate(-281.248 -104.83)" fill="#263238"/>
      <path id="Path_929" data-name="Path 929" d="M295.944,113.428a8.61,8.61,0,0,1-2.468-1.768C293.189,112.379,293.189,114.322,295.944,113.428Z" transform="translate(-280.355 -107.393)" fill="#263238"/>
      <path id="Path_930" data-name="Path 930" d="M295.884,128.585a4.667,4.667,0,0,0,2.5,2.406c1.456.594,2.312-.625,2.012-2.1-.269-1.306-1.35-3.187-2.862-3.162A1.939,1.939,0,0,0,295.884,128.585Z" transform="translate(-281.232 -112.671)" fill="#e4897b"/>
      <path id="Path_931" data-name="Path 931" d="M308.75,403.258h4.586l.95-10.628H309.7Z" transform="translate(-286.132 -212.808)" fill="#e4897b"/>
      <path id="Path_932" data-name="Path 932" d="M312.736,408.79h-5a.381.381,0,0,0-.381.319l-.762,4.08a.694.694,0,0,0,.687.812c1.812-.031,4.417-.137,6.692-.137,2.655,0,4.961.15,8.073.15,1.874,0,2.343-1.874,1.543-2.081-3.618-.787-6.554-.868-9.722-2.78a2.162,2.162,0,0,0-1.131-.362Z" transform="translate(-285.319 -218.871)" fill="#263238"/>
      <path id="Path_933" data-name="Path 933" d="M314.56,392.64l-.487,5.473H309.48l.487-5.473Z" transform="translate(-286.406 -212.812)" fill="#ce6f64"/>
      <path id="Path_934" data-name="Path 934" d="M318.735,409.273a1.393,1.393,0,0,0,.925-.094.625.625,0,0,0,.3-.55.362.362,0,0,0-.15-.337c-.481-.344-2.1.337-2.287.419a.112.112,0,0,0-.062.1.131.131,0,0,0,.075.106,5.948,5.948,0,0,0,1.2.356Zm.812-.85a.3.3,0,0,1,.138.05c.031,0,.056.05.056.137a.437.437,0,0,1-.2.375,2.281,2.281,0,0,1-1.668-.175A4.405,4.405,0,0,1,319.547,408.423Z" transform="translate(-289.4 -218.648)" fill="#00a0df"/>
      <path id="Path_935" data-name="Path 935" d="M317.563,408.186h.056c.512-.187,1.568-1.056,1.537-1.587a.381.381,0,0,0-.319-.344.587.587,0,0,0-.487.069c-.625.356-.875,1.674-.881,1.731a.125.125,0,0,0,.094.137Zm1.168-1.737h.05c.144.044.15.106.15.137,0,.312-.669.987-1.193,1.25a2.618,2.618,0,0,1,.731-1.368.406.406,0,0,1,.262-.019Z" transform="translate(-289.403 -217.91)" fill="#00a0df"/>
      <path id="Path_936" data-name="Path 936" d="M305.419,329.152h7.5s11.5-43.937,11.284-58.839c-.219-14.333-4.374-57.983-4.374-57.983H303.27s1.281,9.71,2.743,21.687c1.306,10.572,2.743,22.925,3.568,31.922.237,2.674.431,5.048.544,7C310.98,287.57,305.419,329.152,305.419,329.152Z" transform="translate(-284.076 -145.162)" fill="#00a0df"/>
      <path id="Path_937" data-name="Path 937" d="M305.419,329.152h7.5s11.5-43.937,11.284-58.839c-.219-14.333-4.374-57.983-4.374-57.983H303.27s1.281,9.71,2.743,21.687c1.306,10.572,2.743,22.925,3.568,31.922.237,2.674.431,5.048.544,7C310.98,287.57,305.419,329.152,305.419,329.152Z" transform="translate(-284.076 -145.162)" opacity="0.3"/>
      <path id="Path_938" data-name="Path 938" d="M307.66,240.809c1.306,10.572,2.743,22.924,3.568,31.922,1.743-7.854,6-30.685-.387-42.231C309.241,232.806,308.266,236.748,307.66,240.809Z" transform="translate(-285.723 -151.979)" fill="#00a0df"/>
      <path id="Path_939" data-name="Path 939" d="M307.66,240.809c1.306,10.572,2.743,22.924,3.568,31.922,1.743-7.854,6-30.685-.387-42.231C309.241,232.806,308.266,236.748,307.66,240.809Z" transform="translate(-285.723 -151.979)" opacity="0.4"/>
      <path id="Path_940" data-name="Path 940" d="M303.644,212.33s-.625,42.094-3.068,55.54c-2.674,14.727-8,61.282-8,61.282H284s1.25-45.368,2.562-59.945c1.412-15.827.893-56.858.893-56.858Z" transform="translate(-276.846 -145.162)" fill="#00a0df"/>
      <path id="Path_941" data-name="Path 941" d="M303.644,212.33s-.625,42.094-3.068,55.54c-2.674,14.727-8,61.282-8,61.282H284s1.25-45.368,2.562-59.945c1.412-15.827.893-56.858.893-56.858Z" transform="translate(-276.846 -145.162)" opacity="0.3"/>
      <path id="Path_942" data-name="Path 942" d="M283.249,397.326h9.266l.681-3.5-10.266-.287Z" transform="translate(-276.444 -213.149)" fill="#263238"/>
      <path id="Path_943" data-name="Path 943" d="M305.861,397.5h9.266l.687-3.5-10.235.181Z" transform="translate(-284.942 -213.322)" fill="#263238"/>
      <path id="Path_944" data-name="Path 944" d="M289.178,327.13h0a.075.075,0,0,1-.069-.087c.056-.437.7-41.15,1.874-54.247,1.25-14.215.475-51.929.5-52.247a.081.081,0,0,1,.087-.069.087.087,0,0,1,.075.088c0,.319.769,38.033-.506,52.247-1.168,13.121-1.812,53.815-1.874,54.253A.081.081,0,0,1,289.178,327.13Z" transform="translate(-278.762 -148.22)" fill="#00a0df"/>
      <path id="Path_945" data-name="Path 945" d="M289.178,327.13h0a.075.075,0,0,1-.069-.087c.056-.437.7-41.15,1.874-54.247,1.25-14.215.475-51.929.5-52.247a.081.081,0,0,1,.087-.069.087.087,0,0,1,.075.088c0,.319.769,38.033-.506,52.247-1.168,13.121-1.812,53.815-1.874,54.253A.081.081,0,0,1,289.178,327.13Z" transform="translate(-278.762 -148.22)" fill="#fff" opacity="0.3"/>
      <path id="Path_946" data-name="Path 946" d="M311.4,126.5c-.056.369.1.706.35.75s.487-.225.537-.625-.106-.712-.35-.756S311.453,126.124,311.4,126.5Z" transform="translate(-287.123 -112.721)" fill="#263238"/>
      <path id="Path_947" data-name="Path 947" d="M318.334,127.329c-.05.375.106.706.35.75s.487-.225.537-.625-.106-.712-.35-.756S318.384,126.954,318.334,127.329Z" transform="translate(-289.724 -113.033)" fill="#263238"/>
      <path id="Path_948" data-name="Path 948" d="M315.7,127.92a14.157,14.157,0,0,0,1.35,3.505,2.193,2.193,0,0,1-1.843,0Z" transform="translate(-288.555 -113.493)" fill="#de5753"/>
      <path id="Path_949" data-name="Path 949" d="M312.493,134.937a.106.106,0,0,0,.125-.094.119.119,0,0,0-.1-.125,3.124,3.124,0,0,1-2.324-1.487.11.11,0,1,0-.2.094A3.324,3.324,0,0,0,312.493,134.937Z" transform="translate(-286.594 -115.462)" fill="#263238"/>
      <path id="Path_950" data-name="Path 950" d="M309.476,122.028a.219.219,0,0,0,.194-.037,1.731,1.731,0,0,1,1.556-.344.219.219,0,0,0,.281-.137.237.237,0,0,0-.15-.287,2.174,2.174,0,0,0-1.968.419.212.212,0,0,0-.031.312A.244.244,0,0,0,309.476,122.028Z" transform="translate(-286.339 -110.95)" fill="#263238"/>
      <path id="Path_951" data-name="Path 951" d="M290.79,151.466l1.181-.106a.256.256,0,0,1,.256.187c3.936,17.726,2.755,36.545,2.755,36.545h-1.306a170.445,170.445,0,0,0-3.087-36.333.212.212,0,0,1,.2-.294Z" transform="translate(-279.312 -122.287)" fill="#00a0df"/>
      <path id="Path_952" data-name="Path 952" d="M290.79,151.466l1.181-.106a.256.256,0,0,1,.256.187c3.936,17.726,2.755,36.545,2.755,36.545h-1.306a170.445,170.445,0,0,0-3.087-36.333.212.212,0,0,1,.2-.294Z" transform="translate(-279.312 -122.287)" fill="#fff" opacity="0.1"/>
      <path id="Path_953" data-name="Path 953" d="M295.667,210.314h.906a.406.406,0,0,0,.412-.419h0a.45.45,0,0,0-.444-.425h-.9a.412.412,0,0,0-.412.425h0a.444.444,0,0,0,.437.419Z" transform="translate(-281.059 -144.089)" fill="#263238"/>
      <path id="Path_954" data-name="Path 954" d="M296.919,211.547l-.044-1.187a.575.575,0,0,0-.575-.55h0a.525.525,0,0,0-.531.55l.044,1.187a.575.575,0,0,0,.569.55h0a.537.537,0,0,0,.537-.55Z" transform="translate(-281.261 -144.217)" fill="#263238"/>
      <path id="Path_955" data-name="Path 955" d="M320.61,123.027a.181.181,0,0,0,.1,0,.212.212,0,0,0,.144-.275,2.293,2.293,0,0,0-1.4-1.518.212.212,0,0,0-.269.15.231.231,0,0,0,.156.281h0a1.831,1.831,0,0,1,1.093,1.212A.212.212,0,0,0,320.61,123.027Z" transform="translate(-290.044 -110.981)" fill="#263238"/>
      <path id="Path_956" data-name="Path 956" d="M283.491,163.586c-.719,2.943-1.443,6-2.081,8.985-.312,1.493-.625,2.98-.843,4.442a26.648,26.648,0,0,0-.394,4.093,11.871,11.871,0,0,0,2.543,6.96,19.877,19.877,0,0,0,2.862,3.055c.537.481,1.1.943,1.687,1.375.294.212.594.425.893.625s.625.419.869.569l-1.362,3.418c-.5-.15-.875-.281-1.3-.437s-.8-.325-1.2-.5c-.787-.356-1.562-.75-2.324-1.187a22.008,22.008,0,0,1-4.249-3.243,17.807,17.807,0,0,1-3.349-4.524,16.321,16.321,0,0,1-1.687-5.623,29.993,29.993,0,0,1,0-5.411c.144-1.687.35-3.337.625-4.967a87.2,87.2,0,0,1,2.124-9.585Z" transform="translate(-272.882 -126.14)" fill="#e4897b"/>
      <path id="Path_957" data-name="Path 957" d="M280.329,152.817c-4.967.887-7.779,14.165-7.779,14.165l12.284,4.374a30.092,30.092,0,0,0,0-10.1C283.947,155.616,285.046,151.974,280.329,152.817Z" transform="translate(-272.55 -122.789)" fill="#00a0df"/>
      <path id="Path_958" data-name="Path 958" d="M280.329,152.817c-4.967.887-7.779,14.165-7.779,14.165l12.284,4.374a30.092,30.092,0,0,0,0-10.1C283.947,155.616,285.046,151.974,280.329,152.817Z" transform="translate(-272.55 -122.789)" fill="#fff" opacity="0.6"/>
      <path id="Path_959" data-name="Path 959" d="M322.6,151.907l1.181.219a.237.237,0,0,1,.194.2c3.124,17.732,1.056,35.971,1.056,35.971h-1.312a167.7,167.7,0,0,0-1.381-36.133.219.219,0,0,1,.262-.256Z" transform="translate(-291.228 -122.49)" fill="#00a0df"/>
      <path id="Path_960" data-name="Path 960" d="M322.6,151.907l1.181.219a.237.237,0,0,1,.194.2c3.124,17.732,1.056,35.971,1.056,35.971h-1.312a167.7,167.7,0,0,0-1.381-36.133.219.219,0,0,1,.262-.256Z" transform="translate(-291.228 -122.49)" fill="#fff" opacity="0.1"/>
      <path id="Path_961" data-name="Path 961" d="M324.669,210.313h.906a.425.425,0,0,0,.425-.419h0a.425.425,0,0,0-.419-.425h-.906a.431.431,0,0,0-.425.425h0a.412.412,0,0,0,.419.419Z" transform="translate(-291.947 -144.089)" fill="#263238"/>
      <path id="Path_962" data-name="Path 962" d="M325.846,211.547V210.36a.544.544,0,0,0-.55-.55h0a.556.556,0,0,0-.556.55v1.187a.544.544,0,0,0,.544.55h0A.569.569,0,0,0,325.846,211.547Z" transform="translate(-292.131 -144.217)" fill="#263238"/>
      <path id="Path_963" data-name="Path 963" d="M296.108,409.273a1.412,1.412,0,0,0,.931-.094.625.625,0,0,0,.3-.55.362.362,0,0,0-.15-.337c-.481-.344-2.106.337-2.287.419a.1.1,0,0,0-.062.1.125.125,0,0,0,.069.106A6.074,6.074,0,0,0,296.108,409.273Zm.812-.85a.325.325,0,0,1,.144.05.137.137,0,0,1,.05.137.425.425,0,0,1-.2.375,2.261,2.261,0,0,1-1.662-.175A4.374,4.374,0,0,1,296.92,408.423Z" transform="translate(-280.913 -218.648)" fill="#00a0df"/>
      <path id="Path_964" data-name="Path 964" d="M294.943,408.186H295c.519-.187,1.575-1.056,1.537-1.587a.381.381,0,0,0-.319-.344.587.587,0,0,0-.487.069c-.594.356-.868,1.674-.881,1.731a.112.112,0,0,0,.038.106A.126.126,0,0,0,294.943,408.186Zm1.175-1.737h.05c.137.044.144.106.144.137,0,.312-.662.987-1.187,1.25a2.568,2.568,0,0,1,.725-1.368.412.412,0,0,1,.262-.019Z" transform="translate(-280.915 -217.91)" fill="#00a0df"/>
      <path id="Path_965" data-name="Path 965" d="M292.45,215.432l1.437-2.612,3.943.137,3.068,1.25,2.087,3.074-5.361-.325S294.337,217.887,292.45,215.432Z" transform="translate(-280.016 -145.346)" fill="#e4897b"/>
      <path id="Path_966" data-name="Path 966" d="M308.174,154.472l-.943-.662-1.881,1.874Z" transform="translate(-284.856 -123.206)" fill="#00a0df"/>
      <path id="Path_967" data-name="Path 967" d="M308.174,154.472l-.943-.662-1.881,1.874Z" transform="translate(-284.856 -123.206)" fill="#fff" opacity="0.4"/>
      <path id="Path_968" data-name="Path 968" d="M303.535,152.2a12.641,12.641,0,0,0-1.787,3.886c-1.956-.8-5.667-2.8-6.248-5.623a8,8,0,0,0,1.962-.937A16.42,16.42,0,0,0,303.535,152.2Z" transform="translate(-281.16 -121.601)" fill="#00a0df"/>
      <path id="Path_969" data-name="Path 969" d="M303.535,152.2a12.641,12.641,0,0,0-1.787,3.886c-1.956-.8-5.667-2.8-6.248-5.623a8,8,0,0,0,1.962-.937A16.42,16.42,0,0,0,303.535,152.2Z" transform="translate(-281.16 -121.601)" fill="#fff" opacity="0.2"/>
      <path id="Path_970" data-name="Path 970" d="M309.87,154.409l.35-.769,2.593,1.981Z" transform="translate(-286.552 -123.143)" fill="#00a0df"/>
      <path id="Path_971" data-name="Path 971" d="M309.87,154.409l.35-.769,2.593,1.981Z" transform="translate(-286.552 -123.143)" fill="#fff" opacity="0.4"/>
      <path id="Path_972" data-name="Path 972" d="M310.43,152.263a6.586,6.586,0,0,1,1.987,3.6c1.874-.8,2.555-3.411,1.993-5.142a11.433,11.433,0,0,0-2.312-.75A2.131,2.131,0,0,1,310.43,152.263Z" transform="translate(-286.762 -121.766)" fill="#00a0df"/>
      <path id="Path_973" data-name="Path 973" d="M310.43,152.263a6.586,6.586,0,0,1,1.987,3.6c1.874-.8,2.555-3.411,1.993-5.142a11.433,11.433,0,0,0-2.312-.75A2.131,2.131,0,0,1,310.43,152.263Z" transform="translate(-286.762 -121.766)" fill="#fff" opacity="0.2"/>
      <path id="Path_974" data-name="Path 974" d="M355.407,182.6l-39.345-1.393-5.692,23,39.345,1.393Z" transform="translate(-286.739 -133.487)" fill="#00a0df"/>
      <path id="Path_975" data-name="Path 975" d="M355.407,182.6l-39.345-1.393-5.692,23,39.345,1.393Z" transform="translate(-286.739 -133.487)" fill="#fff" opacity="0.1"/>
      <path id="Path_976" data-name="Path 976" d="M357.341,182.667,318,181.28l-5.692,23,39.345,1.393Z" transform="translate(-287.467 -133.513)" fill="#263238"/>
      <path id="Path_977" data-name="Path 977" d="M351.557,219.483l-.162,1.275-39.345-1.393.162-1.275Z" transform="translate(-287.37 -147.323)" fill="#263238"/>
      <path id="Path_978" data-name="Path 978" d="M302.942,217.764l-.162,1.275-15.439-.544.156-1.275Z" transform="translate(-278.099 -146.997)" fill="#00a0df"/>
      <path id="Path_979" data-name="Path 979" d="M302.942,217.764l-.162,1.275-15.439-.544.156-1.275Z" transform="translate(-278.099 -146.997)" fill="#fff" opacity="0.1"/>
    </g>
  </g>
</svg>
