<svg xmlns="http://www.w3.org/2000/svg" width="204.891" height="224.196" viewBox="0 0 204.891 224.196">
  <g id="Social_tree-cuate" data-name="Social tree-cuate" transform="translate(-45.75 -20)">
    <g id="freepik--background-complete--inject-8" transform="translate(45.75 35.935)">
      <path id="Path_1032" data-name="Path 1032" d="M398.356,158.553H342.11s5.577-15.233,14.159-15.233,11.27,10.533,11.27,10.533,5.793-5.708,10.533-5.708,8.893,7.524,8.893,7.524S393.716,151.611,398.356,158.553Z" transform="translate(-193.465 -97.401)" fill="#ebebeb"/>
      <path id="Path_1033" data-name="Path 1033" d="M365.362,60.3H339.08s5.873-8.527,10.5-8.527,6.014,5.693,6.014,5.693,3.265-2.648,6.295-2.177S365.362,60.3,365.362,60.3Z" transform="translate(-191.955 -51.77)" fill="#ebebeb"/>
      <path id="Path_1034" data-name="Path 1034" d="M123.667,277.087H97.38s5.873-8.527,10.5-8.527,6.019,5.673,6.019,5.673,3.265-2.648,6.29-2.177S123.667,277.087,123.667,277.087Z" transform="translate(-71.484 -159.825)" fill="#ebebeb"/>
      <path id="Path_1035" data-name="Path 1035" d="M96.95,148.068H45.75s7.022-15.654,14.515-16.632S71.35,143.068,71.35,143.068s4.84-4.459,8.642-4.459,6.741,5.868,6.741,5.868S94.342,140.459,96.95,148.068Z" transform="translate(-45.75 -91.451)" fill="#ebebeb"/>
      <path id="Path_1036" data-name="Path 1036" d="M185.188,76H150.58s5.944-11.34,12.389-11.506,9.831,8.587,9.831,8.587S182.846,65.039,185.188,76Z" transform="translate(-98.001 -58.113)" fill="#ebebeb"/>
      <path id="Path_1037" data-name="Path 1037" d="M349.338,292.2H314.73s5.964-11.355,12.409-11.506,9.831,8.582,9.831,8.582S347,281.235,349.338,292.2Z" transform="translate(-179.818 -165.874)" fill="#ebebeb"/>
    </g>
    <g id="freepik--Shadow--inject-8" transform="translate(83.413 230.303)">
      <ellipse id="Ellipse_66" data-name="Ellipse 66" cx="64.783" cy="6.947" rx="64.783" ry="6.947" fill="#ebebeb"/>
    </g>
    <g id="freepik--Plants--inject-8" transform="translate(49.095 172.908)">
      <path id="Path_1038" data-name="Path 1038" d="M166.369,355.8c-2.508.09-5.312.231-7.393-1.4-1.921-1.5-3.631-3.742-3.381-6.315.075-.732.241-1.189,1-.873,1.2.476,2.122,1.8,2.949,2.724a25.581,25.581,0,0,0,3.486,3.305c.893.687,1.856,1.279,2.769,1.941.115.08.231.165.341.256l.13.1h.07a.135.135,0,0,1,.105.055.161.161,0,0,1,0,.045A.13.13,0,0,1,166.369,355.8Z" transform="translate(-103.834 -335.949)" fill="#37474f"/>
      <path id="Path_1039" data-name="Path 1039" d="M168.219,357.9c-2.207-.04-4.589.06-6.355-1.439a10.206,10.206,0,0,1-2.051-2.508c-.251-.416-1-1.655-.7-2.147.577-.893,3.205,2.744,3.571,3.09a10.759,10.759,0,0,0,4.865,2.553c.115.08.231.166.341.256a12,12,0,0,1-3.661-1.409c-1.565-.933-2.438-2.317-3.666-3.606-.261-.281-1.063-1.219-1.364-.632-.2.386.542,1.595.7,1.856a10.238,10.238,0,0,0,1.936,2.367c1.76,1.54,4.133,1.5,6.36,1.575a.161.161,0,0,1,.025.045Z" transform="translate(-105.563 -338.223)" fill="#fff"/>
      <path id="Path_1040" data-name="Path 1040" d="M176.992,352.265l-.06.291h0a.065.065,0,0,1-.045.05.105.105,0,0,1-.13-.05.065.065,0,0,1,0-.06.156.156,0,0,1,0-.04l.03-.085h0v-.03c-.446-1.66-.617-3.391-1.088-5.051s-1-3.145-1.324-4.765c-.206-1-.913-6.144,1.344-5.517,1,.286,1.685,1.735,2.066,2.6a10.718,10.718,0,0,1,.833,3.682C178.767,346.427,177.624,349.271,176.992,352.265Z" transform="translate(-113.072 -330.888)" fill="#37474f"/>
      <path id="Path_1041" data-name="Path 1041" d="M179.191,349.087a12.474,12.474,0,0,0-.361-3.476c-.1-.391-.592-2.277-1.229-2.232-.416.03-.5.843-.5,1.113a10.821,10.821,0,0,0,.451,3.411,47.692,47.692,0,0,1,.828,6.846c0,.14-.045.291-.06.436s-.03.241-.045.361v.125a.558.558,0,0,0,0,.1.105.105,0,0,0,.13.05,1.894,1.894,0,0,1,.04-.281v.231h0l.045-.241v-.436A50.481,50.481,0,0,0,179.191,349.087Zm-.762,5.176q-.1-2.006-.386-4.013c-.15-1.073-.356-2.137-.582-3.195a11.062,11.062,0,0,1-.286-1.811c0-.471.045-2.2.938-1.129a7.066,7.066,0,0,1,.878,3.391,17.279,17.279,0,0,1-.065,3.18c-.12,1.194-.316,2.382-.5,3.576Z" transform="translate(-114.548 -334.09)" fill="#fff"/>
      <path id="Path_1042" data-name="Path 1042" d="M172.817,373.8h0a.226.226,0,0,1-.09,0c-2.3-.115-5.357.1-7.268-1.419-1.409-1.119-2.794-3.335-2.352-5.221.5-2.117,3.376.426,4.133,1.038a70.61,70.61,0,0,1,5.628,5.492.049.049,0,0,0,.03.04h0C172.918,373.769,172.873,373.789,172.817,373.8Z" transform="translate(-107.548 -345.531)" fill="#37474f"/>
      <path id="Path_1043" data-name="Path 1043" d="M174.6,375.892l-.4-.251c-1.5-.948-2.979-1.966-4.394-3.049-.361-.276-2.944-2.573-3.335-1.755-.231.5.622,1.5.893,1.856a7.068,7.068,0,0,0,1.745,1.555c1.5.958,3.386,1.164,5.121,1.62a2.131,2.131,0,0,1,.241.065l.045.025h0C174.571,375.947,174.617,375.927,174.6,375.892Zm-4.539-1.309a7.1,7.1,0,0,1-2.006-1.339c-.381-.366-1.74-1.74-1.379-2.3.191-.3.351-.14.717.035.166.085.331.181.5.281.386.256.737.552,1.1.833.627.5,1.269,1,1.921,1.47,1.068.777,2.167,1.5,3.285,2.207A33.976,33.976,0,0,1,170.057,374.583Z" transform="translate(-109.247 -347.689)" fill="#fff"/>
      <path id="Path_1044" data-name="Path 1044" d="M186.823,364.354a13.567,13.567,0,0,1-3.937,6.871.075.075,0,0,1-.04.025.1.1,0,0,1-.12-.04.105.105,0,0,1,0-.135l.125-.1c.376-3.12.8-6.224,1.118-9.354.075-.737.652-5.437,2.1-4.67.888.471.948,2.4,1.028,3.26a13.784,13.784,0,0,1-.271,4.138Z" transform="translate(-117.356 -340.816)" fill="#37474f"/>
      <path id="Path_1045" data-name="Path 1045" d="M186.02,363.045c-.08-.261-.216-.532-.5-.346-.562.346-.782,2.558-.878,3.165-.386,2.508-1,4.94-1.59,7.408l-.15.627-.14.186a.1.1,0,0,0,.115.04.211.211,0,0,0,0-.06c.065-.08.13-.165.191-.251h0a16.05,16.05,0,0,0,2.272-4.429,15.155,15.155,0,0,0,.667-3.09A8.538,8.538,0,0,0,186.02,363.045Zm-2.949,10.593c0,.045-.06.085-.085.125a1.192,1.192,0,0,1,.075-.251,44.885,44.885,0,0,0,1.409-5.733c.166-1,.271-1.976.471-2.954.085-.411.291-1.59.632-1.781s.336.266.371.532a4.852,4.852,0,0,1,0,.717,15.8,15.8,0,0,1-2.874,9.344Z" transform="translate(-117.386 -343.69)" fill="#fff"/>
      <path id="Path_1046" data-name="Path 1046" d="M171.172,367.131h-.461v-1.214c-.055-1.63-.12-3.26-.216-4.89-.055-.933-.12-1.856-.221-2.769a.608.608,0,0,1,0-.1.61.61,0,0,0-.03-.226c-.03-.08,0-.161-.03-.241a19.877,19.877,0,0,0-1.575-5.994c-.3-.637-.612-1.254-.948-1.871l-.1-.176-.03-.045c-.03-.06-.065-.12-.1-.181s-.05-.09-.08-.14c-1.058-1.866-2.277-3.651-3.426-5.452-.331-.5-.662-1.033-1-1.55a.592.592,0,0,1-.055-.1.849.849,0,0,1-.075-.11c-1.45-2.287-2.874-4.589-4.379-6.831-.055-.08.08-.156.135-.075,1,1.5,2.066,2.949,3.11,4.424l.416.587c.276.391.552.772.823,1.164.542.777,1.083,1.555,1.605,2.347a66.009,66.009,0,0,1,4.213,6.841c.09.176.176.356.261.542.055.11.11.226.155.336s.12.261.181.4a21.116,21.116,0,0,1,1.545,7.233,2.724,2.724,0,0,0,.03.5v.241a1.055,1.055,0,0,0,0,.125v.171h0v.572c.065,1.63.11,3.26.145,4.885C171.132,366.087,171.152,366.609,171.172,367.131Z" transform="translate(-105.261 -329.985)" fill="#37474f"/>
      <path id="Path_1047" data-name="Path 1047" d="M154.66,332.454c-1.254-1.69-2.869-5.176-1-6.992a1.971,1.971,0,0,1,2.623-.191,5.585,5.585,0,0,1,1.735,3.15c.853,2.959,1.414,5.974,2.473,8.873a2.846,2.846,0,0,1,.115.311c0,.06-.075.085-.1.025l-.105-.281C158.392,335.894,156.15,334.46,154.66,332.454Z" transform="translate(-102.457 -324.86)" fill="#37474f"/>
      <path id="Path_1048" data-name="Path 1048" d="M162.565,339.847a.057.057,0,0,0-.035-.05,21.3,21.3,0,0,1-1.174-2.187,42.455,42.455,0,0,1-1.806-4.845c-.2-.632-1.1-3.737-2.217-2.508a2.773,2.773,0,0,0-.326,2.087,7.794,7.794,0,0,0,.968,2.909,14.239,14.239,0,0,0,4.173,4.359c.07.06.145.115.221.171l.045.075.03.05a.07.07,0,0,0,.125,0A.055.055,0,0,0,162.565,339.847Zm-.5-.341a16.622,16.622,0,0,1-3.541-3.551,8.828,8.828,0,0,1-1.149-2.352,6.674,6.674,0,0,1-.251-1.139,5.094,5.094,0,0,1-.05-.873c0-.637.286-1.334.662-1.4.466-.085.622.186.928.722a4.843,4.843,0,0,1,.276.562,14.224,14.224,0,0,1,.5,1.47c.261.823.527,1.64.823,2.448.2.552.411,1.093.647,1.63a21.79,21.79,0,0,0,1.379,2.678Z" transform="translate(-104.523 -327.408)" fill="#fff"/>
      <path id="Path_1049" data-name="Path 1049" d="M319.437,343.092c-.206,1.675-.527,3.33-.868,4.986-.191.938-.391,1.871-.582,2.814a6.989,6.989,0,0,0-.236,3.13h0a.738.738,0,0,1,0,.145h0a.125.125,0,0,1-.216-.035.49.49,0,0,1,0-.07h0a3.729,3.729,0,0,1-.361-.868,22.42,22.42,0,0,1-1.65-7.589,17.76,17.76,0,0,1,.5-4.66,9.389,9.389,0,0,1,1.63-3.962c.823-.843,1.5.5,1.745,1.189A11.954,11.954,0,0,1,319.437,343.092Z" transform="translate(-183.557 -330.768)" fill="#37474f"/>
      <path id="Path_1050" data-name="Path 1050" d="M318.576,342.34c-.612,0-1.053,1.971-1.274,2.824a16.965,16.965,0,0,0-.5,4.113,21.97,21.97,0,0,0,1.264,7.3c.035.09.065.191.1.281a.323.323,0,0,0,0,.065.125.125,0,0,0,.216.04c-.04-.206-.07-.406-.09-.617s-.045-.366-.055-.552a29.056,29.056,0,0,1,.371-6.044C318.907,347.441,319.408,342.34,318.576,342.34Zm-.441,13.873c.03.271.075.537.125.8-.06-.2-.125-.386-.181-.582a24.118,24.118,0,0,1-1.154-6.445,17.437,17.437,0,0,1,.266-3.681,15.881,15.881,0,0,1,.477-1.926c.085-.266.532-1.916.908-1.836.266.06.326,1.545.331,1.58v.893c0,.617-.05,1.229-.1,1.841-.115,1.329-.306,2.653-.466,3.977a22.973,22.973,0,0,0-.206,5.377Z" transform="translate(-184.195 -333.572)" fill="#fff"/>
      <path id="Path_1051" data-name="Path 1051" d="M330.856,356.746a15.838,15.838,0,0,1-4.966,5.3c-1.048.767-2.127,1.5-3.19,2.232a17.171,17.171,0,0,0-2.754,2.122,1.15,1.15,0,0,0-.105.115,4.312,4.312,0,0,0-.572.787.07.07,0,0,1-.055.03.8.8,0,0,1-.035.1h-.045v-.11h0a.06.06,0,0,1,0-.08.08.08,0,0,1,0-.035.843.843,0,0,1,0-.11c.316-2.558,2.107-5.141,3.621-7.112a13.539,13.539,0,0,1,5.713-4.609c.587-.226,1.921-.848,2.508-.371S331.1,356.285,330.856,356.746Z" transform="translate(-185.351 -339.798)" fill="#37474f"/>
      <path id="Path_1052" data-name="Path 1052" d="M329.157,358.546c-.532-.532-2.1.782-2.508,1.093a26.075,26.075,0,0,0-3.245,3.155,23.315,23.315,0,0,0-4.143,6.019h0l-.055.07a.442.442,0,0,0,0,.11.05.05,0,0,0,0,.035.07.07,0,0,0,0,.085c.03-.03.05-.065.08-.09.2-.241.4-.477.612-.707l.105-.11a50.741,50.741,0,0,1,4.85-4.288,24.227,24.227,0,0,0,3.235-3.14C328.314,360.467,329.628,359,329.157,358.546Zm-.5,1.174c-1.324,2.2-3.616,3.8-5.562,5.4a26.58,26.58,0,0,0-3.7,3.511,24.806,24.806,0,0,1,3.847-5.407,33.591,33.591,0,0,1,2.633-2.714,13.97,13.97,0,0,1,1.6-1.279,5.643,5.643,0,0,1,1.083-.587c.742-.211.331.7.105,1.068Z" transform="translate(-185.387 -341.587)" fill="#fff"/>
      <path id="Path_1053" data-name="Path 1053" d="M312.753,375.775a.141.141,0,0,1-.115.06l.03.04a.04.04,0,0,1,0,.055.03.03,0,0,1-.05,0,22.076,22.076,0,0,1-5.106-7.468,11.567,11.567,0,0,1-.742-3.682c-.025-.858-.07-2.593.667-3.22,1.5-1.259,2.834,4.088,3.035,4.9.366,1.47.612,2.969.948,4.444.371,1.615.863,3.205,1.344,4.79A.1.1,0,0,1,312.753,375.775Z" transform="translate(-179.19 -343.057)" fill="#37474f"/>
      <path id="Path_1054" data-name="Path 1054" d="M313.734,377.8c-.08-.135-.161-.271-.236-.411a25.022,25.022,0,0,1-2.668-7.187,22.774,22.774,0,0,0-1-3.737c-.12-.3-.5-1.439-.978-.863-.256.3-.045,2.463.06,3.009a15.732,15.732,0,0,0,1.2,3.672,26.085,26.085,0,0,0,3.4,5.517c.04.05.075.1.115.145a.04.04,0,0,0,0-.055l-.03-.035A.141.141,0,0,0,313.734,377.8Zm-3.009-4.594a18.249,18.249,0,0,1-1.424-3.566,11.711,11.711,0,0,1-.311-1.5,7.989,7.989,0,0,1-.1-1.194c0-.978.085-1.229.246-1.264s.241.085.532.667a6.678,6.678,0,0,1,.416,1.189c.15.577.281,1.154.406,1.74.256,1.164.5,2.332.833,3.476a19.33,19.33,0,0,0,2.056,4.675,29.593,29.593,0,0,1-2.653-4.218Z" transform="translate(-180.172 -345.086)" fill="#fff"/>
      <path id="Path_1055" data-name="Path 1055" d="M325.77,377.613a7.439,7.439,0,0,1-1.359,2.829c-1.234,1.7-2.8,3.11-4.148,4.72-.2.241-.4.5-.587.732a1.958,1.958,0,0,1-.176.356,1.248,1.248,0,0,1,.07-.371h0a30.07,30.07,0,0,1,1.806-6.265,14.966,14.966,0,0,1,1.966-3.075c.381-.431,1.274-1.364,1.946-1.159S325.86,377.071,325.77,377.613Z" transform="translate(-185.541 -350.027)" fill="#37474f"/>
      <path id="Path_1056" data-name="Path 1056" d="M324.641,378.449c-.717-.446-2.573,2.869-2.824,3.3a21.07,21.07,0,0,0-2.117,5.061c-.06.2-.11.4-.16.6a2.917,2.917,0,0,0-.07.371c0,.01.155-.326.176-.356l.1-.125c.161-.211.326-.411.5-.607.808-1.2,1.635-2.4,2.418-3.626a19.056,19.056,0,0,0,1.5-2.759C324.25,380.084,324.957,378.645,324.641,378.449Zm-.206.933c-1,2.884-3.115,5.161-4.71,7.719l-.075.125a.767.767,0,0,1,.065-.226,24.473,24.473,0,0,1,1.69-4.213,23.237,23.237,0,0,1,1.429-2.372,11.261,11.261,0,0,1,.883-1.234c.15-.165.577-.6.717-.5s.065.527,0,.7Z" transform="translate(-185.526 -351.55)" fill="#fff"/>
      <path id="Path_1057" data-name="Path 1057" d="M335.869,329.859c-2.137,4.915-7.754,7.208-10.187,11.947v.025c-.075.14-.145.291-.216.436a.1.1,0,0,1-.161.025.065.065,0,0,1,0-.08,1.007,1.007,0,0,1,.05-.105,25.741,25.741,0,0,1,3.009-8.607,12.986,12.986,0,0,1,5.246-5.577c.577-.3,1.7-.918,2.337-.431S336.135,329.252,335.869,329.859Z" transform="translate(-188.428 -326.082)" fill="#37474f"/>
      <path id="Path_1058" data-name="Path 1058" d="M333.947,332.734c-.271-.2-.682.045-.918.166a8.129,8.129,0,0,0-1.62,1.108,13.64,13.64,0,0,0-2.593,3.08,28.043,28.043,0,0,0-3.049,6.184c-.166.5-.306,1-.426,1.5a.766.766,0,0,1-.04.186.1.1,0,0,0,.16,0c.065-.15.135-.286.206-.431V344.5a16.164,16.164,0,0,1,1.5-2.8,38,38,0,0,1,3.245-3.847C330.852,337.384,334.89,333.426,333.947,332.734Zm-.341,1.139a18.581,18.581,0,0,1-2.538,3.08c-.878.983-1.786,1.971-2.658,2.979a18.734,18.734,0,0,0-1.871,2.553,14.641,14.641,0,0,0-1.174,2.367,20.542,20.542,0,0,1,.838-2.458v-.03a36.579,36.579,0,0,1,2.076-4.133l.025-.05a16.908,16.908,0,0,1,2.367-3.305,10,10,0,0,1,1.685-1.434c.707-.451,1.319-.747,1.5-.5S333.8,333.532,333.606,333.873Z" transform="translate(-188.432 -328.747)" fill="#fff"/>
      <path id="Path_1059" data-name="Path 1059" d="M324.824,343.808c-.642,1.384-1.254,2.794-1.861,4.2-.291.662-.572,1.324-.853,2.006v.035c-.1.241-.206.5-.311.717a43.929,43.929,0,0,0-2.508,6.651,20.018,20.018,0,0,0-.5,3.692v.386h0v.211a.887.887,0,0,0,0,.115c-.04,1.078-.025,2.162,0,3.215.03,1.465.151,2.919.291,4.374a.613.613,0,0,0,0,.13v.487c.05.466.09.933.13,1.4h-.446a29,29,0,0,1-.542-4.328.565.565,0,0,1,0-.09,2.432,2.432,0,0,0-.025-.426,3.35,3.35,0,0,1,0-.5c0-.421-.03-.838-.035-1.249a30.789,30.789,0,0,1,.5-7.248l.045-.2v-.08a1.149,1.149,0,0,1,.035-.14l.055-.221c.035-.135.075-.266.115-.4a1.007,1.007,0,0,1,.035-.115,46.689,46.689,0,0,1,2.468-5.969c.165-.356.331-.7.5-1.053l.281-.587.436-.878v-.03c.687-1.379,1.4-2.749,2.076-4.133C324.749,343.692,324.859,343.742,324.824,343.808Z" transform="translate(-184.856 -334.268)" fill="#37474f"/>
      <path id="Path_1060" data-name="Path 1060" d="M130.4,385.4H99s.07-4.675,3.16-5.918a4.208,4.208,0,0,1,4.925,1.179s1.259-8.6,7.022-8.6,8.527,7.418,8.527,7.418a4.412,4.412,0,0,1,4.484-1.826C130.313,378.069,130.4,385.4,130.4,385.4Z" transform="translate(-75.637 -348.386)" fill="#37474f"/>
      <path id="Path_1061" data-name="Path 1061" d="M415.68,385.187s-.963-4.514-2.884-5.186-3.095,1.324-3.095,1.324-.456-4.293-3.185-5.582-4.775,1.349-4.775,1.349-2.092-5.452-5.828-5.452-5.6,7.975-5.6,7.975-2.207-2.377-4.469-1.033-2.262,6.606-2.262,6.606Z" transform="translate(-217.481 -348.177)" fill="#37474f"/>
      <path id="Path_1062" data-name="Path 1062" d="M81.4,389.146H52.42s.953-4.083,2.874-4.374a2.827,2.827,0,0,1,2.814,1.605s-.085-5.7,3.511-6.671,6.6,4.068,6.6,4.068,2.247-2.874,5.317-2.688,3.842,4.925,3.842,4.925S80.162,384.366,81.4,389.146Z" transform="translate(-52.42 -352.135)" fill="#455a64"/>
      <path id="Path_1063" data-name="Path 1063" d="M369.981,391.144h-17.8s.04-2.648,1.791-3.35a2.372,2.372,0,0,1,2.789.667s.712-4.87,3.977-4.87,4.82,4.2,4.82,4.2a2.508,2.508,0,0,1,2.543-1.038C369.91,387,369.981,391.144,369.981,391.144Z" transform="translate(-201.83 -354.133)" fill="#455a64"/>
    </g>
    <g id="freepik--Floor--inject-8" transform="translate(45.75 209.804)">
      <path id="Path_1064" data-name="Path 1064" d="M45.75,398.671l25.615-.125,25.61-.04,51.22-.085,51.22.08,25.615.045,25.61.125-25.61.12-25.615.045-51.22.085-51.22-.085-25.61-.045Z" transform="translate(-45.75 -398.42)" fill="#263238"/>
    </g>
    <g id="freepik--social-tree--inject-8" transform="translate(64.808 20)">
      <path id="Path_1065" data-name="Path 1065" d="M187.14,108.329c0,4.805,0,27.742,21.567,31.478,0,0,.351,2.423,1.038,6.209.823,4.594,2.137,11.195,3.877,17.911a.121.121,0,0,0,0,.045c.6,2.312,1.254,4.634,1.956,6.892a.15.15,0,0,0,0,.05c.07.216.135.426.2.637a116.587,116.587,0,0,1,3.361,13.121c6.631,34.307-7.5,51.847-7.5,51.847h29.7s7.358-32.1-8.261-64.316c-2.874-5.964,8.627-10.814,13.678-21.913,4.258-9.4,4.133-55.629,2.066-58.608s-5.367-2.237-5.367,1.866,0,42.488-2.894,49.941-15.238,16.4-15.238,16.4-6.345-10.382-9.9-33.1h0a218.742,218.742,0,0,1-2.207-40.467h0q.16-5.191.547-10.774c.3-4.268-4.138-2.4-5.613,1.339s-3.551,25.339-.6,54.415c0,0-14.781-2.082-14.781-25.344C192.753,101.638,187.14,103.524,187.14,108.329Z" transform="translate(-135.281 -46.466)" fill="#00a0df"/>
      <path id="Path_1066" data-name="Path 1066" d="M187.14,108.329c0,4.805,0,27.742,21.567,31.478,0,0,.351,2.423,1.038,6.209.823,4.594,2.137,11.195,3.877,17.911a.121.121,0,0,0,0,.045c.6,2.312,1.254,4.634,1.956,6.892a.15.15,0,0,0,0,.05c.07.216.135.426.2.637a116.587,116.587,0,0,1,3.361,13.121c6.631,34.307-7.5,51.847-7.5,51.847h29.7s7.358-32.1-8.261-64.316c-2.874-5.964,8.627-10.814,13.678-21.913,4.258-9.4,4.133-55.629,2.066-58.608s-5.367-2.237-5.367,1.866,0,42.488-2.894,49.941-15.238,16.4-15.238,16.4-6.345-10.382-9.9-33.1h0a218.742,218.742,0,0,1-2.207-40.467h0q.16-5.191.547-10.774c.3-4.268-4.138-2.4-5.613,1.339s-3.551,25.339-.6,54.415c0,0-14.781-2.082-14.781-25.344C192.753,101.638,187.14,103.524,187.14,108.329Z" transform="translate(-135.281 -46.466)" opacity="0.5"/>
      <g id="Group_705" data-name="Group 705" transform="translate(56.197 36.527)" opacity="0.1">
        <path id="Path_1067" data-name="Path 1067" d="M265.881,269.55c1.705,5.808,4.038,11.466,5.728,17.294a118.128,118.128,0,0,1,3.822,17.891,91.708,91.708,0,0,1,.582,17.555,109.791,109.791,0,0,1-1.876,11.892h2.7c3.21-9.2,2.779-19.561,1.124-28.845a131.411,131.411,0,0,0-4.755-17.961c-2.006-6.019-3.892-12.188-6.43-18.056C266.563,268.833,265.726,269.019,265.881,269.55Z" transform="translate(-230.716 -180.655)"/>
        <path id="Path_1068" data-name="Path 1068" d="M241.511,200.742C242.7,213,248.127,224.9,252.014,236.6a96.518,96.518,0,0,1,4.67,36.544c0,.291-.5.3-.5,0-.12-6.7-.236-13.437-1.615-20.038a150.809,150.809,0,0,0-5.2-17.61c-1.946-5.683-4.1-11.32-5.7-17.093a79.448,79.448,0,0,1-2.729-17.665C240.925,200.391,241.471,200.4,241.511,200.742Z" transform="translate(-218.294 -146.485)"/>
        <path id="Path_1069" data-name="Path 1069" d="M242.19,348.375H245.2c.833-1.675,1.58-3.376,2.287-5.016a71.6,71.6,0,0,0,4.639-15.177,73.512,73.512,0,0,0-.833-30.505c-.07-.291-.527-.161-.5.115a77.41,77.41,0,0,1-1.083,30.626,85.268,85.268,0,0,1-4.7,14.335A62.254,62.254,0,0,1,242.19,348.375Z" transform="translate(-218.917 -194.847)"/>
        <path id="Path_1070" data-name="Path 1070" d="M263.641,364.016c.687-2.257,1.1-5.016,2.267-7.127a2.648,2.648,0,0,1,2.122-1.435.543.543,0,0,1,.206-.025,2.017,2.017,0,0,1,.311.04,2.945,2.945,0,0,1,.557.125c.366.125.777.376.843.762v.06c1.319,1.881.833,5.9.647,7.383-.281,2.307-.973,8.356-4.986,7.814C261.72,371.088,262.979,366.2,263.641,364.016Z" transform="translate(-229.243 -223.714)"/>
        <path id="Path_1071" data-name="Path 1071" d="M232.23,218.48c.823,4.594,2.137,11.195,3.877,17.911a.121.121,0,0,0,0,.045c.221.767.451,1.5.677,2.292.461,1.535.893,3.065,1.279,4.6a.15.15,0,0,0,0,.05c.07.216.135.426.2.637a116.591,116.591,0,0,1,3.361,13.121c.682-5.758-.416-11.476-2.112-17.214C237.391,232.664,234.979,225.547,232.23,218.48Z" transform="translate(-213.953 -155.455)"/>
        <path id="Path_1072" data-name="Path 1072" d="M304.523,187.311a2.468,2.468,0,0,1,.286-1.214,1,1,0,0,1,.958-.416.963.963,0,0,1,.8.622,1.59,1.59,0,0,0,.176.406,1.739,1.739,0,0,1,0,.557,1.2,1.2,0,0,1-.341,1.419,1.1,1.1,0,0,1-1.605-.191A1.5,1.5,0,0,1,304.523,187.311Z" transform="translate(-249.972 -139.102)"/>
        <path id="Path_1073" data-name="Path 1073" d="M270.9,222.176c7.022-7.473,15.228-16.236,15.2-26.583,0-.261.4-.241.436,0,1.585,11.376-6.48,19.817-15.047,27.13C271.108,223.059,270.567,222.547,270.9,222.176Z" transform="translate(-233.175 -143.954)"/>
        <path id="Path_1074" data-name="Path 1074" d="M273.155,248.357c.346-1.861,1.956-3.456,3.315-4.815a58.425,58.425,0,0,0,5.382-5.547c.206-.266.672-.03.5.261a32.407,32.407,0,0,1-4.068,5.076c-1.59,1.71-2.884,3.7-4.554,5.327a.341.341,0,0,1-.577-.3Z" transform="translate(-234.348 -165.124)"/>
        <path id="Path_1075" data-name="Path 1075" d="M307.162,123.2c0-.206.321-.191.346,0,1.344,9.088,1.565,18.794-.291,27.847-.055.291-.557.216-.557-.07C306.66,141.735,307.152,132.461,307.162,123.2Z" transform="translate(-251.051 -107.892)"/>
        <path id="Path_1076" data-name="Path 1076" d="M301.331,151.338c0-.07.125-.07.125,0,.05,6.019.055,12.5-1.414,18.372-.085.346-.687.271-.682-.08C299.41,163.581,300.6,157.351,301.331,151.338Z" transform="translate(-247.412 -121.963)"/>
        <path id="Path_1077" data-name="Path 1077" d="M196.776,170.165c1.5,3.982,3.195,7.559,6.751,10.443a26.336,26.336,0,0,0,5.367,3.4c1.866.873,3.957,1.274,5.783,2.187.271.135.115.451-.145.5-4.369.466-9.369-2.734-12.208-5.457-3.075-2.949-5.833-6.841-6.134-10.979C196.169,169.919,196.671,169.889,196.776,170.165Z" transform="translate(-195.989 -131.281)"/>
        <path id="Path_1078" data-name="Path 1078" d="M195.925,152.342c.888,7.428,5.246,13.7,10.944,18.9.16.145-.05.406-.251.291-7.1-4.253-10.573-11.737-10.829-19.2C195.785,152.262,195.9,152.267,195.925,152.342Z" transform="translate(-195.79 -122.461)"/>
        <path id="Path_1079" data-name="Path 1079" d="M229.061,119.791c.025-.276.5-.286.5,0-.326,16.507,3.23,32.727,4.619,49.154,0,.276-.5.341-.537.065-1.605-8.025-2.839-16.211-3.842-24.341A110.482,110.482,0,0,1,229.061,119.791Z" transform="translate(-212.168 -106.161)"/>
        <path id="Path_1080" data-name="Path 1080" d="M233.8,119.332A65.811,65.811,0,0,0,238.6,139.9a218.742,218.742,0,0,1-2.207-40.467,56.524,56.524,0,0,0-1.866,6.962,51.161,51.161,0,0,0-.722,12.94Z" transform="translate(-214.671 -96.117)"/>
        <path id="Path_1081" data-name="Path 1081" d="M229.663,97.332c.246-1.47.943-2.819,1.254-4.273.065-.306.637-.316.692,0a7.486,7.486,0,0,1-.577,3.556,36.356,36.356,0,0,0-.863,5.231.3.3,0,0,1-.587,0,17.665,17.665,0,0,1,.08-4.514Z" transform="translate(-212.58 -92.825)"/>
        <path id="Path_1082" data-name="Path 1082" d="M268.588,262a60.806,60.806,0,0,1,8.2,20.474c.065.291-.381.406-.5.125-2.553-6.861-5.462-13.618-8.155-20.434C268.061,261.952,268.453,261.791,268.588,262Z" transform="translate(-231.843 -177.099)"/>
        <path id="Path_1083" data-name="Path 1083" d="M253.8,273.442c1.324,2.463,2.814,6.084,2.212,8.858,0,.055-.105.065-.135,0a15.746,15.746,0,0,1-1.259-4.013c-.416-1.56-.953-3.095-1.359-4.655A.3.3,0,0,1,253.8,273.442Z" transform="translate(-224.432 -182.781)"/>
        <path id="Path_1084" data-name="Path 1084" d="M272.4,358.758a17.951,17.951,0,0,0,3.641-8.115c.687-3.511,1.429-7.313.717-10.874-.587-2.919-1.71-5.683-2.142-8.642a41.043,41.043,0,0,1-.14-10.608c0-.226.406-.236.4,0a40.577,40.577,0,0,0,1.309,12.193c.893,3.305,2.332,6.5,2.312,9.936-.025,5.256-.913,12.78-5.567,16.471C272.672,359.334,272.171,359.053,272.4,358.758Z" transform="translate(-233.946 -206.228)"/>
        <path id="Path_1085" data-name="Path 1085" d="M259.066,389.718h1.76a6.194,6.194,0,0,0-.236-2.638c-.587-2.046-1.755-4.3-1.4-6.47,0-.12-.176-.221-.241-.09C257.491,383.559,258.66,386.628,259.066,389.718Z" transform="translate(-226.915 -236.19)"/>
        <path id="Path_1086" data-name="Path 1086" d="M260.581,376.87h0a1.374,1.374,0,0,0-.216.858h0A1.394,1.394,0,0,1,260.581,376.87Z" transform="translate(-227.974 -234.402)"/>
      </g>
      <circle id="Ellipse_67" data-name="Ellipse 67" cx="11.29" cy="11.29" r="11.29" transform="translate(134.852 110.611) rotate(-31.46)" fill="#37474f"/>
      <path id="Path_1087" data-name="Path 1087" d="M383.554,236.477c-.256-2.749-2.167-5.477-5.492-5.477s-5.216,2.734-5.492,5.482c-.416,4.238,2.443,8.08,5.492,11.586C381.116,244.542,383.975,240.715,383.554,236.477Zm-5.492,3.05a3.009,3.009,0,1,1,3.009-3.009,3.009,3.009,0,0,1-3.009,3.009Z" transform="translate(-227.685 -125.169)" fill="#fff"/>
      <circle id="Ellipse_68" data-name="Ellipse 68" cx="23.824" cy="23.824" r="23.824" transform="translate(53.378 46.426) rotate(-76.99)" fill="#455a64"/>
      <path id="Path_1088" data-name="Path 1088" d="M234.631,56.341c-.055,1.5,0,3.05,0,4.69h5.918c-.251,1.951-.466,3.752-.757,5.517,0,.181-.466.4-.722.411-1.424.035-2.849,0-4.4,0V86.7a23.237,23.237,0,0,1-6.28-1V67.039h-5.2V61.086h5.071c0-.451.055-.813.055-1.154.035-1.57,0-3.14.125-4.695a6.536,6.536,0,0,1,5.793-6.28,48.777,48.777,0,0,1,6.475-.055V54.32h-2.347a9.861,9.861,0,0,0-2.071.14A1.951,1.951,0,0,0,234.631,56.341Z" transform="translate(-153.25 -34.362)" fill="#fff"/>
      <circle id="Ellipse_69" data-name="Ellipse 69" cx="23.824" cy="23.824" r="23.824" transform="translate(4.845 93.632) rotate(-45)" fill="#455a64"/>
      <path id="Path_1089" data-name="Path 1089" d="M134.64,207.507a13.307,13.307,0,0,0,8.587-2.643c-3.551-1.078-4.965-2.162-5.482-4.183l2.377-.115c-2.8-1.078-4.449-2.959-4.665-6.019l2.453.647c-2.568-3.235-3.09-5.743-1.555-8.085a17.7,17.7,0,0,0,12.589,6.3c0-.4-.045-.7-.055-1a5.784,5.784,0,0,1,3.376-5.828,5.85,5.85,0,0,1,6.686.808,1.234,1.234,0,0,0,1.349.281c.958-.361,1.921-.707,2.974-1.093a6.124,6.124,0,0,1-2.337,3.009c.025.055.045.115.065.171l2.944-.757.12.12c-.762.762-1.5,1.565-2.3,2.282a1.565,1.565,0,0,0-.637,1.314,17.229,17.229,0,0,1-15.679,17.264,17.484,17.484,0,0,1-10.227-2.087A6.059,6.059,0,0,0,134.64,207.507Z" transform="translate(-109.114 -102.68)" fill="#fff"/>
      <circle id="Ellipse_70" data-name="Ellipse 70" cx="16.707" cy="16.707" r="16.707" transform="translate(69.527 133.376) rotate(-82.86)" fill="#455a64"/>
      <g id="freepik--2dqxsktif--inject-8" transform="translate(79.39 110.114)">
        <path id="Path_1090" data-name="Path 1090" d="M244.272,239.545a.216.216,0,0,0,.07,0,2.051,2.051,0,0,1,1.324.6,2.006,2.006,0,0,1,.592,1.174,2.056,2.056,0,0,1-.707,1.941,2.031,2.031,0,0,1-1,.471,2.072,2.072,0,0,1-.582.03,2.1,2.1,0,0,1-1.826-1.5,1.8,1.8,0,0,1-.075-.436c0-.03,0-.065-.035-.075v-.186c.035,0,.03-.045.035-.075s0-.12,0-.181a2.031,2.031,0,0,1,1.911-1.761.37.37,0,0,0,.07,0Z" transform="translate(-242.03 -239.54)" fill="#fff"/>
        <path id="Path_1091" data-name="Path 1091" d="M257.964,252.406l.055-.07a3.862,3.862,0,0,1,2.312-1.635,5.455,5.455,0,0,1,.948-.13,5.581,5.581,0,0,1,.647,0,4.71,4.71,0,0,1,1.791.446,3.1,3.1,0,0,1,1.344,1.279,4.564,4.564,0,0,1,.446,1.129,5.621,5.621,0,0,1,.165.818,1.69,1.69,0,0,0,.035.416c0,.256.03.5.04.772h0v6.937c0,.14,0,.145-.15.145h-3.325c-.176,0-.176-.05-.176-.181v-6.094a3.889,3.889,0,0,0-.15-1.149,2.212,2.212,0,0,0-.281-.617,1.414,1.414,0,0,0-.923-.612,1.852,1.852,0,0,0-.436-.05h-.471a1.73,1.73,0,0,0-1.48,1.068,3.311,3.311,0,0,0-.236.873,6.777,6.777,0,0,0-.06.958v5.608a1.12,1.12,0,0,1,0,.13c0,.06-.03.08-.085.085h-3.386c-.151,0-.161-.055-.161-.165v-11.29a.61.61,0,0,1,0-.1c0-.085.03-.115.115-.12h3.27c.08,0,.11.03.11.115v1.344a.457.457,0,0,0,0,.08Z" transform="translate(-248.209 -245.033)" fill="#fff"/>
        <path id="Path_1092" data-name="Path 1092" d="M242.668,257V251.33a.606.606,0,0,1,0-.1.065.065,0,0,1,.07-.065h3.426c.13,0,.161.035.161.166v11.315a.972.972,0,0,1,0,.12.08.08,0,0,1-.085.08h-3.406c-.125,0-.161-.03-.161-.171V257Z" transform="translate(-242.347 -245.337)" fill="#fff"/>
      </g>
      <circle id="Ellipse_71" data-name="Ellipse 71" cx="23.804" cy="23.804" r="23.804" transform="translate(107.895 98.103) rotate(-76.85)" fill="#00a0df"/>
      <path id="Path_1093" data-name="Path 1093" d="M355.933,158.123c0-3.862-2.428-6.36-6.255-6.4q-7.95-.075-15.9,0a5.956,5.956,0,0,0-6.234,6.265c-.035,2.643,0,5.292,0,7.935v7.764c.03,3.952,2.443,6.475,6.35,6.52q7.86.085,15.729,0a6.01,6.01,0,0,0,6.31-6.38Q355.978,165.977,355.933,158.123ZM353.4,173.867c-.025,2.443-1.344,3.792-3.787,3.812q-7.865.045-15.724,0c-2.458,0-3.787-1.364-3.8-3.8q-.04-7.93,0-15.865a3.468,3.468,0,0,1,3.782-3.827q7.865-.06,15.724,0c2.428,0,3.777,1.4,3.8,3.817.03,2.643,0,5.287,0,7.93S353.43,171.224,353.4,173.867Z" transform="translate(-205.256 -85.636)" fill="#fff"/>
      <path id="Path_1094" data-name="Path 1094" d="M348.479,165.3a7.4,7.4,0,1,0,5.255,2.223A7.418,7.418,0,0,0,348.479,165.3Zm-.1,12.359a5.016,5.016,0,0,1-4.865-4.885,4.945,4.945,0,1,1,9.891,0A5.016,5.016,0,0,1,348.384,177.658Z" transform="translate(-211.976 -92.422)" fill="#fff"/>
      <path id="Path_1095" data-name="Path 1095" d="M371.7,163.121a1.7,1.7,0,1,1-3.386-.316c.075-1.038.752-1.5,1.791-1.575A1.641,1.641,0,0,1,371.7,163.121Z" transform="translate(-225.569 -90.394)" fill="#fff"/>
      <circle id="Ellipse_72" data-name="Ellipse 72" cx="16.095" cy="16.095" r="16.095" transform="matrix(0.233, -0.972, 0.972, 0.233, 102.268, 131.438)" fill="#00a0df"/>
      <path id="Path_1096" data-name="Path 1096" d="M314.35,258.364V246.01l14.736,6.179Z" transform="translate(-198.687 -132.651)" fill="#fff"/>
      <circle id="Ellipse_73" data-name="Ellipse 73" cx="11.416" cy="11.416" r="11.416" transform="translate(44.384 117.123) rotate(-22.17)" fill="#37474f"/>
      <path id="Path_1097" data-name="Path 1097" d="M201.2,261.459c-1.886,3.8-6.365,6.054-6.365,6.054s-4.479-2.257-6.36-6.054c-1.57-3.17-.577-6.6,1.9-7.343,3.546-1.073,4.459,5.111,4.459,5.111s.908-6.184,4.464-5.111C201.776,254.863,202.774,258.289,201.2,261.459Z" transform="translate(-135.572 -136.628)" fill="#fff"/>
      <circle id="Ellipse_74" data-name="Ellipse 74" cx="16.707" cy="16.707" r="16.707" transform="translate(99.807 37.521) rotate(-45)" fill="#37474f"/>
      <g id="freepik--QfoS7x.tif--inject-8" transform="translate(114.635 27.225)">
        <path id="Path_1098" data-name="Path 1098" d="M326.758,78.558a3.688,3.688,0,0,0,.291.456h.025A3.787,3.787,0,0,1,326.758,78.558Zm.321.5h0l.176.125Zm2.834,3.009v-1.3a4.535,4.535,0,0,1-.5-.12,4.73,4.73,0,0,1-.848-.336,4.091,4.091,0,0,1-.747-.5,3.064,3.064,0,0,1-.351-.321l-.05-.055-.045-.045a2.407,2.407,0,0,1-.276-.356.422.422,0,0,1-.12-.08,4.789,4.789,0,0,1-.527-.532,4.6,4.6,0,0,1-.627-.958,5.106,5.106,0,0,1-.381-1.078c-.035-.135-.06-.271-.09-.406h0v-.035H322.8c-.06,0-.07,0-.07.07V89.161a3.037,3.037,0,0,1-.04.6,4.733,4.733,0,0,1-.14.752,1.505,1.505,0,0,1-.15.311,2.98,2.98,0,0,1-.542.682,2.739,2.739,0,0,1-1.334.667l-.311.04h-.306A2.829,2.829,0,0,1,318.868,92a2.6,2.6,0,0,1-.667-.386,2.1,2.1,0,0,1-.537-.657,5.312,5.312,0,0,1-.221-.577,2.717,2.717,0,0,0,.211.552h0a1.212,1.212,0,0,1-.211-.145h0a2.15,2.15,0,0,1-.226-.2,2.213,2.213,0,0,1-.471-.757,3.557,3.557,0,0,1-.14-.5,2.807,2.807,0,0,1-.05-.406v-.246a3.322,3.322,0,0,1,.135-.858,2.661,2.661,0,0,1,.4-.8,2.462,2.462,0,0,1,.727-.657,2.849,2.849,0,0,1,.843-.336,3.516,3.516,0,0,1,.391-.06,3.626,3.626,0,0,1,.617,0,2.454,2.454,0,0,1,.426.04c.06,0,.07,0,.07-.06V83.158h-.637a7.376,7.376,0,0,0-.737.085,6.542,6.542,0,0,0-.808.2,5.347,5.347,0,0,0-.557.221,5.518,5.518,0,0,0-.808.451,3.74,3.74,0,0,0-.5.4,5.283,5.283,0,0,0-.5.466,5.208,5.208,0,0,0-.532.662,7.225,7.225,0,0,0-.5.873,7.046,7.046,0,0,0-.291.7,8.105,8.105,0,0,0-.276,1c-.03.166-.05.331-.07.5a7.1,7.1,0,0,0-.045,1,5.491,5.491,0,0,0,.045.572,5.886,5.886,0,0,0,.165.888,6.339,6.339,0,0,0,.311.9,5.87,5.87,0,0,0,.5.938c.045.07.1.14.135.216a4.7,4.7,0,0,0,.411.471c-.11-.12-.211-.246-.316-.366a.03.03,0,0,1,0-.03l.045.03a1.155,1.155,0,0,1,.12.1h0a6.528,6.528,0,0,0,.537.381,5.85,5.85,0,0,0,.737.406,7.524,7.524,0,0,0,1,.381,4.714,4.714,0,0,0,.5.105l.461.075a1.58,1.58,0,0,0,.216,0,6.428,6.428,0,0,0,.7.035,2.662,2.662,0,0,0,.6-.045,5.463,5.463,0,0,0,.7-.115,5.155,5.155,0,0,0,1-.331,5.287,5.287,0,0,0,1.063-.627,5.216,5.216,0,0,0,.737-.672,4.972,4.972,0,0,0,.5-.6,5.935,5.935,0,0,0,.532-.913,6.9,6.9,0,0,0,.411-1.113c.06-.211.11-.426.151-.642s.05-.311.075-.471a2.276,2.276,0,0,0,.025-.266c.07-1.209,0-2.418.03-3.626s0-2.423,0-3.636v-.04l.125.105a5.018,5.018,0,0,0,.622.446c.2.12.4.226.6.326a8.732,8.732,0,0,0,1.113.416c.271.08.552.15.833.206s.431.08.647.105c.13,0,.261.03.4.04h.261c.05,0,.055,0,.055-.055Zm-14.846,11.18Zm.045.035h0s.01.015,0,.01Zm.331.4v.03Zm8.321-17.766Zm1.585,0a.075.075,0,0,0,0,.035Z" transform="translate(-313.095 -75.097)" fill="#fefefe"/>
        <path id="Path_1099" data-name="Path 1099" d="M331.909,88.991c0,.045,0,.06-.06.06a5.392,5.392,0,0,1-.567-.045c-.191-.02-.3-.035-.451-.06s-.336-.065-.5-.1a8.235,8.235,0,0,1-.973-.271,6.918,6.918,0,0,1-.752-.3,6.064,6.064,0,0,1-.878-.5,5.083,5.083,0,0,1-.456-.356h0v6.851a5.009,5.009,0,0,1-.04.547,2.235,2.235,0,0,1-.05.361c-.02.12-.06.346-.1.5s-.12.466-.2.7a7.649,7.649,0,0,1-.331.813,6.483,6.483,0,0,1-.542.918,3.737,3.737,0,0,1-.306.391c-.09.11-.191.221-.3.326a5.915,5.915,0,0,1-.456.411c-.15.115-.3.226-.456.326a5.852,5.852,0,0,1-.843.441,6.365,6.365,0,0,1-.792.261c-.165.04-.331.07-.5.1s-.336.045-.5.065h-.848a3.956,3.956,0,0,1-.547-.055l-.431-.065a4.244,4.244,0,0,1-.928-.256c-.176-.065-.356-.14-.527-.221a6.925,6.925,0,0,1-.863-.5,5.223,5.223,0,0,1-.461-.341,6.726,6.726,0,0,1-.557-.5h0v-.03c-.15-.16-.416-.461-.411-.471a.922.922,0,0,1,.14.105l.12.1h0a6.518,6.518,0,0,0,.537.381,5.849,5.849,0,0,0,.737.406,7.521,7.521,0,0,0,1,.381,4.716,4.716,0,0,0,.5.105l.461.075a1.58,1.58,0,0,0,.216,0,6.424,6.424,0,0,0,.7.035,2.661,2.661,0,0,0,.6-.045,5.462,5.462,0,0,0,.7-.115,5.155,5.155,0,0,0,1-.331,5.286,5.286,0,0,0,1.063-.627,5.217,5.217,0,0,0,.737-.672,4.975,4.975,0,0,0,.5-.6,5.936,5.936,0,0,0,.532-.913,6.907,6.907,0,0,0,.411-1.113c.06-.211.11-.426.15-.642s.05-.311.075-.471a2.282,2.282,0,0,0,.025-.266c.07-1.209,0-2.418.03-3.626s0-2.423,0-3.636v.025l.125.105a5.02,5.02,0,0,0,.622.446c.2.12.4.226.6.326a8.734,8.734,0,0,0,1.113.416c.271.08.552.15.833.206s.431.08.647.105c.13,0,.261.03.4.04h.261c.05,0,.055,0,.055-.055V85.57h0a1.224,1.224,0,0,0,.236.045c.12,0,.246.035.366.045a.714.714,0,0,0,.156,0c.05,0,.035,0,.035.04h0C331.909,86.819,331.9,87.907,331.909,88.991Z" transform="translate(-314.289 -79.907)" fill="#455a64"/>
        <path id="Path_1100" data-name="Path 1100" d="M319.352,89.514h-.637a7.376,7.376,0,0,0-.737.085,6.543,6.543,0,0,0-.808.2,5.346,5.346,0,0,0-.557.221,5.515,5.515,0,0,0-.807.451,3.739,3.739,0,0,0-.5.4,5.286,5.286,0,0,0-.5.466,5.212,5.212,0,0,0-.532.662,7.231,7.231,0,0,0-.5.873,7.053,7.053,0,0,0-.291.7,8.109,8.109,0,0,0-.276,1c-.03.166-.05.331-.07.5a7.107,7.107,0,0,0-.045,1,5.5,5.5,0,0,0,.045.572,5.89,5.89,0,0,0,.166.888,6.33,6.33,0,0,0,.311.9,5.867,5.867,0,0,0,.5.938c.045.07.1.14.135.216l-.13-.115a5.225,5.225,0,0,1-.607-.682,6.256,6.256,0,0,1-.5-.767,5.969,5.969,0,0,1-.446-1.063,6.088,6.088,0,0,1-.2-.833q-.035-.246-.06-.5a.908.908,0,0,0,0-.2V94.6a3.671,3.671,0,0,1,.045-.466,6.949,6.949,0,0,1,.461-1.74,6.692,6.692,0,0,1,.677-1.234,6.12,6.12,0,0,1,.381-.5,4.55,4.55,0,0,1,.5-.5,5.856,5.856,0,0,1,.943-.707,5.518,5.518,0,0,1,1.139-.5,4.956,4.956,0,0,1,.848-.2l.477-.06a5.6,5.6,0,0,1,.767,0,4.707,4.707,0,0,1,.6.05,1.37,1.37,0,0,0,.2,0c.04,0,.055,0,.055.06A4.358,4.358,0,0,0,319.352,89.514Z" transform="translate(-312.3 -81.454)" fill="#00a0df"/>
        <path id="Path_1101" data-name="Path 1101" d="M329.094,75.112h-2.548c-.06,0-.07,0-.07.07V88.328a3.039,3.039,0,0,1-.04.6,4.73,4.73,0,0,1-.14.752,1.5,1.5,0,0,1-.15.311,2.98,2.98,0,0,1-.542.682,2.738,2.738,0,0,1-1.334.667l-.311.04h-.306a2.829,2.829,0,0,1-1.038-.216,2.6,2.6,0,0,1-.667-.386,2.1,2.1,0,0,1-.537-.657l.125.07a2.97,2.97,0,0,0,1.61.341,2.774,2.774,0,0,0,1.073-.3,2.7,2.7,0,0,0,.5-.346,2.773,2.773,0,0,0,.6-.7,1.685,1.685,0,0,0,.261-.687l.075-.5V74.315s0-.04.035-.035H328.9c.085,0,.085,0,.085.08a3.933,3.933,0,0,0,.065.687.287.287,0,0,1,.04.065Z" transform="translate(-316.841 -74.279)" fill="#00a0df"/>
        <path id="Path_1102" data-name="Path 1102" d="M323.639,91.117v2.869c0,.07,0,.07-.07.055a1.723,1.723,0,0,0-.226,0h-.331a3.566,3.566,0,0,0-.863.08,2.694,2.694,0,0,0-1.229.6,2.507,2.507,0,0,0-.562.712,2.733,2.733,0,0,0-.271.757q-.03.166-.045.331a3.007,3.007,0,0,0,0,.426,2.658,2.658,0,0,0,.07.5l.03.13a5.32,5.32,0,0,0,.221.577h0a1.568,1.568,0,0,1-.226-.145,2.146,2.146,0,0,1-.226-.2,2.212,2.212,0,0,1-.471-.757,3.554,3.554,0,0,1-.14-.5,2.807,2.807,0,0,1-.05-.406V95.9a3.324,3.324,0,0,1,.135-.858,2.662,2.662,0,0,1,.4-.8,2.463,2.463,0,0,1,.727-.657,2.849,2.849,0,0,1,.843-.336,3.515,3.515,0,0,1,.391-.06,3.628,3.628,0,0,1,.617,0,2.453,2.453,0,0,1,.426.04c.06,0,.07,0,.07-.06V90.35h0a.25.25,0,0,0,.085,0,4.409,4.409,0,0,1,.572.055.761.761,0,0,0,.105,0c.035,0,.04,0,.04.045Z" transform="translate(-315.764 -82.289)" fill="#455a64"/>
        <path id="Path_1103" data-name="Path 1103" d="M338.458,79.065h0a.421.421,0,0,1-.12-.08,4.786,4.786,0,0,1-.527-.532,4.6,4.6,0,0,1-.612-.968,5.107,5.107,0,0,1-.381-1.078c-.035-.135-.06-.271-.09-.406h0a.1.1,0,0,1,0-.04h.682c.03,0,.04,0,.04.04a3.323,3.323,0,0,0,.045.592,6.138,6.138,0,0,0,.206.948,5.475,5.475,0,0,0,.311.8,2.246,2.246,0,0,0,.125.246h0a3.792,3.792,0,0,0,.316.476h0Z" transform="translate(-324.475 -75.117)" fill="#263238"/>
        <path id="Path_1104" data-name="Path 1104" d="M343.049,83.153v.7h0a4.543,4.543,0,0,1-.5-.12,4.733,4.733,0,0,1-.848-.336,4.093,4.093,0,0,1-.747-.5,3.064,3.064,0,0,1-.351-.321l-.05-.055a3.125,3.125,0,0,1-.321-.4h0l.176.125h.025a4.293,4.293,0,0,0,.662.371,4.014,4.014,0,0,0,.461.186,5.448,5.448,0,0,0,.878.211,6.067,6.067,0,0,0,.607.065A.443.443,0,0,1,343.049,83.153Z" transform="translate(-326.221 -78.187)" fill="#00a0df"/>
      </g>
      <circle id="Ellipse_75" data-name="Ellipse 75" cx="23.824" cy="23.824" r="23.824" transform="matrix(0.236, -0.972, 0.972, 0.236, 58.046, 94.613)" fill="#37474f"/>
      <path id="Path_1105" data-name="Path 1105" d="M226.53,173.613c.662-2.377,1.244-4.584,1.9-6.771a2.453,2.453,0,0,0-.181-1.956,15.287,15.287,0,1,1,29.086-6.325,15.408,15.408,0,0,1-14.465,14.726,16.411,16.411,0,0,1-7.574-1.445,2.438,2.438,0,0,0-1.455-.11C231.46,172.3,229.1,172.935,226.53,173.613Zm3.707-3.6c1.5-.391,2.784-.762,4.083-1.033a2.177,2.177,0,0,1,1.344.176,13.627,13.627,0,0,0,6.149,1.595c7.87.135,14.209-7.172,12.71-14.836a11.918,11.918,0,0,0-9.555-9.981,12.125,12.125,0,0,0-13.256,4.96c-3.19,4.364-3.275,9.058-.667,13.813a2.347,2.347,0,0,1,.191,1.5c-.241,1.214-.622,2.413-1,3.792Z" transform="translate(-154.915 -81.324)" fill="#fff"/>
      <path id="Path_1106" data-name="Path 1106" d="M242.988,160.1c1.038-1.4,2.428-1.124,3.155.421.286.607.351.808.632,1.5a1.87,1.87,0,0,1-.421,2.413.964.964,0,0,0-.12,1.48,10.764,10.764,0,0,0,4.634,3.917,1,1,0,0,0,1.4-.316c1.344-1.6,1.364-1.585,3.26-.692l.652.311a1.779,1.779,0,0,1,.5,3.16,4.263,4.263,0,0,1-4.278,1.038,15.524,15.524,0,0,1-9.274-7.047,5.853,5.853,0,0,1-1.164-3.461,5.091,5.091,0,0,1,1.018-2.729Z" transform="translate(-162.61 -89.376)" fill="#fff"/>
      <circle id="Ellipse_76" data-name="Ellipse 76" cx="11.29" cy="11.29" r="11.29" transform="translate(0 58.624) rotate(-22.18)" fill="#455a64"/>
      <g id="freepik--xsrjP0--inject-8" transform="translate(6.607 56.191)">
        <path id="Path_1107" data-name="Path 1107" d="M108.445,145.663a1.793,1.793,0,0,0-1.078-.471c-.176,0-.135-.125-.14-.216V139.89a.276.276,0,0,1,.14-.291c1.294-.657,1.851-1.941,2.638-3.039a5.071,5.071,0,0,0,.928-3.847.5.5,0,0,1,.461-.632.843.843,0,0,1,.968.3,6.741,6.741,0,0,1,.747,2.217,7.644,7.644,0,0,1-.231,1.9c-.055.466-.161.928-.251,1.4.115.08.246.04.371.04h4.293c.6,0,.9.171,1,.572a1.149,1.149,0,0,1-.652,1.229c-.105.055-.3,0-.311.176s.186.15.286.221a.905.905,0,0,1-.171,1.5c-.145.1-.426.055-.431.266s.261.171.376.286a.968.968,0,0,1-.406,1.5,2.233,2.233,0,0,0-.256.1c-.07.05-.14.105,0,.2a.843.843,0,0,1,0,1.5l-.191.135a1.2,1.2,0,0,1-.752.166h-6.731A.792.792,0,0,1,108.445,145.663Z" transform="translate(-102.054 -132.031)" fill="#fff" fill-rule="evenodd"/>
        <path id="Path_1108" data-name="Path 1108" d="M96.92,149.771v-3.23c0-.216,0-.326.291-.321h3.937c.256,0,.3.085.3.316v6.52c0,.276-.07.356-.346.351H97.276c-.316,0-.361-.105-.356-.381C96.96,151.923,96.925,150.849,96.92,149.771Z" transform="translate(-96.919 -139.103)" fill="#fff" fill-rule="evenodd"/>
      </g>
      <circle id="Ellipse_77" data-name="Ellipse 77" cx="5.653" cy="5.653" r="5.653" transform="translate(62.753 98.999)" fill="#00a0df"/>
      <g id="freepik--K0pxJE--inject-8" transform="translate(64.333 100.722)">
        <path id="Path_1109" data-name="Path 1109" d="M215.987,220.817a2.367,2.367,0,0,1,1.46.411,2.062,2.062,0,0,1,.752,1.048,1.972,1.972,0,0,1,.07.456,6.371,6.371,0,0,1,0,.692c0,.191-.025.381-.035.572,0,.08,0,.09.075.125a.5.5,0,0,0,.336,0,1,1,0,0,0,.171-.07.4.4,0,0,1,.426.09.191.191,0,0,1,0,.266.813.813,0,0,1-.326.2c-.1.035-.2.06-.291.105a1.11,1.11,0,0,0-.171.09.371.371,0,0,0-.135.431,2.206,2.206,0,0,0,.276.542,2.623,2.623,0,0,0,.8.808,2.006,2.006,0,0,0,.687.266.09.09,0,0,1,.075.14.321.321,0,0,1-.161.156,1.972,1.972,0,0,1-.532.186l-.311.055a.135.135,0,0,0-.11.1c-.035.105-.05.221-.08.331s-.065.14-.186.125-.291-.05-.436-.065a1.374,1.374,0,0,0-1,.276,4.813,4.813,0,0,1-.466.321,1.59,1.59,0,0,1-.853.206,1.665,1.665,0,0,1-.908-.316c-.156-.11-.3-.226-.466-.321a1.093,1.093,0,0,0-.5-.161,2.417,2.417,0,0,0-.712.06h0c-.166,0-.186,0-.221-.135s-.045-.191-.065-.286a.15.15,0,0,0-.145-.13,2.769,2.769,0,0,1-.772-.216.5.5,0,0,1-.125-.08.221.221,0,0,1-.085-.115.085.085,0,0,1,.075-.125,1.941,1.941,0,0,0,.5-.176,2.307,2.307,0,0,0,.818-.687,3.008,3.008,0,0,0,.4-.657.541.541,0,0,0,.05-.176.371.371,0,0,0-.181-.371,1.094,1.094,0,0,0-.311-.14,1.149,1.149,0,0,1-.371-.176.377.377,0,0,1-.08-.075.186.186,0,0,1,.03-.281.351.351,0,0,1,.386-.05.692.692,0,0,0,.361.09.356.356,0,0,0,.2-.055.05.05,0,0,0,.03-.06c0-.261-.03-.527-.04-.787a4.586,4.586,0,0,1,0-.587,1.71,1.71,0,0,1,.085-.451,2.056,2.056,0,0,1,1.264-1.259A2.116,2.116,0,0,1,215.987,220.817Z" transform="translate(-212.01 -220.814)" fill="#fff"/>
      </g>
      <circle id="Ellipse_78" data-name="Ellipse 78" cx="5.653" cy="5.653" r="5.653" transform="translate(105.642 52.293)" fill="#455a64"/>
      <circle id="Ellipse_79" data-name="Ellipse 79" cx="1.881" cy="1.881" r="1.881" transform="translate(109.419 53.928)" fill="#fff"/>
      <path id="Path_1110" data-name="Path 1110" d="M305.66,138.385v.692h-6.52v-.687a3.26,3.26,0,0,1,6.52,0Z" transform="translate(-191.106 -77.385)" fill="#fff"/>
      <path id="Path_1111" data-name="Path 1111" d="M136.346,105.126a17.465,17.465,0,0,0,29.2,11.035l8.742,1.284-4.374-7.559a17.475,17.475,0,1,0-33.565-4.775Z" transform="translate(-109.917 -52.808)" fill="#455a64"/>
      <path id="Path_1112" data-name="Path 1112" d="M141.6,90.535a17.425,17.425,0,0,1,14.641-4.86,17.635,17.635,0,0,1,7.458,2.8,17.891,17.891,0,0,1,5.472,5.808,17.65,17.65,0,0,1,1.083,15.594v-.3l4.349,7.574.321.557-.632-.1-8.732-1.339.206-.065a17.61,17.61,0,0,1-8.647,4.268,15.048,15.048,0,0,1-2.418.251,17.515,17.515,0,0,1-11.345-3.511,18.851,18.851,0,0,1-1.846-1.56,20.2,20.2,0,0,1-1.585-1.821,17.555,17.555,0,0,1,1.705-23.293Z" transform="translate(-109.938 -52.652)" fill="#00a0df"/>
      <path id="Path_1113" data-name="Path 1113" d="M151.67,119.637a2.117,2.117,0,1,0,2.117-2.117,2.117,2.117,0,0,0-2.117,2.117Z" transform="translate(-117.602 -68.607)" fill="#263238"/>
      <path id="Path_1114" data-name="Path 1114" d="M166.78,119.637a2.117,2.117,0,1,0,2.117-2.117,2.117,2.117,0,0,0-2.117,2.117Z" transform="translate(-125.133 -68.607)" fill="#263238"/>
      <path id="Path_1115" data-name="Path 1115" d="M181.9,119.637a2.117,2.117,0,1,0,2.117-2.117,2.117,2.117,0,0,0-2.117,2.117Z" transform="translate(-132.67 -68.607)" fill="#263238"/>
      <path id="Path_1116" data-name="Path 1116" d="M385.076,100.383a11.23,11.23,0,0,1-18.769,7.1l-5.618.823,2.814-4.855a11.12,11.12,0,0,1-.772-5.407,11.234,11.234,0,1,1,22.347,2.337Z" transform="translate(-221.784 -53.883)" fill="#455a64"/>
      <path id="Path_1117" data-name="Path 1117" d="M384.732,100.272a11.37,11.37,0,0,1-2.267,5.693,13.278,13.278,0,0,1-1,1.169,12.627,12.627,0,0,1-1.189,1,10.843,10.843,0,0,1-2.708,1.5,11.145,11.145,0,0,1-3.009.722,10.791,10.791,0,0,1-1.56.03,10.151,10.151,0,0,1-1.555-.161,11.341,11.341,0,0,1-5.557-2.744l.135.04-5.613.863-.406.06.206-.356,2.794-4.87v.191a11.345,11.345,0,1,1,21.778-3.15Z" transform="translate(-221.44 -53.772)" fill="#455a64"/>
      <path id="Path_1118" data-name="Path 1118" d="M396.818,109.709a1.359,1.359,0,1,1-1.359-1.359,1.359,1.359,0,0,1,1.359,1.359Z" transform="translate(-238.437 -64.037)" fill="#fff"/>
      <path id="Path_1119" data-name="Path 1119" d="M387.1,109.709a1.359,1.359,0,1,1-1.359-1.359A1.359,1.359,0,0,1,387.1,109.709Z" transform="translate(-233.592 -64.037)" fill="#fff"/>
      <path id="Path_1120" data-name="Path 1120" d="M377.388,109.709a1.359,1.359,0,1,1-1.359-1.359A1.359,1.359,0,0,1,377.388,109.709Z" transform="translate(-228.752 -64.037)" fill="#fff"/>
      <circle id="Ellipse_80" data-name="Ellipse 80" cx="11.29" cy="11.29" r="11.29" transform="translate(35.979 8.883)" fill="#00a0df"/>
      <g id="Group_706" data-name="Group 706" transform="translate(46.271 14.766)" opacity="0.5">
        <path id="Path_1121" data-name="Path 1121" d="M183.854,51.727a2.292,2.292,0,1,1-2.292-2.287,2.292,2.292,0,0,1,2.292,2.287Z" transform="translate(-177.63 -49.44)"/>
        <path id="Path_1122" data-name="Path 1122" d="M183.89,62.647v.838H176v-.838a3.957,3.957,0,0,1,7.915,0Z" transform="translate(-176 -54.05)"/>
      </g>
      <path id="Path_1123" data-name="Path 1123" d="M172.164,54.477a2.292,2.292,0,1,1-2.292-2.287,2.292,2.292,0,0,1,2.292,2.287Z" transform="translate(-125.532 -36.045)" fill="#fff"/>
      <path id="Path_1124" data-name="Path 1124" d="M172.15,65.532v.838h-7.9v-.838a3.962,3.962,0,0,1,7.92,0Z" transform="translate(-123.872 -40.79)" fill="#fff"/>
      <circle id="Ellipse_81" data-name="Ellipse 81" cx="5.653" cy="5.653" r="5.653" transform="translate(99.746 103.764) rotate(-76.65)" fill="#455a64"/>
      <path id="Path_1125" data-name="Path 1125" d="M290.851,216.856h-.456a.519.519,0,0,1,0-1.038h.642l.3-1.745h-.582a.519.519,0,1,1,0-1.038h.767l.2-1.194a.5.5,0,0,1,.5-.431.537.537,0,0,1,.5.612l-.181,1h1.57l.2-1.194a.5.5,0,0,1,.532-.431.527.527,0,0,1,.5.612l-.171,1h.461a.519.519,0,0,1,0,1.038h-.642l-.3,1.745h.572a.5.5,0,0,1,0,1h-.752l-.211,1.229a.5.5,0,0,1-.5.431.527.527,0,0,1-.5-.607l.191-1.053h-1.54l-.211,1.229a.522.522,0,1,1-1.028-.176Zm2.819-1.038.3-1.745h-1.565l-.3,1.745Z" transform="translate(-186.488 -115.399)" fill="#fff"/>
      <circle id="Ellipse_82" data-name="Ellipse 82" cx="5.653" cy="5.653" r="5.653" transform="translate(23.342 23.798) rotate(-12.31)" fill="#37474f"/>
      <path id="Path_1126" data-name="Path 1126" d="M139.552,68.621a3.737,3.737,0,1,0,.878,7.423,3.512,3.512,0,0,0,.893-.226.3.3,0,0,0,.191-.416.246.246,0,0,0-.125-.171.351.351,0,0,0-.286,0,2.724,2.724,0,0,1-.747.171,3.075,3.075,0,1,1,2.688-3.421,2.9,2.9,0,0,1-.176,1.434,1,1,0,0,1-.5.557h-.2a1.133,1.133,0,0,1-.09-.2c-.085-.361-.176-1.5-.176-1.5v-.135a1.936,1.936,0,1,0-1.67,2.262,1.826,1.826,0,0,0,1.2-.667V73.9a.943.943,0,0,0,.246.5.782.782,0,0,0,.687.236,1.122,1.122,0,0,0,.221-.05,1.745,1.745,0,0,0,.868-.9h0a3.662,3.662,0,0,0,.191-1.74,3.737,3.737,0,0,0-4.093-3.33Zm.587,5.056a1.294,1.294,0,0,1-1.4-1.2,1.314,1.314,0,0,1,1.083-1.5,1.339,1.339,0,0,1,1.414,1.209A1.319,1.319,0,0,1,140.139,73.677Z" transform="translate(-109.918 -44.225)" fill="#fff"/>
    </g>
    <g id="freepik--Character--inject-8" transform="translate(97.798 154.97)">
      <path id="Path_1127" data-name="Path 1127" d="M149.9,430.8c.366-1.043,19.471-25.224,20.75-25.67.15-.06,8.336,6.019,8.336,6.019.336.461,16.206-2.548,16.206-2.548l-.241,19.06-28.77-1.214s-3.932,2.207-7.524,4.012h0a43.689,43.689,0,0,1-4.725,2.172C152.465,432.967,149.521,431.833,149.9,430.8Z" transform="translate(-149.692 -346.93)" fill="#ad6359"/>
      <path id="Path_1128" data-name="Path 1128" d="M153.892,432.656a41.247,41.247,0,0,0,4.725-2.177h0c3.591-1.791,7.524-4.013,7.524-4.013l6.405.271,10.362-15.97a15.731,15.731,0,0,1-3.962.391s-8.186-6.084-8.331-6.019c-1.284.446-20.389,24.627-20.755,25.665S152.447,432.977,153.892,432.656Z" transform="translate(-149.674 -346.935)" fill="#fff"/>
      <path id="Path_1129" data-name="Path 1129" d="M149.556,430.822c.386-1.068,19.561-25.234,20.89-25.69.5-.176,4.514,2.418,8.366,6.019L166.423,426.7s-11.25,5.663-12.745,6.019S149.164,431.89,149.556,430.822Z" transform="translate(-149.521 -346.927)" fill="#00a0df"/>
      <path id="Path_1130" data-name="Path 1130" d="M151.967,432.84c3.315-3.967,16.316-20.3,19.3-24.482,0-.035,0-.05-.025,0-3.376,3.867-16.241,20.3-19.335,24.451C151.837,432.875,151.9,432.925,151.967,432.84Z" transform="translate(-150.694 -348.524)" fill="#263238"/>
      <path id="Path_1131" data-name="Path 1131" d="M161.451,452.643a4.158,4.158,0,0,0,.938-3.21,4.043,4.043,0,0,0-1.445-2.623c-.025,0-.06.03-.04.05a4.8,4.8,0,0,1,.5,5.743C161.381,452.638,161.451,452.673,161.451,452.643Z" transform="translate(-155.192 -367.705)" fill="#263238"/>
      <path id="Path_1132" data-name="Path 1132" d="M180.2,444.04a7.235,7.235,0,0,0,1.705-6.019c0-.08-.135-.05-.15,0A28.589,28.589,0,0,1,180,443.909a.13.13,0,0,0,.2.13Z" transform="translate(-164.711 -363.3)" fill="#263238"/>
      <path id="Path_1133" data-name="Path 1133" d="M177.213,445.76a7.219,7.219,0,0,0,1.705-6.019c0-.08-.13-.05-.145,0a28.735,28.735,0,0,1-1.781,5.888.13.13,0,0,0,.221.13Z" transform="translate(-163.21 -364.157)" fill="#263238"/>
      <path id="Path_1134" data-name="Path 1134" d="M174.249,447.5a7.2,7.2,0,0,0,1.705-5.994c0-.08-.135-.05-.15,0a28.409,28.409,0,0,1-1.776,5.848.132.132,0,0,0,.221.145Z" transform="translate(-161.725 -365.039)" fill="#263238"/>
      <path id="Path_1135" data-name="Path 1135" d="M171.307,449.21a7.219,7.219,0,0,0,1.705-6.019c0-.08-.13-.05-.145,0a28.56,28.56,0,0,1-1.781,5.9.13.13,0,0,0,.221.12Z" transform="translate(-160.268 -365.877)" fill="#263238"/>
      <path id="Path_1136" data-name="Path 1136" d="M193.348,413.642a1.806,1.806,0,0,0-2.834-2.237A1.806,1.806,0,0,0,193.348,413.642Z" transform="translate(-169.754 -349.72)" fill="#263238"/>
      <path id="Path_1137" data-name="Path 1137" d="M183.781,452.757c1.334-.281,1.5-1.841,1.184-2.909a10.834,10.834,0,0,0-2.974-4.765.055.055,0,0,0-.09,0,.251.251,0,0,0-.361.186c-.115,1.791-.466,3.687-.03,5.457C181.759,451.774,182.522,453.023,183.781,452.757Zm-1.866-4.72c.035-.883.115-1.755.12-2.638a32.661,32.661,0,0,1,1.675,2.824,11.728,11.728,0,0,1,.627,1.46c.256.777.346,3.446-1.545,2.207C181.749,451.2,181.87,449.081,181.915,448.037Z" transform="translate(-165.358 -366.831)" fill="#263238"/>
      <path id="Path_1138" data-name="Path 1138" d="M184.87,435.223a18.007,18.007,0,0,0-2.974,4.569.251.251,0,0,0,.2.356.055.055,0,0,0,.065.06,10.869,10.869,0,0,0,5.111-2.337c.843-.722,1.57-2.112.612-3.08S185.653,434.5,184.87,435.223Zm1.7-.246c2.262,0,.717,2.182.075,2.688a11.641,11.641,0,0,1-1.324.878,32.023,32.023,0,0,1-2.954,1.429c.5-.737.9-1.5,1.354-2.267C184.263,436.807,185.327,434.972,186.571,434.977Z" transform="translate(-165.646 -361.475)" fill="#263238"/>
      <path id="Path_1139" data-name="Path 1139" d="M218.9,398.613l13-1s18.739-5.432,29.593-2.588c12.419,3.26,14.169,17.766,1.545,23.574-12.489,5.753-67.466,3.631-67.466,3.631l11.787-17.455s18.1-4.248,33.946-3.386l-22.435,2.583Z" transform="translate(-172.473 -341.482)" fill="#37474f"/>
      <path id="Path_1140" data-name="Path 1140" d="M242.207,408.566c1.931-.316,3.882-.477,5.833-.657s3.932-.321,5.9-.446c3.927-.246,7.87-.326,11.8-.181l1.1.06a1.939,1.939,0,0,1,.246-.055c.186-.04.376-.085.567-.12.356-.06.717-.1,1.073-.15.747-.1,1.5-.161,2.237-.286a.035.035,0,1,1,0,.07c-.747.15-1.5.351-2.232.5l-.647.125c1.44.105,2.879.246,4.313.406.045,0,.045.075,0,.07-1.956-.156-3.927-.211-5.888-.216s-3.9,0-5.843.065c-3.942.14-7.88.411-11.807.742-2.2.186-4.414.411-6.626.456A.2.2,0,0,1,242.207,408.566Z" transform="translate(-195.647 -347.728)" fill="#263238"/>
      <path id="Path_1141" data-name="Path 1141" d="M206.7,431.945c.722-1.108,1.349-2.3,2.006-3.446l2.006-3.451c1.339-2.292,6.144-10,6.616-10.533a.045.045,0,0,1,.075.045c-.236.6-3.24,5.708-3.927,6.846-1.384,2.277-2.834,4.514-4.263,6.751-.406.642-.828,1.274-1.244,1.916s-.848,1.264-1.234,1.916C206.737,432.026,206.672,431.985,206.7,431.945Z" transform="translate(-178.018 -351.602)" fill="#263238"/>
      <path id="Path_1142" data-name="Path 1142" d="M290.825,436.858c-.316-1.058-18.257-26.117-19.516-26.628-.14-.065-8.612,5.633-8.612,5.633-.351.446-16.05-3.31-16.05-3.31l-.667,19.06,28.795.156s3.827,2.387,7.333,4.344h0a41.386,41.386,0,0,0,4.619,2.392C288.157,438.9,291.131,437.911,290.825,436.858Z" transform="translate(-197.599 -349.472)" fill="#ad6359"/>
      <path id="Path_1143" data-name="Path 1143" d="M299.442,438.5a41.032,41.032,0,0,1-4.614-2.392h0c-3.511-1.956-7.333-4.349-7.333-4.349l-6.405-.03-9.6-16.446a15.509,15.509,0,0,0,3.942.582s8.461-5.693,8.607-5.623c1.259.5,19.195,25.58,19.516,26.623S300.872,438.909,299.442,438.5Z" transform="translate(-210.314 -349.477)" fill="#fff"/>
      <path id="Path_1144" data-name="Path 1144" d="M307.609,436.892c-.336-1.083-18.362-26.132-19.651-26.653-.5-.2-4.619,2.2-8.647,5.623l11.641,16.13S301.921,438.2,303.4,438.6,307.945,437.98,307.609,436.892Z" transform="translate(-214.212 -349.471)" fill="#00a0df"/>
      <path id="Path_1145" data-name="Path 1145" d="M315.217,438.867c-3.125-4.123-15.338-21.066-18.117-25.369,0-.035,0-.05.03,0,3.185,4.013,15.258,21.066,18.152,25.334C315.342,438.907,315.282,438.958,315.217,438.867Z" transform="translate(-223.079 -351.085)" fill="#263238"/>
      <path id="Path_1146" data-name="Path 1146" d="M322.387,459.113a4.143,4.143,0,0,1-.782-3.25,4.013,4.013,0,0,1,1.565-2.553s.06.03.035.05a4.8,4.8,0,0,0-.767,5.713C322.457,459.108,322.412,459.143,322.387,459.113Z" transform="translate(-235.26 -370.945)" fill="#263238"/>
      <path id="Path_1147" data-name="Path 1147" d="M303.626,449.561a7.2,7.2,0,0,1-1.419-6.069c.025-.08.135-.045.145,0a28.737,28.737,0,0,0,1.5,5.924.136.136,0,1,1-.231.145Z" transform="translate(-225.517 -366.028)" fill="#263238"/>
      <path id="Path_1148" data-name="Path 1148" d="M306.5,451.423a7.2,7.2,0,0,1-1.419-6.069c0-.08.135-.045.145.025a28.865,28.865,0,0,0,1.5,5.929.13.13,0,0,1-.231.115Z" transform="translate(-226.948 -366.957)" fill="#263238"/>
      <path id="Path_1149" data-name="Path 1149" d="M309.376,453.288a7.215,7.215,0,0,1-1.419-6.074c0-.08.135-.045.145.025a28.867,28.867,0,0,0,1.5,5.929.13.13,0,0,1-.231.12Z" transform="translate(-228.383 -367.884)" fill="#263238"/>
      <path id="Path_1150" data-name="Path 1150" d="M312.236,455.148a7.215,7.215,0,0,1-1.419-6.074c.025-.08.135-.045.145.025a28.865,28.865,0,0,0,1.5,5.929.13.13,0,0,1-.231.12Z" transform="translate(-229.809 -368.811)" fill="#263238"/>
      <path id="Path_1151" data-name="Path 1151" d="M290.343,418.556a1.805,1.805,0,0,1,2.934-2.1A1.805,1.805,0,0,1,290.343,418.556Z" transform="translate(-219.538 -352.201)" fill="#263238"/>
      <path id="Path_1152" data-name="Path 1152" d="M300.061,456.256a18.552,18.552,0,0,0,.226-5.452.251.251,0,0,0-.351-.206.055.055,0,0,0-.085,0,10.883,10.883,0,0,0-3.2,4.619c-.356,1.053-.271,2.618,1.043,2.964S299.745,457.275,300.061,456.256Zm-1.319,1.078c-1.951,1.149-1.73-1.5-1.439-2.277a11.03,11.03,0,0,1,.692-1.429c.532-.963,1.189-1.836,1.806-2.739-.035.883,0,1.76,0,2.638C299.775,454.581,299.8,456.7,298.742,457.335Z" transform="translate(-222.765 -369.583)" fill="#263238"/>
      <path id="Path_1153" data-name="Path 1153" d="M292.006,439.817c-1,.923-.341,2.347.466,3.1a10.834,10.834,0,0,0,5.016,2.578.05.05,0,0,0,.065-.055.251.251,0,0,0,.216-.346,18.175,18.175,0,0,0-2.759-4.71C294.258,439.631,292.954,438.949,292.006,439.817Zm4.013,3.11c.416.777.8,1.57,1.244,2.332a32.074,32.074,0,0,1-2.884-1.57,12.36,12.36,0,0,1-1.284-.938c-.617-.542-2.056-2.784.206-2.688,1.249.055,2.227,1.941,2.723,2.864Z" transform="translate(-220.288 -364.017)" fill="#263238"/>
      <path id="Path_1154" data-name="Path 1154" d="M197.89,397.851l-12.915-.341s-13.337-6.856-24.291-4.514c-12.539,2.668-14.545,18.3-5.387,24.075,11.626,7.328,64.231,7.368,64.231,7.368l-10.854-19.561s-17.389-4.143-33.259-4.013l22.29,3.641Z" transform="translate(-149.569 -340.639)" fill="#37474f"/>
      <path id="Path_1155" data-name="Path 1155" d="M227.236,413.086a.356.356,0,0,1,0-.1v-.08l-.045-.191a3.722,3.722,0,0,0-.12-.381c-.045-.125-.1-.246-.15-.371a2.726,2.726,0,0,0-.206-.346h-.09c-1.911-.406-14.927-2.623-16.863-2.9s-3.912-.5-5.873-.727c-3.907-.431-7.845-.7-11.782-.737H191l-.241-.065-.562-.145c-.356-.075-.712-.135-1.068-.2-.737-.135-1.5-.231-2.222-.391-.04,0-.06.06,0,.07.737.186,1.465.421,2.2.6l.642.15c-1.445.04-2.884.115-4.329.206a.035.035,0,0,0,0,.07c1.961-.06,3.932,0,5.893.06s3.892.181,5.833.341c3.927.331,7.85.787,11.757,1.3,2.192.286,15.463,2.583,17.67,2.739h.025a.38.38,0,0,0,.06.15c.025.05.115.241.176.361s.12.231.186.341l.105.161.055.08a.82.82,0,0,1,.055.085C227.186,413.161,227.261,413.131,227.236,413.086Z" transform="translate(-167.399 -347.589)" fill="#263238"/>
      <path id="Path_1156" data-name="Path 1156" d="M271.074,435.792c-.672-1.149-1.239-2.362-1.851-3.541l-1.851-3.546c-1.229-2.352-5.668-10.282-6.109-10.839a.045.045,0,0,0-.075.045c.2.607,2.964,5.853,3.6,7.022,1.274,2.342,2.618,4.634,3.937,6.947.376.662.767,1.314,1.154,1.971s.787,1.3,1.139,1.976C271.033,435.867,271.124,435.832,271.074,435.792Z" transform="translate(-205.178 -353.271)" fill="#263238"/>
      <path id="Path_1157" data-name="Path 1157" d="M187.5,294.566l2.006,14.841c.105.441-.15.757-.562.712l-7.443-.853a1.224,1.224,0,0,1-.948-.888l-1.976-14.841c-.105-.441.145-.757.562-.712l7.443.853a1.214,1.214,0,0,1,.918.888Z" transform="translate(-163.991 -290.953)" fill="#37474f"/>
      <path id="Path_1158" data-name="Path 1158" d="M185.714,294.331l2.006,14.841c.105.441-.145.762-.562.712l-7.443-.853a1.224,1.224,0,0,1-.948-.888l-2-14.856c-.105-.441.145-.757.562-.712l7.443.858A1.2,1.2,0,0,1,185.714,294.331Z" transform="translate(-163.089 -290.828)" fill="#455a64"/>
      <path id="Path_1159" data-name="Path 1159" d="M190.407,296.354a.637.637,0,1,0,.692-.577A.637.637,0,0,0,190.407,296.354Z" transform="translate(-169.899 -292.424)" fill="#263238"/>
      <path id="Path_1160" data-name="Path 1160" d="M203.551,337.173c-5.166,8.527-15.99,19.11-19.877,19.486-1.866.181-5.221.256-7.443-2.142-4.84-5.236-8.351-14.646-8.722-19.857-.13-1.856,9.139-4.86,10.287-3.24,2.693,3.8,5.517,10.979,6.079,10.994,2.006.06,9.565-5.186,15.719-8.9C206.877,329.132,205.613,333.772,203.551,337.173Z" transform="translate(-158.486 -309.96)" fill="#ad6359"/>
      <path id="Path_1161" data-name="Path 1161" d="M169.06,309.071c1.329-3.6,2.222-4.314,1.73-7.945-.326-2.382,1.058-3.606,2.508-1.57,2.367,3.33,1.63,8.326.873,9.986Z" transform="translate(-159.26 -293.796)" fill="#ad6359"/>
      <path id="Path_1162" data-name="Path 1162" d="M167.491,321.358s-1.1-5.322-.07-9.294c.717-2.744,2.944-8.527,11.09-10.869,1.931-.552,5.071.035,2.247,2.082-2.006,1.455-3.727,1.766-4.74,2.824,0,0,3.912,1.219,4.389,3.175a37.4,37.4,0,0,1,.878,5.206,8.478,8.478,0,0,1-.958.251,6.006,6.006,0,0,1-1.2,4.238Z" transform="translate(-158.223 -295.028)" fill="#ad6359"/>
      <path id="Path_1163" data-name="Path 1163" d="M170.1,314.155a22.092,22.092,0,0,1,6.52-3.235c2.944-.742,8.808-1.374,9.334.8.381,1.6-1.836,2.036-1.836,2.036s2.478.246,2.508,1.766c.025,1.384-1.71,1.62-1.71,1.62s1.5.411,1.249,1.745c-.276,1.61-3.325.5-5.016,1.876C180.768,321.077,170.1,314.155,170.1,314.155Z" transform="translate(-159.778 -299.627)" fill="#ad6359"/>
      <path id="Path_1164" data-name="Path 1164" d="M183.6,317.272a12.113,12.113,0,0,1,7.187-.446c.06,0,.08.075.025.07a29.722,29.722,0,0,0-7.208.406S183.589,317.282,183.6,317.272Z" transform="translate(-166.506 -302.744)" fill="#263238"/>
      <path id="Path_1165" data-name="Path 1165" d="M185.255,323.448a13.45,13.45,0,0,1,7.2,0c.06,0,.075.075,0,.065a32.023,32.023,0,0,0-7.218,0Z" transform="translate(-167.324 -305.971)" fill="#263238"/>
      <path id="Path_1166" data-name="Path 1166" d="M215.514,346.843l-10.934-5.392s10.438-6.841,15.3-8.878c5.061-2.122,6.756-.963,2.613,5.016S215.514,346.843,215.514,346.843Z" transform="translate(-176.964 -310.277)" fill="#00a0df"/>
      <path id="Path_1167" data-name="Path 1167" d="M220.929,347.272l-.045.06a22.524,22.524,0,0,0-2.006-1.1,10.834,10.834,0,0,0-2.066-.787l-.161-.04-.221-.05a6.56,6.56,0,0,0-2.578-.06,7.472,7.472,0,0,0-2.006.722l-.145-.075a7.866,7.866,0,0,1,2.152-.762,6.6,6.6,0,0,1,2.623.075l.291.07.161.04a11.4,11.4,0,0,1,2.006.792A22.189,22.189,0,0,1,220.929,347.272Zm6.691-10.031A9.074,9.074,0,0,0,225.5,338.8a9.355,9.355,0,0,0-1.575,2.107,15.933,15.933,0,0,0-1.093,2.508.536.536,0,0,0-.035.1c-.261.747-.5,1.5-.732,2.262.085-.115.176-.231.261-.351.2-.632.4-1.264.617-1.886a.7.7,0,0,1,.03-.1,15.828,15.828,0,0,1,1.073-2.468,8.988,8.988,0,0,1,3.626-3.631l.181-.1.075-.17Zm-4.645,6.2h-.14a6.674,6.674,0,0,0-2.508.05,8.448,8.448,0,0,0-2.418,1.028,9.391,9.391,0,0,0-1.129.8l-.1.08a9.868,9.868,0,0,0-.823.767,11.748,11.748,0,0,0-1.053,1.294l.11.055a11.834,11.834,0,0,1,1.038-1.259,10.546,10.546,0,0,1,.888-.818l.1-.08a9.933,9.933,0,0,1,1.038-.732,8.183,8.183,0,0,1,2.377-1,6.521,6.521,0,0,1,2.458-.07h.145c.226.04.451.085.677.145l.065-.085c-.251-.06-.487-.11-.727-.15Z" transform="translate(-180.513 -313.007)" fill="#fff"/>
      <path id="Path_1168" data-name="Path 1168" d="M218.463,353.443a8.211,8.211,0,0,0-.772-.416l-.8-.416c-.537-.286-1.078-.557-1.62-.828-1.088-.542-2.172-1.083-3.27-1.605-.3-.145-.6-.286-.908-.421s-.647-.261-.968-.406c0,0-.03,0,0,.03.266.145.5.306.787.451s.542.291.818.431l1.63.808c1.073.527,2.147,1.053,3.23,1.555l.908.416c.316.146.632.311.963.431C218.463,353.478,218.478,353.453,218.463,353.443Z" transform="translate(-179.722 -319.128)" fill="#263238"/>
      <path id="Path_1169" data-name="Path 1169" d="M228.537,337.673c-4.163,6.019-6.977,9.259-6.977,9.259l-4.85-2.392,13.477-12.76C231.4,332.2,231.05,334.052,228.537,337.673Z" transform="translate(-183.01 -310.371)" opacity="0.1"/>
      <path id="Path_1170" data-name="Path 1170" d="M214.982,366.623c.446.527,30.4.181,30.561,0,.441-.5-4.795-26.327-10.056-34.207-1.776-2.658-7.423-3.2-9.394-.622C220.439,339.2,214.6,366.171,214.982,366.623Z" transform="translate(-182.14 -309.542)" fill="#00a0df"/>
      <path id="Path_1171" data-name="Path 1171" d="M242.339,349.089h0a9.44,9.44,0,0,1-1.906,1.364,10.216,10.216,0,0,1-2.448.943,7.929,7.929,0,0,1-2.618.186,10.16,10.16,0,0,1-2.558-.572,17.3,17.3,0,0,1-2.387-1.078c-.848-.461-1.665-.973-2.473-1.5l-.13-.085c-.612-.4-1.214-.813-1.821-1.219s-1.2-.813-1.811-1.209l-.12-.075c-.682-.436-1.374-.853-2.1-1.224a.5.5,0,0,1,.025-.08c.722.376,1.414.792,2.1,1.234l.12.08c.617.4,1.219.813,1.821,1.224s1.209.833,1.826,1.234a.964.964,0,0,0,.13.085l.216.145c.732.471,1.5.923,2.242,1.339a16.35,16.35,0,0,0,2.387,1.063,9.611,9.611,0,0,0,2.543.557,7.861,7.861,0,0,0,2.583-.2,10.033,10.033,0,0,0,2.418-.953,8.9,8.9,0,0,0,1.77-1.264.471.471,0,0,0,.09-.085.321.321,0,0,0,.075-.07c0,.025,0,.045,0,.07A.6.6,0,0,0,242.339,349.089ZM236.8,334.544a10.1,10.1,0,0,0-1.5-.246,2.312,2.312,0,0,0-.266,0,1.183,1.183,0,0,0-.191,0,7.432,7.432,0,0,0-2.157.206,9.947,9.947,0,0,0-2.448.948,9.073,9.073,0,0,0-2.117,1.555,9.353,9.353,0,0,0-1.575,2.107,15.933,15.933,0,0,0-1.093,2.508.539.539,0,0,0-.035.1c-.266.757-.5,1.53-.742,2.292-.186.592-.381,1.189-.6,1.776a.291.291,0,0,0-.025.07,12.038,12.038,0,0,1-1.5,2.874,8.024,8.024,0,0,1-1.45,1.5l-.125.1-.281.206a7.741,7.741,0,0,1-.7.431l-.06.216a9.212,9.212,0,0,0,.853-.5c.135-.1.266-.191.391-.3l.13-.105a8.393,8.393,0,0,0,1.364-1.434,11.984,11.984,0,0,0,1.5-2.889v-.065c.231-.6.426-1.209.622-1.811.246-.772.5-1.55.747-2.312a.7.7,0,0,1,.03-.1,15.829,15.829,0,0,1,1.073-2.468,8.988,8.988,0,0,1,3.626-3.631,9.736,9.736,0,0,1,2.418-.948,7.354,7.354,0,0,1,2.041-.226h.542a9.741,9.741,0,0,1,1.56.261Zm-.848-1.124a8.2,8.2,0,0,0-1.1.853l-.09.08q-.236.221-.451.451a9.413,9.413,0,0,0-1.5,2.172,26.451,26.451,0,0,0-1.655,4.976c-.165.6-.336,1.2-.537,1.8a.284.284,0,0,1,0,.07,11.627,11.627,0,0,1-1.394,2.939,8.21,8.21,0,0,1-1.369,1.545.136.136,0,0,1-.04.035c-.12.105-.241.206-.366.3a10.115,10.115,0,0,1-2.262,1.264,6.841,6.841,0,0,1-2.538.451,10.23,10.23,0,0,1-1.354-.12.489.489,0,0,1-.206-.03q-.421-.07-.843-.166l-.03.11c.246.055.5.11.747.155l.2.035a10.48,10.48,0,0,0,1.5.145,6.911,6.911,0,0,0,2.588-.446,9.851,9.851,0,0,0,2.267-1.279c.14-.105.276-.221.406-.336l.04-.035a8.3,8.3,0,0,0,1.359-1.545,11.761,11.761,0,0,0,1.4-2.944s0-.045,0-.07c.206-.607.376-1.224.547-1.836a25.931,25.931,0,0,1,1.64-4.95,9.326,9.326,0,0,1,1.46-2.147,6.083,6.083,0,0,1,.542-.537.4.4,0,0,1,.09-.075,7.827,7.827,0,0,1,1-.782.647.647,0,0,0-.055-.06Zm6.39,15.649v-.075h-.165a9.886,9.886,0,0,1-2.563-.446,17.433,17.433,0,0,1-2.428-.958q-1.174-.577-2.3-1.244c-.752-.446-1.5-.908-2.232-1.374-.617-.386-1.239-.772-1.871-1.144a1.135,1.135,0,0,0-.13-.08,25.431,25.431,0,0,0-2.568-1.339,10.668,10.668,0,0,0-2.463-.782h-.14a6.642,6.642,0,0,0-2.438.035c0,.045-.035.085-.05.13a6.52,6.52,0,0,1,2.453-.07h.145a10.914,10.914,0,0,1,2.458.767,25.1,25.1,0,0,1,2.583,1.329l.13.08c.627.366,1.244.742,1.861,1.124,1.5.913,2.964,1.846,4.539,2.618a16.767,16.767,0,0,0,2.433.978,9.9,9.9,0,0,0,2.563.461h.211l-.025.01Zm1.961,7.523a9.27,9.27,0,0,0-2.262,1.159,26.166,26.166,0,0,0-3.852,3.556c-.431.446-.873.893-1.334,1.319l-.055.05a11.826,11.826,0,0,1-2.643,1.9,8.187,8.187,0,0,1-2.458.788h-.06a10.19,10.19,0,0,1-2.533,0,6.562,6.562,0,0,1-1.961-.587l-.171-.08-.306-.16a11.876,11.876,0,0,1-2.087-1.555c-1.113-1-2.127-2.117-3.275-3.09l-.08-.07c-.161-.135-.326-.266-.5-.4a10.032,10.032,0,0,0-2.252-1.339l-.326-.125-.065-.025v.04h0l.361.145a10.206,10.206,0,0,1,2.227,1.354l.471.381.08.07c1.139,1,2.152,2.107,3.265,3.13a11.964,11.964,0,0,0,2.1,1.58l.226.12.171.085a6.66,6.66,0,0,0,2.087.657,9.848,9.848,0,0,0,2.633,0h.055a8.408,8.408,0,0,0,2.443-.8,11.834,11.834,0,0,0,2.648-1.9l.055-.05c.471-.436.923-.893,1.359-1.349a26.334,26.334,0,0,1,3.827-3.541,9.4,9.4,0,0,1,2.222-1.139q0-.065-.005-.13Zm-5.016,10.347c-.446-.752-.868-1.5-1.294-2.277-.356-.637-.712-1.279-1.083-1.906l-.075-.13a24.976,24.976,0,0,0-1.61-2.418,10.532,10.532,0,0,0-1.5-1.65.6.6,0,0,0-.105-.1l-.181-.155a6.645,6.645,0,0,0-2.312-1.234,8.355,8.355,0,0,0-2.613-.266,9.644,9.644,0,0,0-2.588.461,8.7,8.7,0,0,0-.853.316.542.542,0,0,0-.14.055,18.806,18.806,0,0,0-3.611,2.127l-.1.07-.065.045a38.413,38.413,0,0,1-4.168,2.814h-.025a.327.327,0,0,1,0,.065.085.085,0,0,1,0,.035h.025l.06-.03a39.207,39.207,0,0,0,4.213-2.814l.065-.045.075-.055a18.594,18.594,0,0,1,3.707-2.142l.135-.055c.241-.1.5-.186.737-.261a10.119,10.119,0,0,1,2.558-.456,8.212,8.212,0,0,1,2.573.246,6.521,6.521,0,0,1,2.282,1.2,2.187,2.187,0,0,1,.171.145.621.621,0,0,1,.11.1,10.481,10.481,0,0,1,1.5,1.635,25.313,25.313,0,0,1,1.62,2.413l.075.13c.371.622.732,1.254,1.088,1.881.717,1.264,1.424,2.538,2.217,3.757h.07c-.326-.5-.642-1-.943-1.5Zm-6.776-.251c-.256-.391-.5-.787-.747-1.184a1.311,1.311,0,0,1-.085-.14c-.191-.3-.371-.6-.557-.9-.386-.622-.767-1.244-1.164-1.856l-.085-.125a24.965,24.965,0,0,0-1.705-2.347,10.487,10.487,0,0,0-1.891-1.821,7.354,7.354,0,0,0-1.073-.662l-.15-.07a6.14,6.14,0,0,0-1.139-.4,8.376,8.376,0,0,0-2.623-.155,9.573,9.573,0,0,0-2.563.567q-.326.12-.632.256v.14h0a.136.136,0,0,1,.055-.025c.211-.1.421-.181.637-.256a9.913,9.913,0,0,1,2.508-.562,8.115,8.115,0,0,1,2.583.135,6.14,6.14,0,0,1,1,.346l.155.07a7.022,7.022,0,0,1,1.149.687,10.628,10.628,0,0,1,1.881,1.8,25.635,25.635,0,0,1,1.73,2.342c0,.04.05.085.08.125.4.607.782,1.224,1.164,1.836l.547.878.09.14c.637,1,1.289,2.036,2.006,3.009h.07q-.617-.888-1.224-1.826Zm11.717-10.408a7.524,7.524,0,0,0-1.876-.6,10.031,10.031,0,0,0-2.623-.125,9.028,9.028,0,0,0-2.568.562,9.363,9.363,0,0,0-2.292,1.284,13.409,13.409,0,0,0-1.249,1.073l-.075.07c-.843.813-1.6,1.705-2.372,2.578-.416.466-.838.933-1.279,1.374l-.045.05a11.937,11.937,0,0,1-2.563,2.006l-.311.166-.145.07a8.025,8.025,0,0,1-1.966.657,9.945,9.945,0,0,1-2.588.125,6.7,6.7,0,0,1-2.473-.722,11.8,11.8,0,0,1-2.152-1.465c-.231-.191-.456-.386-.682-.582h0a.085.085,0,0,1,0,.035.428.428,0,0,1,0,.085l.657.567a11.938,11.938,0,0,0,2.162,1.5,6.907,6.907,0,0,0,2.508.752,9.82,9.82,0,0,0,2.628-.12,8.282,8.282,0,0,0,2.112-.722l.145-.075c.075-.035.145-.075.216-.115a11.81,11.81,0,0,0,2.568-2.006l.05-.05c.451-.456.883-.928,1.3-1.4.777-.878,1.54-1.776,2.377-2.578a.458.458,0,0,1,.07-.07,13.609,13.609,0,0,1,1.229-1.053,9.2,9.2,0,0,1,2.257-1.274,9.074,9.074,0,0,1,2.508-.572,9.979,9.979,0,0,1,2.593.11,7.4,7.4,0,0,1,1.921.612A.876.876,0,0,0,244.225,356.281Z" transform="translate(-183.135 -311.188)" fill="#fff"/>
      <path id="Path_1172" data-name="Path 1172" d="M257.517,335.633c12.414,10.533,23.368,24.577,22.034,28.8-1.409,4.469-10.7,9.028-18.693,9.575-1.64.115-5.954-12.1-4.258-12.539,1.324-.351,7.323-1.675,8.075-2.438.5-.537-8.246-12.76-10.824-19.661C251.157,332.137,254.192,332.819,257.517,335.633Z" transform="translate(-201.006 -311.3)" fill="#ad6359"/>
      <path id="Path_1173" data-name="Path 1173" d="M244.748,388.77s-4.986.2-8.246.5a20.035,20.035,0,0,0-6.184,1.44c-1.916,1.088-9.239,6.866-7.875,8.667,1.234,1.635,3.381-.707,3.381-.707s-2.588,2.342-.868,3.586,4.238-2.066,4.238-2.066-2.919,2.292-.953,3.441c1.705,1,5.016-2.508,5.016-2.508s-3.33,2.066-1.685,3.265c1.821,1.324,7.423-3.325,7.423-3.325a23.342,23.342,0,0,0,9.891-.065C249.427,400.863,244.748,388.77,244.748,388.77Z" transform="translate(-185.784 -338.776)" fill="#ad6359"/>
      <path id="Path_1174" data-name="Path 1174" d="M233.984,408.48c.206-.251.421-.5.627-.752a16.273,16.273,0,0,1,1.279-1.414c.446-.431.913-.838,1.394-1.229s1.058-.782,1.555-1.209c.04-.035.085,0,.045.055a16.851,16.851,0,0,0-1.409,1.334c-.451.446-.9.9-1.339,1.349s-.9.853-1.344,1.284c-.226.211-.436.436-.652.662a5.612,5.612,0,0,1-.622.622c-.025,0-.05,0-.04-.035A3.832,3.832,0,0,1,233.984,408.48Z" transform="translate(-191.367 -346.299)" fill="#263238"/>
      <path id="Path_1175" data-name="Path 1175" d="M228.292,404.6a25.332,25.332,0,0,1,2.307-2.688,17.578,17.578,0,0,1,2.759-2.227c.035,0,.075.025.045.055-.838.838-1.7,1.66-2.548,2.483-.416.4-2.257,2.287-2.473,2.463C228.328,404.721,228.262,404.646,228.292,404.6Z" transform="translate(-188.779 -344.214)" fill="#263238"/>
      <path id="Path_1176" data-name="Path 1176" d="M240.22,412.179a24.916,24.916,0,0,1,2.217-2.508,22.994,22.994,0,0,1,2.789-1.951c.035,0,.08.03.045.055-.878.717-1.76,1.419-2.6,2.182-.411.371-1.961,1.941-2.382,2.262a.045.045,0,0,1-.065-.04Z" transform="translate(-194.728 -348.222)" fill="#263238"/>
      <path id="Path_1177" data-name="Path 1177" d="M257.735,349.424l11.8-3.07s-8.843-8.813-13.186-11.787c-4.514-3.1-6.425-2.307-3.576,4.379S257.735,349.424,257.735,349.424Z" transform="translate(-200.316 -310.891)" fill="#00a0df"/>
      <path id="Path_1178" data-name="Path 1178" d="M258.888,336.676q-.717-.451-1.46-.858a16.75,16.75,0,0,0-2.387-1.083,9.976,9.976,0,0,0-2.563-.567,2.3,2.3,0,0,0-.266,0,1.183,1.183,0,0,0-.191,0h-.592a.574.574,0,0,0,0,.1h1.043a10.072,10.072,0,0,1,2.543.557,17.435,17.435,0,0,1,2.382,1.063c.6.326,1.184.672,1.76,1Zm-5.517-3.556a8.721,8.721,0,0,0-1.364,1l-.09.08q-.236.221-.451.451l-.045.05v.191a1.654,1.654,0,0,1,.125-.15,6.081,6.081,0,0,1,.542-.537.4.4,0,0,1,.09-.075,8.63,8.63,0,0,1,1.314-1ZM267.36,344.4a8.793,8.793,0,0,1-3.1,3.11,8.99,8.99,0,0,1-1.5.757l.687-.176a6.908,6.908,0,0,0,.9-.5,9.269,9.269,0,0,0,2.051-1.645,8.87,8.87,0,0,0,1.088-1.465Z" transform="translate(-200.311 -311.039)" fill="#fff"/>
      <path id="Path_1179" data-name="Path 1179" d="M269.22,348.17c-.12.341-.231.682-.341,1a26.171,26.171,0,0,1-1.866,4.9,9.246,9.246,0,0,1-1.575,2.107,1.2,1.2,0,0,1-.12.11,7.8,7.8,0,0,0,1.028-.05l-.5.13h-.612a3.113,3.113,0,0,1-.241.216l-.3.08a3.232,3.232,0,0,0,.346-.3,10.2,10.2,0,0,1-2.087-.311.764.764,0,0,0-.045-.09,9.89,9.89,0,0,0,2.162.331h.07a2.68,2.68,0,0,0,.216-.2,9.2,9.2,0,0,0,1.545-2.077,26.119,26.119,0,0,0,1.856-4.875c.115-.361.231-.727.361-1.088Z" transform="translate(-206.038 -318.48)" fill="#fff"/>
      <path id="Path_1180" data-name="Path 1180" d="M264.52,359.132c.271-.105.557-.176.838-.256l.868-.246c.582-.171,1.169-.326,1.755-.5,1.174-.306,2.342-.622,3.511-.913l.973-.226c.346-.075.692-.125,1.033-.2v.03c-.291.085-.572.2-.858.286l-.863.291q-.873.241-1.761.466c-1.154.3-2.312.6-3.476.868l-.973.226c-.341.08-.682.176-1.028.226C264.51,359.162,264.5,359.137,264.52,359.132Z" transform="translate(-206.835 -322.836)" fill="#263238"/>
      <path id="Path_1181" data-name="Path 1181" d="M255.626,350.162s0-.045.035-.025a8.585,8.585,0,0,1,.853,1.134c-.085-.2-.181-.4-.271-.592-.281-.642-.557-1.289-.843-1.926,0,0,0-.04.035,0,.577,1.083,1.194,2.142,1.735,3.24s1.083,2.192,1.605,3.3c.291.607.6,1.384.888,2.006.356-.04.787-.166,1.169-.216.035,0,.035.05,0,.055-.391.105-.833.3-1.254.371-.05,0-2.006-3.9-2.874-5.783C256.333,351.19,255.967,350.683,255.626,350.162Z" transform="translate(-202.294 -318.821)" fill="#263238"/>
      <path id="Path_1182" data-name="Path 1182" d="M239.15,331.821c1.69.5,4.775-1.956,6.054-4.013.085-.14-.05-1.685-.13-3.571-.045-1.144-.065-2.418,0-3.581,0-.241-7.4,1.369-7.4,1.369a18.627,18.627,0,0,1,.456,4.514,2.315,2.315,0,0,1-.075.471v.08C237.836,327.989,237.52,331.349,239.15,331.821Z" transform="translate(-193.457 -304.814)" fill="#ad6359"/>
      <path id="Path_1183" data-name="Path 1183" d="M244.607,320.69c-.446,1.951-1.936,6.641-5.838,6.52a4.217,4.217,0,0,1-.747-.08.38.38,0,0,1,0-.08,3.42,3.42,0,0,0,.08-.471,18.748,18.748,0,0,0-.461-4.514S243.007,320.891,244.607,320.69Z" transform="translate(-193.442 -304.843)" fill="#263238"/>
      <path id="Path_1184" data-name="Path 1184" d="M241.735,299.059c.672,2.628-1.048,10.031-2.969,11.631-2.789,2.3-7.172,2.322-9.078-1-1.846-3.2.567-12.84,2.7-14.26C235.536,293.352,240.747,295.177,241.735,299.059Z" transform="translate(-189.151 -291.819)" fill="#ad6359"/>
      <path id="Path_1185" data-name="Path 1185" d="M241.735,299.059c.672,2.628-1.048,10.031-2.969,11.631-2.789,2.3-7.172,2.322-9.078-1-1.846-3.2.567-12.84,2.7-14.26C235.536,293.352,240.747,295.177,241.735,299.059Z" transform="translate(-189.151 -291.819)" fill="#ad6359"/>
      <path id="Path_1186" data-name="Path 1186" d="M238.933,312.14s.035.035.03.055c-.13.5-.2,1.083.221,1.354v.025C238.637,313.374,238.732,312.571,238.933,312.14Z" transform="translate(-194.008 -300.581)" fill="#263238"/>
      <path id="Path_1187" data-name="Path 1187" d="M239.544,311.3c.818.12.5,1.75-.246,1.64S238.857,311.2,239.544,311.3Z" transform="translate(-194.052 -300.158)" fill="#263238"/>
      <path id="Path_1188" data-name="Path 1188" d="M232.677,311.12s-.045,0-.05.04c-.075.5-.251,1.073-.737,1.159v.025C232.447,312.374,232.682,311.617,232.677,311.12Z" transform="translate(-190.576 -300.073)" fill="#263238"/>
      <path id="Path_1189" data-name="Path 1189" d="M231.931,309.89c-.8-.216-1.164,1.4-.421,1.6S232.6,310.066,231.931,309.89Z" transform="translate(-190.186 -299.45)" fill="#263238"/>
      <path id="Path_1190" data-name="Path 1190" d="M240.895,307.568c-.226-.06-.421-.15-.637-.231a1.109,1.109,0,0,1-.612-.361.351.351,0,0,1,.06-.421.873.873,0,0,1,.878-.085,1.274,1.274,0,0,1,.732.557.376.376,0,0,1-.421.542Z" transform="translate(-194.42 -297.715)" fill="#263238"/>
      <path id="Path_1191" data-name="Path 1191" d="M231.379,307.227a5.13,5.13,0,0,0,.682-.045,1.093,1.093,0,0,0,.682-.181.341.341,0,0,0,.055-.421.858.858,0,0,0-.818-.321,1.289,1.289,0,0,0-.858.336.371.371,0,0,0,.256.632Z" transform="translate(-190.141 -297.644)" fill="#263238"/>
      <path id="Path_1192" data-name="Path 1192" d="M238.013,321.79c-.14.1-.291.236-.477.216a1.345,1.345,0,0,1-.5-.226h0a.692.692,0,0,0,.587.4.557.557,0,0,0,.5-.376C238.088,321.795,238.048,321.775,238.013,321.79Z" transform="translate(-193.133 -305.386)" fill="#263238"/>
      <path id="Path_1193" data-name="Path 1193" d="M235.657,312.757a1.76,1.76,0,0,1-1.289.552,2.222,2.222,0,0,1-.627-.085l-.115-.035-.105-.04a.125.125,0,0,1-.08-.13h0a.191.191,0,0,1,0-.05h0v-.045c.06-.386.211-.973.211-.973-.155.045-.943.236-.893.035a26.261,26.261,0,0,1,1.635-5.076c0-.05.105,0,.09.03-.336,1.615-.948,3.155-1.309,4.77a3.086,3.086,0,0,1,.853-.1c.055.03-.3,1.124-.316,1.3h0a2.417,2.417,0,0,0,1.881-.221C235.657,312.682,235.692,312.722,235.657,312.757Z" transform="translate(-191.008 -297.963)" fill="#263238"/>
      <path id="Path_1194" data-name="Path 1194" d="M235.25,318.906a2.1,2.1,0,0,0,.7.782.923.923,0,0,0,.547.14c.426-.03.5-.4.5-.727a2.147,2.147,0,0,0-.09-.5,2.683,2.683,0,0,1-1.66.306Z" transform="translate(-192.251 -303.801)" fill="#263238"/>
      <path id="Path_1195" data-name="Path 1195" d="M236.65,320.173a.923.923,0,0,0,.547.14c.426-.03.5-.4.5-.727A.953.953,0,0,0,236.65,320.173Z" transform="translate(-192.949 -304.286)" fill="#ff97b8"/>
      <path id="Path_1196" data-name="Path 1196" d="M252.067,306.365c-.476-.2-1.254-2.147-1.595-2.929s.216-4.4.366-5.216a5.518,5.518,0,0,1,1.56,2.613A14.639,14.639,0,0,1,252.067,306.365Z" transform="translate(-199.784 -293.643)" fill="#263238" opacity="0.2"/>
      <path id="Path_1197" data-name="Path 1197" d="M237.662,301.124a2.613,2.613,0,0,0,2.162,1.349,2.658,2.658,0,0,0,2.332-1.144l.035.025a2.643,2.643,0,0,1-2.372,1.334,2.7,2.7,0,0,1-2.212-1.535C237.592,301.119,237.642,301.089,237.662,301.124Z" transform="translate(-193.425 -295.083)" fill="#263238"/>
      <path id="Path_1198" data-name="Path 1198" d="M242.343,289.513a4.138,4.138,0,0,1,3.009,2.568,2.934,2.934,0,0,1-.105,1.926c0,.025-.065,0-.055,0a3.22,3.22,0,0,0-.9-3.155,4.143,4.143,0,0,0-3.511-1.174,2.623,2.623,0,0,0-1.61.823c-.04.045-.14,0-.105-.06A3.147,3.147,0,0,1,242.343,289.513Z" transform="translate(-194.148 -289.25)" fill="#263238"/>
      <path id="Path_1199" data-name="Path 1199" d="M226.7,290.859a3.361,3.361,0,0,1,1.755-1.475,4.6,4.6,0,0,1,3.039.236c.03,0,0,.05,0,.04a4.594,4.594,0,0,0-2.618-.236,3.26,3.26,0,0,0-1.811,1.259,3.2,3.2,0,0,0,.5,4.158,3.255,3.255,0,0,0,2.458.777c.035,0,.05.045,0,.05a3.265,3.265,0,0,1-3.325-4.81Z" transform="translate(-187.784 -289.152)" fill="#263238"/>
      <path id="Path_1200" data-name="Path 1200" d="M241.187,297.86s1.946-2.372,1.078-4.148c-.5-1-2.734-1.339-2.734-1.339a4.068,4.068,0,0,0-2.207-2.207,7.4,7.4,0,0,0-4.2-.16,3.779,3.779,0,0,0-3.4-.752,3.5,3.5,0,0,0-.893,6.019c1.465,1.124,3.967.125,3.967.125.206.07,2.117,1.821,4.153.211,0,0,1.1,1.46,2.463.868a1.971,1.971,0,0,0,1.771,1.384Z" transform="translate(-188.387 -289.095)" fill="#263238"/>
      <path id="Path_1201" data-name="Path 1201" d="M250.037,313.8s1.856-2.3,2.909-1.625-.446,4.1-1.771,4.489a1.309,1.309,0,0,1-1.705-.823Z" transform="translate(-199.339 -300.537)" fill="#ad6359"/>
      <path id="Path_1202" data-name="Path 1202" d="M253.19,314.23v.035a3.328,3.328,0,0,0-1.851,1.956.732.732,0,0,1,1.1-.1s0,.055-.03.05a.8.8,0,0,0-.9.221,3.815,3.815,0,0,0-.476.687c-.045.08-.191.025-.15-.065h0C250.938,315.815,251.941,314.265,253.19,314.23Z" transform="translate(-200.04 -301.623)" fill="#263238"/>
      <path id="Path_1203" data-name="Path 1203" d="M245.647,335.108a33.371,33.371,0,0,1-2.608,2.784,5.578,5.578,0,0,1-3.145,1.615c-1.159.1-2.312-.156-2.729-1.575a8.527,8.527,0,0,1-.05-3.722.045.045,0,1,0-.085,0c-.281,1.851-.587,4.725,1.093,5.382,1.881.732,3.737-.221,5.076-1.5a17.637,17.637,0,0,0,2.483-2.934S245.668,335.078,245.647,335.108Z" transform="translate(-193.028 -311.552)" fill="#263238"/>
    </g>
  </g>
</svg>
